<svg width="29" height="35" viewBox="0 0 29 35" fill="none" xmlns="http://www.w3.org/2000/svg">
<path d="M24.2215 18.5067C24.2391 17.1728 24.602 15.865 25.2765 14.7049C25.9509 13.5447 26.915 12.57 28.0789 11.8714C27.3395 10.8403 26.364 9.99184 25.2299 9.39327C24.0958 8.79471 22.8344 8.46255 21.5459 8.42319C18.7971 8.1415 16.1324 10.029 14.7316 10.029C13.3038 10.029 11.1472 8.45116 8.82492 8.4978C7.3228 8.54518 5.85885 8.97164 4.57574 9.73562C3.29262 10.4996 2.23408 11.575 1.50326 12.8572C-1.6624 18.2082 0.698907 26.0725 3.7314 30.398C5.24863 32.516 7.02182 34.8819 9.34204 34.798C11.6125 34.706 12.4605 33.3845 15.2011 33.3845C17.9163 33.3845 18.7119 34.798 21.0792 34.7446C23.5155 34.706 25.0505 32.6172 26.5145 30.4791C27.6046 28.9699 28.4435 27.302 29 25.537C27.5845 24.9525 26.3766 23.9742 25.5269 22.724C24.6772 21.4738 24.2232 20.0071 24.2215 18.5067Z" fill="#545454"/>
<path d="M19.7501 5.57833C21.0785 4.02146 21.733 2.02036 21.5745 0C19.545 0.208103 17.6704 1.15506 16.3241 2.6522C15.6658 3.38359 15.1616 4.23447 14.8404 5.1562C14.5192 6.07793 14.3872 7.05244 14.4519 8.02401C15.467 8.03421 16.4713 7.8194 17.389 7.39577C18.3067 6.97214 19.114 6.35073 19.7501 5.57833Z" fill="#545454"/>
</svg>
