<svg width="143" height="107" viewBox="0 0 143 107" fill="none" xmlns="http://www.w3.org/2000/svg">
<path d="M121.153 33.1894L113.342 19.6613C112.502 18.2069 110.936 17.3021 109.256 17.3021H93.6353C92.9414 17.3021 92.2673 17.4589 91.6545 17.7419C91.586 17.0967 91.3878 16.4641 91.0544 15.8873L83.2432 2.35922C82.4033 0.904757 80.8371 0 79.1573 0H63.5368C61.857 0 60.2908 0.904757 59.451 2.35922L51.6398 15.8873C51.3063 16.4641 51.1081 17.0985 51.0396 17.7437C50.4268 17.4589 49.7528 17.3039 49.0589 17.3039H33.4383C31.7585 17.3039 30.1923 18.2087 29.3525 19.6631L21.5413 33.1912C20.7014 34.6457 20.7014 36.4534 21.5413 37.9097L29.3525 51.4378C30.1923 52.8922 31.7585 53.797 33.4383 53.797H49.0589C49.7528 53.797 50.4268 53.6402 51.0396 53.3572C51.1081 54.0024 51.3063 54.6351 51.6398 55.2136L59.451 68.7417C60.2908 70.1962 61.857 71.1009 63.5368 71.1009H79.1573C80.8371 71.1009 82.4033 70.1962 83.2432 68.7417L91.0544 55.2136C91.3878 54.6369 91.586 54.0024 91.6545 53.359C92.2673 53.6438 92.9396 53.7988 93.6353 53.7988H109.256C110.936 53.7988 112.502 52.894 113.342 51.4396L121.153 37.9115C121.993 36.457 121.993 34.6493 121.153 33.193V33.1894ZM53.2024 16.7885L61.0135 3.26037C61.5326 2.36102 62.5005 1.8023 63.5386 1.8023H79.1591C80.1973 1.8023 81.1651 2.36102 81.6842 3.26037L89.4954 16.7885C90.0144 17.6878 90.0144 18.8052 89.4954 19.7046L81.6842 33.2327C81.257 33.9734 80.5253 34.4817 79.7016 34.6385C79.5232 34.6169 79.343 34.6042 79.1591 34.6042H63.5386C63.3565 34.6042 63.1763 34.6169 62.9961 34.6385C62.1724 34.4817 61.4407 33.9734 61.0135 33.2327L53.2024 19.7046C52.6833 18.8052 52.6833 17.6878 53.2024 16.7885ZM33.4401 51.9911C32.402 51.9911 31.4341 51.4324 30.9151 50.533L23.1039 37.0049C22.5848 36.1056 22.5848 34.9881 23.1039 34.0888L30.9151 20.5607C31.4341 19.6613 32.402 19.1026 33.4401 19.1026H49.0607C50.0988 19.1026 51.0666 19.6613 51.5857 20.5607L59.3969 34.0888C59.9159 34.9881 59.9159 36.1056 59.3969 37.0049L51.5857 50.533C51.0666 51.4324 50.0988 51.9911 49.0607 51.9911H33.4401ZM89.4936 54.3088L81.6824 67.8369C81.1633 68.7363 80.1955 69.295 79.1573 69.295H63.5368C62.4986 69.295 61.5308 68.7363 61.0117 67.8369L53.2006 54.3088C52.6815 53.4095 52.6815 52.2921 53.2006 51.3927L61.0117 37.8646C61.4389 37.1239 62.1706 36.6156 62.9943 36.4588C63.1727 36.4804 63.3529 36.4931 63.5368 36.4931H79.1573C79.3394 36.4931 79.5196 36.4804 79.6998 36.4588C80.5235 36.6156 81.2552 37.1239 81.6824 37.8646L89.4936 51.3927C90.0126 52.2921 90.0126 53.4095 89.4936 54.3088ZM119.592 37.0067L111.781 50.5348C111.262 51.4342 110.294 51.9929 109.256 51.9929H93.6353C92.5971 51.9929 91.6293 51.4342 91.1102 50.5348L83.299 37.0067C82.78 36.1074 82.78 34.9899 83.299 34.0906L91.1102 20.5625C91.6293 19.6631 92.5971 19.1044 93.6353 19.1044H109.256C110.294 19.1044 111.262 19.6631 111.781 20.5625L119.592 34.0906C120.111 34.9899 120.111 36.1074 119.592 37.0067Z" fill="#EFDF18"/>
<path d="M62.9656 46.3194H79.2368C79.7342 46.3194 80.138 45.9157 80.138 45.4182C80.138 44.9208 79.7342 44.5171 79.2368 44.5171H62.9656C62.4682 44.5171 62.0645 44.9208 62.0645 45.4182C62.0645 45.9157 62.4682 46.3194 62.9656 46.3194Z" fill="#EFDF18"/>
<path d="M79.2368 58.0342H62.9656C62.4682 58.0342 62.0645 58.4379 62.0645 58.9353C62.0645 59.4328 62.4682 59.8365 62.9656 59.8365H79.2368C79.7342 59.8365 80.138 59.4328 80.138 58.9353C80.138 58.4379 79.7342 58.0342 79.2368 58.0342Z" fill="#EFDF18"/>
<path d="M84.1679 51.1855H58.0345C57.537 51.1855 57.1333 51.5893 57.1333 52.0867C57.1333 52.5841 57.537 52.9879 58.0345 52.9879H84.1679C84.6653 52.9879 85.069 52.5841 85.069 52.0867C85.069 51.5893 84.6653 51.1855 84.1679 51.1855Z" fill="#EFDF18"/>
<path d="M137.689 92.4919C134.773 92.4919 132.661 90.3566 132.661 87.4637C132.661 84.5937 134.773 82.4585 137.689 82.4585C140.582 82.4585 142.694 84.6167 142.694 87.4637C142.694 90.3566 140.582 92.4919 137.689 92.4919ZM133.533 87.4637C133.533 89.8974 135.278 91.6194 137.689 91.6194C140.1 91.6194 141.822 89.8745 141.822 87.4637C141.822 85.0989 140.1 83.331 137.689 83.331C135.278 83.331 133.533 85.0759 133.533 87.4637ZM135.944 90.1959V84.6626H137.965C138.975 84.6626 139.87 85.2596 139.87 86.3846C139.87 87.2571 139.365 87.854 138.63 88.0607L140.077 90.1959H139.09L137.712 88.1525H136.817V90.1959H135.944ZM136.817 87.3259H137.919C138.562 87.3259 138.952 87.0275 138.952 86.4076C138.952 85.7876 138.516 85.4892 137.873 85.4892H136.817V87.3259Z" fill="white"/>
<path d="M124.254 101.171C120.673 101.171 118.009 98.4844 118.009 94.4664C118.009 90.5174 120.604 87.7393 124.231 87.7393C126.642 87.7393 130.017 89.025 130.017 94.0991V94.8108H119.662C119.731 97.8645 121.66 99.7472 124.323 99.7472C126.504 99.7472 128.02 98.3237 128.731 96.5558L130.201 97.0838C129.237 99.6783 126.987 101.171 124.254 101.171ZM119.754 93.2496H128.341C128.272 90.2419 126.114 89.2087 124.185 89.2087C121.775 89.2087 120.099 90.8847 119.754 93.2496Z" fill="white"/>
<path d="M110.039 101.171C106.458 101.171 103.794 98.4844 103.794 94.4664C103.794 90.5174 106.389 87.7393 110.016 87.7393C112.427 87.7393 115.802 89.025 115.802 94.0991V94.8108H105.447C105.516 97.8645 107.445 99.7472 110.108 99.7472C112.289 99.7472 113.805 98.3237 114.516 96.5558L115.986 97.0838C115.021 99.6783 112.771 101.171 110.039 101.171ZM105.539 93.2496H114.126C114.057 90.2419 111.899 89.2087 109.97 89.2087C107.56 89.2087 105.884 90.8847 105.539 93.2496Z" fill="white"/>
<path d="M95.8054 101.171C93.7161 101.171 91.9252 100.092 90.9609 98.2089H90.915V100.78H89.4226V82.4126H90.9609V90.747C92.063 88.7265 93.8768 87.7392 95.8513 87.7392C99.2034 87.7392 101.683 90.5403 101.683 94.4435C101.683 98.4614 99.0886 101.171 95.8054 101.171ZM90.9609 94.4664C90.9609 97.6119 93.0502 99.7471 95.5528 99.7471C98.1473 99.7471 100.03 97.4971 100.03 94.4435C100.03 91.3898 98.1243 89.1627 95.5528 89.1627C93.0273 89.1627 90.9609 91.3439 90.9609 94.4664Z" fill="white"/>
<path d="M80.5569 101.171C76.8145 101.171 74.0134 98.5074 74.0134 94.4435C74.0134 90.5174 76.6538 87.6475 80.3733 87.6475C83.3351 87.6475 86.4346 89.5072 86.4346 94.3287V95.1323H76.7686C76.9752 97.4053 78.5594 98.737 80.5569 98.737C82.1412 98.737 83.381 97.7956 83.9779 96.3262L86.5265 97.3364C85.654 99.5865 83.4499 101.171 80.5569 101.171ZM76.9063 93.1807H83.6795C83.4958 90.8618 81.9345 89.9893 80.3503 89.9893C78.4676 89.9893 77.2278 91.298 76.9063 93.1807Z" fill="white"/>
<path d="M68.7426 100.78V88.0144H71.4519V100.78H68.7426ZM68.3293 83.8817C68.3293 82.9403 69.087 82.1367 70.1202 82.1367C71.1075 82.1367 71.8651 82.9403 71.8651 83.8817C71.8651 84.8919 71.1075 85.6955 70.1202 85.6955C69.087 85.6955 68.3293 84.8919 68.3293 83.8817Z" fill="white"/>
<path d="M59.0767 106.199C56.6889 106.199 54.1633 105.418 53.0842 102.525L55.5639 101.63C56.1608 103.122 57.2629 103.88 58.9849 103.88C61.1431 103.88 62.5666 102.617 62.5666 99.4028V98.5303H62.5206C61.6023 100.092 60.064 100.734 58.4568 100.734C54.7373 100.734 52.5791 97.7497 52.5791 94.191C52.5791 90.3567 55.0817 87.6475 58.3649 87.6475C60.3165 87.6475 61.763 88.5888 62.5666 89.9893H62.6125V88.0148H65.2988V99.4028C65.2988 104.592 62.3829 106.199 59.0767 106.199ZM55.4031 94.145C55.4031 96.3721 56.8955 98.14 58.9849 98.14C61.0742 98.14 62.6354 96.3721 62.6354 94.145C62.6354 91.895 61.0512 90.2189 58.9849 90.2189C56.8955 90.2189 55.4031 91.9409 55.4031 94.145Z" fill="white"/>
<path d="M43.9441 100.78V88.0148H46.6074V90.173H46.6992C47.3421 88.7725 48.6967 87.6475 50.4646 87.6475C50.8779 87.6475 51.2912 87.6934 51.7504 87.8771V90.9077C51.2682 90.7241 50.6024 90.6552 50.1891 90.6552C47.2962 90.6552 46.6533 93.3874 46.6533 95.4767V100.78H43.9441Z" fill="white"/>
<path d="M35.4 101.171C31.6575 101.171 28.8564 98.5074 28.8564 94.4435C28.8564 90.5174 31.4968 87.6475 35.2163 87.6475C38.1781 87.6475 41.2776 89.5072 41.2776 94.3287V95.1323H31.6116C31.8182 97.4053 33.4025 98.737 35.4 98.737C36.9842 98.737 38.224 97.7956 38.8209 96.3262L41.3695 97.3364C40.497 99.5865 38.2929 101.171 35.4 101.171ZM31.7494 93.1807H38.5225C38.3388 90.8618 36.7775 89.9893 35.1933 89.9893C33.3106 89.9893 32.0708 91.298 31.7494 93.1807Z" fill="white"/>
<path d="M15.0876 100.78V88.0148H17.751V90.0582H17.7969C18.7612 88.3822 20.2995 87.6475 21.9296 87.6475C24.2486 87.6475 26.4527 89.1398 26.4527 92.7445V100.78H23.7205V93.9384C23.7205 91.8261 22.9399 90.2189 20.9883 90.2189C19.1515 90.2189 17.7969 91.6424 17.7969 94.0303V100.78H15.0876Z" fill="white"/>
<path d="M6.54351 101.171C2.80108 101.171 0 98.5074 0 94.4435C0 90.5174 2.64036 87.6475 6.35983 87.6475C9.32163 87.6475 12.4212 89.5072 12.4212 94.3287V95.1323H2.75516C2.9618 97.4053 4.54602 98.737 6.54351 98.737C8.12773 98.737 9.36755 97.7956 9.9645 96.3262L12.513 97.3364C11.6406 99.5865 9.43643 101.171 6.54351 101.171ZM2.89292 93.1807H9.66602C9.48235 90.8618 7.92109 89.9893 6.33687 89.9893C4.45418 89.9893 3.21435 91.298 2.89292 93.1807Z" fill="white"/>
</svg>
