<svg width="143" height="107" viewBox="0 0 143 107" fill="none" xmlns="http://www.w3.org/2000/svg">
<path d="M115.306 33.1894L107.495 19.6613C106.655 18.2069 105.089 17.3021 103.409 17.3021H87.7882C87.0943 17.3021 86.4202 17.4589 85.8075 17.7419C85.739 17.0967 85.5407 16.4641 85.2073 15.8873L77.3961 2.35922C76.5562 0.904757 74.99 0 73.3103 0H57.6897C56.01 0 54.4438 0.904757 53.6039 2.35922L45.7927 15.8873C45.4593 16.4641 45.261 17.0985 45.1925 17.7437C44.5798 17.4589 43.9057 17.3039 43.2118 17.3039H27.5912C25.9115 17.3039 24.3453 18.2087 23.5054 19.6631L15.6942 33.1912C14.8543 34.6457 14.8543 36.4534 15.6942 37.9097L23.5054 51.4378C24.3453 52.8922 25.9115 53.797 27.5912 53.797H43.2118C43.9057 53.797 44.5798 53.6402 45.1925 53.3572C45.261 54.0024 45.4593 54.6351 45.7927 55.2136L53.6039 68.7417C54.4438 70.1962 56.01 71.1009 57.6897 71.1009H73.3103C74.99 71.1009 76.5562 70.1962 77.3961 68.7417L85.2073 55.2136C85.5407 54.6369 85.739 54.0024 85.8075 53.359C86.4202 53.6438 87.0925 53.7988 87.7882 53.7988H103.409C105.089 53.7988 106.655 52.894 107.495 51.4396L115.306 37.9115C116.146 36.457 116.146 34.6493 115.306 33.193V33.1894ZM47.3553 16.7885L55.1665 3.26037C55.6856 2.36102 56.6534 1.8023 57.6915 1.8023H73.3121C74.3502 1.8023 75.3181 2.36102 75.8371 3.26037L83.6483 16.7885C84.1674 17.6878 84.1674 18.8052 83.6483 19.7046L75.8371 33.2327C75.41 33.9734 74.6782 34.4817 73.8546 34.6385C73.6762 34.6169 73.4959 34.6042 73.3121 34.6042H57.6915C57.5095 34.6042 57.3293 34.6169 57.149 34.6385C56.3254 34.4817 55.5936 33.9734 55.1665 33.2327L47.3553 19.7046C46.8362 18.8052 46.8362 17.6878 47.3553 16.7885ZM27.593 51.9911C26.5549 51.9911 25.5871 51.4324 25.068 50.533L17.2568 37.0049C16.7378 36.1056 16.7378 34.9881 17.2568 34.0888L25.068 20.5607C25.5871 19.6613 26.5549 19.1026 27.593 19.1026H43.2136C44.2517 19.1026 45.2196 19.6613 45.7386 20.5607L53.5498 34.0888C54.0689 34.9881 54.0689 36.1056 53.5498 37.0049L45.7386 50.533C45.2196 51.4324 44.2517 51.9911 43.2136 51.9911H27.593ZM83.6465 54.3088L75.8353 67.8369C75.3163 68.7363 74.3484 69.295 73.3103 69.295H57.6897C56.6516 69.295 55.6838 68.7363 55.1647 67.8369L47.3535 54.3088C46.8344 53.4095 46.8344 52.2921 47.3535 51.3927L55.1647 37.8646C55.5918 37.1239 56.3236 36.6156 57.1472 36.4588C57.3256 36.4804 57.5059 36.4931 57.6897 36.4931H73.3103C73.4923 36.4931 73.6726 36.4804 73.8528 36.4588C74.6764 36.6156 75.4082 37.1239 75.8353 37.8646L83.6465 51.3927C84.1656 52.2921 84.1656 53.4095 83.6465 54.3088ZM113.745 37.0067L105.934 50.5348C105.415 51.4342 104.447 51.9929 103.409 51.9929H87.7882C86.7501 51.9929 85.7822 51.4342 85.2632 50.5348L77.452 37.0067C76.9329 36.1074 76.9329 34.9899 77.452 34.0906L85.2632 20.5625C85.7822 19.6631 86.7501 19.1044 87.7882 19.1044H103.409C104.447 19.1044 105.415 19.6631 105.934 20.5625L113.745 34.0906C114.264 34.9899 114.264 36.1074 113.745 37.0067Z" fill="#EFDF18"/>
<path d="M57.1185 46.3194H73.3897C73.8872 46.3194 74.2909 45.9157 74.2909 45.4182C74.2909 44.9208 73.8872 44.5171 73.3897 44.5171H57.1185C56.6211 44.5171 56.2174 44.9208 56.2174 45.4182C56.2174 45.9157 56.6211 46.3194 57.1185 46.3194Z" fill="#EFDF18"/>
<path d="M73.3897 58.0342H57.1185C56.6211 58.0342 56.2174 58.4379 56.2174 58.9353C56.2174 59.4328 56.6211 59.8365 57.1185 59.8365H73.3897C73.8872 59.8365 74.2909 59.4328 74.2909 58.9353C74.2909 58.4379 73.8872 58.0342 73.3897 58.0342Z" fill="#EFDF18"/>
<path d="M78.3208 51.1855H52.1874C51.69 51.1855 51.2863 51.5893 51.2863 52.0867C51.2863 52.5841 51.69 52.9879 52.1874 52.9879H78.3208C78.8183 52.9879 79.222 52.5841 79.222 52.0867C79.222 51.5893 78.8183 51.1855 78.3208 51.1855Z" fill="#EFDF18"/>
<path d="M137.689 92.5925C134.773 92.5925 132.661 90.4572 132.661 87.5643C132.661 84.6943 134.773 82.5591 137.689 82.5591C140.582 82.5591 142.694 84.7173 142.694 87.5643C142.694 90.4572 140.582 92.5925 137.689 92.5925ZM133.533 87.5643C133.533 89.998 135.278 91.72 137.689 91.72C140.1 91.72 141.822 89.9751 141.822 87.5643C141.822 85.1994 140.1 83.4315 137.689 83.4315C135.278 83.4315 133.533 85.1765 133.533 87.5643ZM135.944 90.2965V84.7632H137.965C138.975 84.7632 139.87 85.3602 139.87 86.4852C139.87 87.3577 139.365 87.9546 138.63 88.1612L140.077 90.2965H139.09L137.712 88.2531H136.817V90.2965H135.944ZM136.817 87.4265H137.919C138.562 87.4265 138.952 87.1281 138.952 86.5081C138.952 85.8882 138.516 85.5898 137.873 85.5898H136.817V87.4265Z" fill="white"/>
<path d="M124.254 101.271C120.673 101.271 118.009 98.585 118.009 94.567C118.009 90.618 120.604 87.8398 124.231 87.8398C126.642 87.8398 130.017 89.1256 130.017 94.1997V94.9114H119.662C119.731 97.9651 121.66 99.8478 124.323 99.8478C126.504 99.8478 128.02 98.4243 128.731 96.6564L130.201 97.1844C129.237 99.7789 126.987 101.271 124.254 101.271ZM119.754 93.3502H128.341C128.272 90.3424 126.114 89.3093 124.185 89.3093C121.775 89.3093 120.099 90.9853 119.754 93.3502Z" fill="white"/>
<path d="M110.039 101.271C106.458 101.271 103.794 98.585 103.794 94.567C103.794 90.618 106.389 87.8398 110.016 87.8398C112.427 87.8398 115.802 89.1256 115.802 94.1997V94.9114H105.447C105.516 97.9651 107.445 99.8478 110.108 99.8478C112.289 99.8478 113.805 98.4243 114.516 96.6564L115.986 97.1844C115.021 99.7789 112.771 101.271 110.039 101.271ZM105.539 93.3502H114.126C114.057 90.3424 111.899 89.3093 109.97 89.3093C107.56 89.3093 105.884 90.9853 105.539 93.3502Z" fill="white"/>
<path d="M95.8054 101.271C93.7161 101.271 91.9252 100.192 90.9609 98.3094H90.915V100.881H89.4226V82.5132H90.9609V90.8475C92.063 88.8271 93.8768 87.8398 95.8513 87.8398C99.2034 87.8398 101.683 90.6409 101.683 94.5441C101.683 98.562 99.0886 101.271 95.8054 101.271ZM90.9609 94.567C90.9609 97.7125 93.0502 99.8477 95.5528 99.8477C98.1473 99.8477 100.03 97.5977 100.03 94.5441C100.03 91.4904 98.1243 89.2633 95.5528 89.2633C93.0273 89.2633 90.9609 91.4445 90.9609 94.567Z" fill="white"/>
<path d="M80.5569 101.271C76.8145 101.271 74.0134 98.608 74.0134 94.5441C74.0134 90.618 76.6538 87.748 80.3733 87.748C83.3351 87.748 86.4346 89.6078 86.4346 94.4293V95.2329H76.7686C76.9752 97.5059 78.5594 98.8376 80.5569 98.8376C82.1412 98.8376 83.381 97.8962 83.9779 96.4268L86.5265 97.437C85.654 99.6871 83.4499 101.271 80.5569 101.271ZM76.9063 93.2813H83.6795C83.4958 90.9624 81.9345 90.0899 80.3503 90.0899C78.4676 90.0899 77.2278 91.3986 76.9063 93.2813Z" fill="white"/>
<path d="M68.7426 100.881V88.115H71.4519V100.881H68.7426ZM68.3293 83.9822C68.3293 83.0409 69.087 82.2373 70.1202 82.2373C71.1075 82.2373 71.8651 83.0409 71.8651 83.9822C71.8651 84.9925 71.1075 85.7961 70.1202 85.7961C69.087 85.7961 68.3293 84.9925 68.3293 83.9822Z" fill="white"/>
<path d="M59.0767 106.299C56.6889 106.299 54.1633 105.519 53.0842 102.626L55.5639 101.73C56.1608 103.223 57.2629 103.981 58.9849 103.981C61.1431 103.981 62.5666 102.718 62.5666 99.5034V98.6309H62.5206C61.6023 100.192 60.064 100.835 58.4568 100.835C54.7373 100.835 52.5791 97.8503 52.5791 94.2916C52.5791 90.4573 55.0817 87.748 58.3649 87.748C60.3165 87.748 61.763 88.6894 62.5666 90.0899H62.6125V88.1154H65.2988V99.5034C65.2988 104.692 62.3829 106.299 59.0767 106.299ZM55.4031 94.2456C55.4031 96.4727 56.8955 98.2406 58.9849 98.2406C61.0742 98.2406 62.6354 96.4727 62.6354 94.2456C62.6354 91.9956 61.0512 90.3195 58.9849 90.3195C56.8955 90.3195 55.4031 92.0415 55.4031 94.2456Z" fill="white"/>
<path d="M43.9441 100.881V88.1154H46.6074V90.2736H46.6992C47.3421 88.8731 48.6967 87.748 50.4646 87.748C50.8779 87.748 51.2912 87.794 51.7504 87.9776V91.0083C51.2682 90.8246 50.6024 90.7558 50.1891 90.7558C47.2962 90.7558 46.6533 93.488 46.6533 95.5773V100.881H43.9441Z" fill="white"/>
<path d="M35.4 101.271C31.6575 101.271 28.8564 98.608 28.8564 94.5441C28.8564 90.618 31.4968 87.748 35.2163 87.748C38.1781 87.748 41.2776 89.6078 41.2776 94.4293V95.2329H31.6116C31.8182 97.5059 33.4025 98.8376 35.4 98.8376C36.9842 98.8376 38.224 97.8962 38.8209 96.4268L41.3695 97.437C40.497 99.6871 38.2929 101.271 35.4 101.271ZM31.7494 93.2813H38.5225C38.3388 90.9624 36.7775 90.0899 35.1933 90.0899C33.3106 90.0899 32.0708 91.3986 31.7494 93.2813Z" fill="white"/>
<path d="M15.0876 100.881V88.1154H17.751V90.1588H17.7969C18.7612 88.4828 20.2995 87.748 21.9296 87.748C24.2486 87.748 26.4527 89.2404 26.4527 92.8451V100.881H23.7205V94.039C23.7205 91.9267 22.9399 90.3195 20.9883 90.3195C19.1515 90.3195 17.7969 91.743 17.7969 94.1308V100.881H15.0876Z" fill="white"/>
<path d="M6.54351 101.271C2.80108 101.271 0 98.608 0 94.5441C0 90.618 2.64036 87.748 6.35983 87.748C9.32163 87.748 12.4212 89.6078 12.4212 94.4293V95.2329H2.75516C2.9618 97.5059 4.54602 98.8376 6.54351 98.8376C8.12773 98.8376 9.36755 97.8962 9.9645 96.4268L12.513 97.437C11.6406 99.6871 9.43643 101.271 6.54351 101.271ZM2.89292 93.2813H9.66602C9.48235 90.9624 7.92109 90.0899 6.33687 90.0899C4.45418 90.0899 3.21435 91.3986 2.89292 93.2813Z" fill="white"/>
</svg>
