<svg width="40" height="35" viewBox="0 0 40 35" fill="none" xmlns="http://www.w3.org/2000/svg">
<path d="M0.38928 18.6492C-0.129761 17.7738 -0.129761 16.7089 0.38928 15.8335L8.89504 1.4879C9.43961 0.569454 10.4718 -2.33459e-05 11.5919 -2.33949e-05L28.4081 -2.41299e-05C29.5282 -2.41789e-05 30.5604 0.569453 31.105 1.4879L39.6107 15.8335C40.1298 16.7089 40.1298 17.7738 39.6107 18.6492L31.105 32.9948C30.5604 33.9132 29.5282 34.4827 28.4081 34.4827L11.5919 34.4827C10.4718 34.4827 9.43961 33.9132 8.89504 32.9948L0.38928 18.6492Z" fill="#EDC535"/>
<path d="M13.75 17.625L18.75 22.625L26.25 11.375" stroke="white" stroke-width="2.5" stroke-linecap="round" stroke-linejoin="round"/>
</svg>
