<svg width="48" height="42" viewBox="0 0 48 42" fill="none" xmlns="http://www.w3.org/2000/svg">
<path d="M0.466182 22.3333C-0.155395 21.285 -0.155395 20.0097 0.466181 18.9613L10.6522 1.78183C11.3044 0.681945 12.5404 -3.48804e-05 13.8818 -3.49391e-05L34.0201 -3.58193e-05C35.3614 -3.5878e-05 36.5975 0.681944 37.2496 1.78183L47.4357 18.9613C48.0573 20.0097 48.0573 21.285 47.4357 22.3333L37.2496 39.5128C36.5975 40.6127 35.3614 41.2947 34.0201 41.2947L13.8818 41.2947C12.5404 41.2947 11.3044 40.6127 10.6522 39.5128L0.466182 22.3333Z" fill="#EFDF18"/>
<path d="M19.0002 27.0002V25.0002M24.0002 27.0002V24.0002M29.0002 27.0002V22.0002" stroke="#6E6608" stroke-width="1.5" stroke-linecap="round" stroke-linejoin="round"/>
<path d="M31.5 11.5002C32.6046 11.5002 33.5 12.3957 33.5 13.5002V28.5002C33.5 29.6048 32.6046 30.5002 31.5 30.5002H16.5C15.3954 30.5002 14.5 29.6048 14.5 28.5002V13.5002C14.5 12.3957 15.3954 11.5002 16.5 11.5002H31.5Z" stroke="#6E6608" stroke-width="1.5" stroke-linejoin="round"/>
<path d="M27.0002 15.0002H30.0002V18.0002M18.0002 21.0002C25.0002 21.0002 29.5002 15.5002 29.5002 15.5002" stroke="#6E6608" stroke-width="1.5" stroke-linecap="round" stroke-linejoin="round"/>
</svg>
