<svg width="58" height="50" viewBox="0 0 58 50" fill="none" xmlns="http://www.w3.org/2000/svg">
<path d="M0.564457 27.0414C-0.188153 25.7721 -0.188154 24.2279 0.564456 22.9586L12.8978 2.1575C13.6874 0.825748 15.1841 3.15098e-06 16.8082 3.07999e-06L41.1918 2.01415e-06C42.8159 1.94315e-06 44.3126 0.825747 45.1022 2.1575L57.4355 22.9586C58.1882 24.2279 58.1882 25.7721 57.4355 27.0414L45.1022 47.8425C44.3126 49.1743 42.8159 50 41.1918 50L16.8082 50C15.1841 50 13.6874 49.1743 12.8978 47.8425L0.564457 27.0414Z" fill="#EFDF18" fill-opacity="1"/>
<path fill-rule="evenodd" clip-rule="evenodd" d="M22.0521 24C22.8332 23.2189 24.0995 23.2189 24.8806 24L30.5 29.6194C31.281 30.4005 31.281 31.6668 30.5 32.4478L29.1975 33.7504C27.1056 35.8422 23.8483 36.0583 21.5156 34.3985L19.7071 36.2071C19.3166 36.5976 18.6834 36.5976 18.2929 36.2071C17.9024 35.8166 17.9024 35.1834 18.2929 34.7929L20.1014 32.9843C18.4417 30.6517 18.6577 27.3944 20.7496 25.3025L22.0521 24Z" fill="#6E6608"/>
<path fill-rule="evenodd" clip-rule="evenodd" d="M39.7071 14.7929C40.0976 15.1834 40.0976 15.8166 39.7071 16.2071L37.8986 18.0156C39.5583 20.3483 39.3423 23.6056 37.2504 25.6975L35.9479 27C35.1668 27.781 33.9005 27.781 33.1194 27L33.0168 26.8974L32.2071 27.7071C31.8166 28.0976 31.1834 28.0976 30.7929 27.7071C30.4024 27.3166 30.4024 26.6834 30.7929 26.2929L31.6026 25.4832L29.0168 22.8974L28.2071 23.7071C27.8166 24.0976 27.1834 24.0976 26.7929 23.7071C26.4024 23.3166 26.4024 22.6834 26.7929 22.2929L27.6026 21.4832L27.5 21.3806C26.719 20.5995 26.719 19.3332 27.5 18.5521L28.8025 17.2496C30.8944 15.1577 34.1517 14.9417 36.4844 16.6014L38.2929 14.7929C38.6834 14.4024 39.3166 14.4024 39.7071 14.7929Z" fill="#6E6608"/>
</svg>
