<svg width="58" height="50" viewBox="0 0 58 50" fill="none" xmlns="http://www.w3.org/2000/svg">
<path d="M0.564457 27.0414C-0.188153 25.7721 -0.188154 24.2279 0.564456 22.9586L12.8978 2.1575C13.6874 0.825748 15.1841 3.15098e-06 16.8082 3.07999e-06L41.1918 2.01415e-06C42.8159 1.94315e-06 44.3126 0.825747 45.1022 2.1575L57.4355 22.9586C58.1882 24.2279 58.1882 25.7721 57.4355 27.0414L45.1022 47.8425C44.3126 49.1743 42.8159 50 41.1918 50L16.8082 50C15.1841 50 13.6874 49.1743 12.8978 47.8425L0.564457 27.0414Z" fill="#EFDF18"/>
<path fill-rule="evenodd" clip-rule="evenodd" d="M22.0521 23.4999C22.8332 22.7188 24.0995 22.7188 24.8806 23.4999L30.5 29.1193C31.281 29.9004 31.281 31.1667 30.5 31.9477L29.1975 33.2503C27.1056 35.3421 23.8483 35.5582 21.5156 33.8984L19.7071 35.707C19.3166 36.0975 18.6834 36.0975 18.2929 35.707C17.9024 35.3165 17.9024 34.6833 18.2929 34.2928L20.1014 32.4842C18.4417 30.1516 18.6577 26.8943 20.7496 24.8024L22.0521 23.4999Z" fill="white"/>
<path fill-rule="evenodd" clip-rule="evenodd" d="M39.7071 14.2929C40.0976 14.6834 40.0976 15.3166 39.7071 15.7071L37.8986 17.5156C39.5583 19.8483 39.3423 23.1056 37.2504 25.1975L35.9479 26.5C35.1668 27.281 33.9005 27.281 33.1194 26.5L33.0168 26.3974L32.2071 27.2071C31.8166 27.5976 31.1834 27.5976 30.7929 27.2071C30.4024 26.8166 30.4024 26.1834 30.7929 25.7929L31.6026 24.9832L29.0168 22.3974L28.2071 23.2071C27.8166 23.5976 27.1834 23.5976 26.7929 23.2071C26.4024 22.8166 26.4024 22.1834 26.7929 21.7929L27.6026 20.9832L27.5 20.8806C26.719 20.0995 26.719 18.8332 27.5 18.0521L28.8025 16.7496C30.8944 14.6577 34.1517 14.4417 36.4844 16.1014L38.2929 14.2929C38.6834 13.9024 39.3166 13.9024 39.7071 14.2929Z" fill="white"/>
</svg>
