<svg width="58" height="50" viewBox="0 0 58 50" fill="none" xmlns="http://www.w3.org/2000/svg">
<path d="M0.564457 27.0414C-0.188153 25.7721 -0.188154 24.2279 0.564456 22.9586L12.8978 2.1575C13.6874 0.825748 15.1841 3.15098e-06 16.8082 3.07999e-06L41.1918 2.01415e-06C42.8159 1.94315e-06 44.3126 0.825747 45.1022 2.1575L57.4355 22.9586C58.1882 24.2279 58.1882 25.7721 57.4355 27.0414L45.1022 47.8425C44.3126 49.1743 42.8159 50 41.1918 50L16.8082 50C15.1841 50 13.6874 49.1743 12.8978 47.8425L0.564457 27.0414Z" fill="#EFDF18" fill-opacity="1"/>
<path d="M28.75 15.5C28.75 15.0858 29.0858 14.75 29.5 14.75C35.1609 14.75 39.75 19.3391 39.75 25C39.75 25.4142 39.4142 25.75 39 25.75H29.5C29.0858 25.75 28.75 25.4142 28.75 25V15.5Z" fill="#6E6608"/>
<path d="M27.2631 16.75C22.2214 17.1341 18.25 21.3526 18.25 26.5C18.25 31.6475 22.2214 35.8659 27.2631 36.25V16.75Z" fill="#6E6608"/>
<path d="M28.7653 36.25C33.5591 35.8848 37.3853 32.053 37.75 27.2522H28.7653V36.25Z" fill="#6E6608"/>
</svg>
