<svg width="48" height="48" viewBox="0 0 48 48" fill="none" xmlns="http://www.w3.org/2000/svg">
<path d="M0.57735 25C0.220084 24.3812 0.220084 23.6188 0.577349 23L11.4226 4.21539C11.7799 3.59659 12.4402 3.21539 13.1547 3.21539L34.8453 3.21539C35.5598 3.21539 36.2201 3.59659 36.5773 4.21539L47.4226 23C47.7799 23.6188 47.7799 24.3812 47.4226 25L36.5774 43.7846C36.2201 44.4034 35.5598 44.7846 34.8453 44.7846L13.1547 44.7846C12.4402 44.7846 11.7799 44.4034 11.4226 43.7846L0.57735 25Z" fill="#E6DA00"/>
<path d="M14.25 23.9991L23.204 15.0441C23.644 14.6051 24.356 14.6051 24.795 15.0441L33.75 23.9991M16.5 21.7491V31.8741C16.5 32.4951 17.004 32.9991 17.625 32.9991H21.75V28.1241C21.75 27.5031 22.254 26.9991 22.875 26.9991H25.125C25.746 26.9991 26.25 27.5031 26.25 28.1241V32.9991H30.375C30.996 32.9991 31.5 32.4951 31.5 31.8741V21.7491M20.25 32.9991H28.5" stroke="#0C0C0C" stroke-width="1.5" stroke-linecap="round" stroke-linejoin="round"/>
</svg>
