<svg width="48" height="42" viewBox="0 0 48 42" fill="none" xmlns="http://www.w3.org/2000/svg">
<path d="M0.466182 22.3333C-0.155395 21.285 -0.155395 20.0097 0.466181 18.9613L10.6522 1.78183C11.3044 0.681945 12.5404 -3.48804e-05 13.8818 -3.49391e-05L34.0201 -3.58193e-05C35.3614 -3.5878e-05 36.5975 0.681944 37.2496 1.78183L47.4357 18.9613C48.0573 20.0097 48.0573 21.285 47.4357 22.3333L37.2496 39.5128C36.5975 40.6127 35.3614 41.2947 34.0201 41.2947L13.8818 41.2947C12.5404 41.2947 11.3044 40.6127 10.6522 39.5128L0.466182 22.3333Z" fill="#EDC535"/>
<path d="M29.5 17.6299C29.5 15.6253 27.0376 14.0002 24 14.0002C20.9624 14.0002 18.5 15.6253 18.5 17.6299C18.5 19.6344 20 20.7409 24 20.7409C28 20.7409 30 21.778 30 24.3706C30 26.9632 27.5 28.0002 24 28.0002C20.5 28.0002 18 26.5002 18 24.5002" stroke="white" stroke-width="1.5" stroke-linecap="round"/>
<path d="M24 12.0002V30.0002" stroke="white" stroke-width="1.5" stroke-linecap="round"/>
</svg>
