<svg width="58" height="50" viewBox="0 0 58 50" fill="none" xmlns="http://www.w3.org/2000/svg">
<path d="M0.564457 27.0414C-0.188153 25.7721 -0.188154 24.2279 0.564456 22.9586L12.8978 2.1575C13.6874 0.825748 15.1841 3.15098e-06 16.8082 3.07999e-06L41.1918 2.01415e-06C42.8159 1.94315e-06 44.3126 0.825747 45.1022 2.1575L57.4355 22.9586C58.1882 24.2279 58.1882 25.7721 57.4355 27.0414L45.1022 47.8425C44.3126 49.1743 42.8159 50 41.1918 50L16.8082 50C15.1841 50 13.6874 49.1743 12.8978 47.8425L0.564457 27.0414Z" fill="#EFDF18"/>
<path fill-rule="evenodd" clip-rule="evenodd" d="M22.9794 34.2175L30.6014 26.5955L27.4045 23.3987L19.7825 31.0206C19.0725 31.7306 19.0725 32.8818 19.7825 33.5918L20.4082 34.2175C21.1182 34.9275 22.2694 34.9275 22.9794 34.2175ZM30.5206 20.2825C31.2306 19.5725 32.3818 19.5725 33.0918 20.2825L33.7175 20.9082C34.4275 21.6182 34.4275 22.7694 33.7175 23.4794L31.662 25.5348L28.4651 22.338L30.5206 20.2825ZM35.7966 25.7397C35.9055 25.4454 36.1862 25.25 36.5 25.25C36.8138 25.25 37.0945 25.4454 37.2034 25.7397L37.3139 26.0385C37.3906 26.2456 37.4637 26.4229 37.5017 26.5041C37.5829 26.542 37.7544 26.6094 37.9616 26.6861L38.2603 26.7966C38.5546 26.9055 38.75 27.1862 38.75 27.5C38.75 27.8138 38.5546 28.0945 38.2603 28.2034L37.9616 28.3139C37.7544 28.3906 37.5829 28.458 37.5017 28.4959C37.4637 28.5771 37.3906 28.7544 37.3139 28.9616L37.2034 29.2603C37.0945 29.5546 36.8138 29.75 36.5 29.75C36.1862 29.75 35.9055 29.5546 35.7966 29.2603L35.6861 28.9616C35.6094 28.7544 35.5363 28.5771 35.4983 28.4959C35.4171 28.458 35.2456 28.3906 35.0384 28.3139L34.7397 28.2034C34.4454 28.0945 34.25 27.8138 34.25 27.5C34.25 27.1862 34.4454 26.9055 34.7397 26.7966L35.0384 26.6861C35.2456 26.6094 35.4171 26.542 35.4983 26.5041C35.5363 26.4229 35.6094 26.2456 35.6861 26.0385L35.7966 25.7397ZM35.7966 15.7397C35.9055 15.4454 36.1862 15.25 36.5 15.25C36.8138 15.25 37.0945 15.4454 37.2034 15.7397L37.3139 16.0385C37.3906 16.2456 37.4637 16.4229 37.5017 16.5041C37.5829 16.542 37.7544 16.6094 37.9616 16.6861L38.2603 16.7966C38.5546 16.9055 38.75 17.1862 38.75 17.5C38.75 17.8138 38.5546 18.0945 38.2603 18.2034L37.9616 18.3139C37.7544 18.3906 37.5829 18.458 37.5017 18.4959C37.4637 18.5771 37.3906 18.7544 37.3139 18.9616L37.2034 19.2603C37.0945 19.5546 36.8138 19.75 36.5 19.75C36.1862 19.75 35.9055 19.5546 35.7966 19.2603L35.6861 18.9616C35.6094 18.7544 35.5363 18.5771 35.4983 18.4959C35.4171 18.458 35.2456 18.3906 35.0384 18.3139L34.7397 18.2034C34.4454 18.0945 34.25 17.8138 34.25 17.5C34.25 17.1862 34.4454 16.9055 34.7397 16.7966L35.0384 16.6861C35.2456 16.6094 35.4171 16.542 35.4983 16.5041C35.5363 16.4229 35.6094 16.2456 35.6861 16.0385L35.7966 15.7397ZM26.5 15.25C26.1862 15.25 25.9055 15.4454 25.7966 15.7397L25.6861 16.0385C25.6094 16.2456 25.5363 16.4229 25.4983 16.5041C25.4171 16.542 25.2456 16.6094 25.0385 16.6861L24.7397 16.7966C24.4454 16.9055 24.25 17.1862 24.25 17.5C24.25 17.8138 24.4454 18.0945 24.7397 18.2034L25.0385 18.3139C25.2456 18.3906 25.4171 18.458 25.4983 18.4959C25.5363 18.5771 25.6094 18.7544 25.6861 18.9616L25.7966 19.2603C25.9055 19.5546 26.1862 19.75 26.5 19.75C26.8138 19.75 27.0945 19.5546 27.2034 19.2603L27.3139 18.9616C27.3906 18.7544 27.4637 18.5771 27.5017 18.4959C27.5829 18.458 27.7544 18.3906 27.9616 18.3139L28.2603 18.2034C28.5546 18.0945 28.75 17.8138 28.75 17.5C28.75 17.1862 28.5546 16.9055 28.2603 16.7966L27.9616 16.6861C27.7544 16.6094 27.5829 16.542 27.5017 16.5041C27.4637 16.4229 27.3906 16.2456 27.3139 16.0385L27.2034 15.7397C27.0945 15.4454 26.8138 15.25 26.5 15.25Z" fill="white"/>
</svg>
