<svg xmlns="http://www.w3.org/2000/svg" width="48" height="48" viewBox="0 0 48 48" fill="none">
<path d="M46.1953 22.375C46.7759 23.3806 46.7759 24.6194 46.1953 25.625L36.5049 42.4092C35.9243 43.4147 34.8515 44.0342 33.6904 44.0342L14.3096 44.0342C13.1485 44.0342 12.0757 43.4147 11.4951 42.4092L1.80469 25.625C1.22413 24.6194 1.22413 23.3806 1.80469 22.375L11.4951 5.59082C12.0757 4.58527 13.1485 3.96582 14.3096 3.96582L33.6904 3.96582C34.8515 3.96582 35.9243 4.58527 36.5049 5.59082L46.1953 22.375Z" fill="#FFF89D" stroke="#D4C60F" stroke-width="1.5"/>
<g transform="translate(24 24) scale(1.10977) translate(-20.00000 -17.24135)">
<path d="M13.75 17.625L18.75 22.625L26.25 11.375" stroke="#4F4C28" stroke-width="1.3516" stroke-linecap="round" stroke-linejoin="round"/>
</g>
</svg>
