<svg width="48" height="42" viewBox="0 0 48 42" fill="none" xmlns="http://www.w3.org/2000/svg">
<path d="M0.466182 22.3333C-0.155395 21.285 -0.155395 20.0097 0.466181 18.9613L10.6522 1.78183C11.3044 0.681945 12.5404 -3.48804e-05 13.8818 -3.49391e-05L34.0201 -3.58193e-05C35.3614 -3.5878e-05 36.5975 0.681944 37.2496 1.78183L47.4357 18.9613C48.0573 20.0097 48.0573 21.285 47.4357 22.3333L37.2496 39.5128C36.5975 40.6127 35.3614 41.2947 34.0201 41.2947L13.8818 41.2947C12.5404 41.2947 11.3044 40.6127 10.6522 39.5128L0.466182 22.3333Z" fill="#EFDF18"/>
<path d="M22 28V18C22 14.5 25 13 28 14.5" stroke="#6E6608" stroke-width="1.5" stroke-linecap="round" stroke-linejoin="round"/>
<path d="M18 22H26" stroke="#6E6608" stroke-width="1.5" stroke-linecap="round"/>
<path d="M18 28H30" stroke="#6E6608" stroke-width="1.5" stroke-linecap="round"/>
</svg>
