<svg width="48" height="42" viewBox="0 0 48 42" fill="none" xmlns="http://www.w3.org/2000/svg">
<path d="M0.466182 22.3333C-0.155395 21.285 -0.155395 20.0097 0.466181 18.9613L10.6522 1.78183C11.3044 0.681945 12.5404 -3.48804e-05 13.8818 -3.49391e-05L34.0201 -3.58193e-05C35.3614 -3.5878e-05 36.5975 0.681944 37.2496 1.78183L47.4357 18.9613C48.0573 20.0097 48.0573 21.285 47.4357 22.3333L37.2496 39.5128C36.5975 40.6127 35.3614 41.2947 34.0201 41.2947L13.8818 41.2947C12.5404 41.2947 11.3044 40.6127 10.6522 39.5128L0.466182 22.3333Z" fill="#EFDF18"/>
<path d="M28.999 21.0002C28.999 23.7616 26.7604 26.0002 23.999 26.0002C21.2376 26.0002 18.999 23.7616 18.999 21.0002C18.999 18.2388 21.2376 16.0002 23.999 16.0002C26.7604 16.0002 28.999 18.2388 28.999 21.0002Z" stroke="white" stroke-width="1.5" stroke-linecap="round" stroke-linejoin="round"/>
<path d="M24.1247 12.2502H23.9997M24.1242 29.7502H23.9992M32.75 21.1252V21.0002M15.25 21.1252V21.0002M30.2752 14.9012L30.1868 14.8128M17.9005 27.2752L17.8121 27.1868M30.0987 27.2758L30.187 27.1874M17.7243 14.9014L17.8127 14.8131M24.2497 12.2502C24.2497 12.3883 24.1378 12.5002 23.9997 12.5002C23.8616 12.5002 23.7497 12.3883 23.7497 12.2502C23.7497 12.1122 23.8616 12.0002 23.9997 12.0002C24.1378 12.0002 24.2497 12.1122 24.2497 12.2502ZM24.2492 29.7502C24.2492 29.8883 24.1373 30.0002 23.9992 30.0002C23.8611 30.0002 23.7492 29.8883 23.7492 29.7502C23.7492 29.6121 23.8611 29.5002 23.9992 29.5002C24.1373 29.5002 24.2492 29.6121 24.2492 29.7502ZM32.75 21.2502C32.6119 21.2502 32.5 21.1383 32.5 21.0002C32.5 20.8621 32.6119 20.7502 32.75 20.7502C32.8881 20.7502 33 20.8621 33 21.0002C33 21.1383 32.8881 21.2502 32.75 21.2502ZM15.25 21.2502C15.1119 21.2502 15 21.1383 15 21.0002C15 20.8621 15.1119 20.7502 15.25 20.7502C15.3881 20.7502 15.5 20.8621 15.5 21.0002C15.5 21.1383 15.3881 21.2502 15.25 21.2502ZM30.3636 14.9896C30.266 15.0872 30.1077 15.0872 30.01 14.9896C29.9124 14.892 29.9124 14.7337 30.01 14.6361C30.1077 14.5384 30.266 14.5384 30.3636 14.6361C30.4612 14.7337 30.4612 14.892 30.3636 14.9896ZM17.9889 27.3636C17.8913 27.4612 17.733 27.4612 17.6353 27.3636C17.5377 27.266 17.5377 27.1077 17.6353 27.0101C17.733 26.9124 17.8913 26.9124 17.9889 27.0101C18.0865 27.1077 18.0865 27.266 17.9889 27.3636ZM30.0103 27.3642C29.9126 27.2665 29.9126 27.1082 30.0103 27.0106C30.1079 26.913 30.2662 26.913 30.3638 27.0106C30.4614 27.1082 30.4614 27.2665 30.3638 27.3642C30.2662 27.4618 30.1079 27.4618 30.0103 27.3642ZM17.6359 14.9898C17.5383 14.8922 17.5383 14.7339 17.6359 14.6363C17.7335 14.5387 17.8918 14.5387 17.9894 14.6363C18.0871 14.7339 18.0871 14.8922 17.9894 14.9898C17.8918 15.0875 17.7335 15.0875 17.6359 14.9898Z" stroke="white" stroke-width="1.5" stroke-linecap="round" stroke-linejoin="round"/>
</svg>
