<svg width="58" height="50" viewBox="0 0 58 50" fill="none" xmlns="http://www.w3.org/2000/svg">
<path d="M0.564457 27.0414C-0.188153 25.7721 -0.188154 24.2279 0.564456 22.9586L12.8978 2.1575C13.6874 0.825748 15.1841 3.15098e-06 16.8082 3.07999e-06L41.1918 2.01415e-06C42.8159 1.94315e-06 44.3126 0.825747 45.1022 2.1575L57.4355 22.9586C58.1882 24.2279 58.1882 25.7721 57.4355 27.0414L45.1022 47.8425C44.3126 49.1743 42.8159 50 41.1918 50L16.8082 50C15.1841 50 13.6874 49.1743 12.8978 47.8425L0.564457 27.0414Z" fill="#EFDF18" fill-opacity="1"/>
<path d="M33.5 14.75C35.0188 14.75 36.25 15.9812 36.25 17.5V33.5C36.25 35.0188 35.0188 36.25 33.5 36.25H24.5C22.9812 36.25 21.75 35.0188 21.75 33.5V17.5C21.75 15.9812 22.9812 14.75 24.5 14.75H33.5ZM29 31.5C28.4477 31.5 28 31.9477 28 32.5C28 33.0523 28.4477 33.5 29 33.5C29.5523 33.5 30 33.0523 30 32.5C30 31.9477 29.5523 31.5 29 31.5Z" fill="#6E6608"/>
</svg>
