<svg xmlns="http://www.w3.org/2000/svg" width="48" height="48" viewBox="0 0 48 48" fill="none">
<path d="M46.1953 22.375C46.7759 23.3806 46.7759 24.6194 46.1953 25.625L36.5049 42.4092C35.9243 43.4147 34.8515 44.0342 33.6904 44.0342L14.3096 44.0342C13.1485 44.0342 12.0757 43.4147 11.4951 42.4092L1.80469 25.625C1.22413 24.6194 1.22413 23.3806 1.80469 22.375L11.4951 5.59082C12.0757 4.58527 13.1485 3.96582 14.3096 3.96582L33.6904 3.96582C34.8515 3.96582 35.9243 4.58527 36.5049 5.59082L46.1953 22.375Z" fill="#FFF89D" stroke="#D4C60F" stroke-width="1.5"/>
<path d="M27 33V25C27 24.7348 26.8946 24.4804 26.7071 24.2929C26.5196 24.1054 26.2652 24 26 24H22C21.7348 24 21.4804 24.1054 21.2929 24.2929C21.1054 24.4804 21 24.7348 21 25V33" stroke="#544E08" stroke-width="1.5" stroke-linecap="round" stroke-linejoin="round"/>
<path d="M15 22.0005C14.9999 21.7095 15.0633 21.4221 15.1858 21.1582C15.3082 20.8943 15.4868 20.6603 15.709 20.4725L22.709 14.4725C23.07 14.1674 23.5274 14 24 14C24.4726 14 24.93 14.1674 25.291 14.4725L32.291 20.4725C32.5132 20.6603 32.6918 20.8943 32.8142 21.1582C32.9367 21.4221 33.0001 21.7095 33 22.0005V31.0005C33 31.5309 32.7893 32.0396 32.4142 32.4147C32.0391 32.7898 31.5304 33.0005 31 33.0005H17C16.4696 33.0005 15.9609 32.7898 15.5858 32.4147C15.2107 32.0396 15 31.5309 15 31.0005V22.0005Z" stroke="#544E08" stroke-width="1.5" stroke-linecap="round" stroke-linejoin="round"/>
</svg>