<svg width="492" height="360" viewBox="0 0 492 360" fill="none" xmlns="http://www.w3.org/2000/svg">
<g clip-path="url(#clip0_226_1845)">
<path d="M446.399 360H55.0457C55.0457 360 -14.2494 307.863 6.69649 238.853C17.9371 201.822 49.8382 196.29 59.4124 168.678C72.9366 129.695 49.7996 99.1904 85.1647 59.3661C132.696 5.87104 254.337 11.7498 321.441 30.8441C457.138 69.4495 512.539 212.059 446.399 360Z" fill="#FAF6BC"/>
<path d="M484.851 110.454C481.503 118.092 474.112 122.713 466.297 122.914L424.999 217.097L408.844 210.015L450.149 115.831C444.996 109.945 443.391 101.389 446.739 93.7514C449.794 86.7848 456.213 82.3334 463.249 81.4539L458.049 93.3194C456.861 96.0273 458.103 99.2058 460.804 100.386L470.447 104.614C473.155 105.802 476.334 104.56 477.522 101.852L482.722 89.9865C486.849 95.7573 487.914 103.488 484.859 110.454H484.851Z" fill="#D3BDA5"/>
<path d="M462.059 120.734L454.605 117.465L412.27 213.998L419.724 217.267L462.059 120.734Z" fill="#DDCAB8"/>
<path d="M460.04 139.099L458.628 138.482L465.787 122.158L466.273 122.142C474.019 121.949 481.032 117.243 484.141 110.145C486.965 103.711 486.178 96.1507 482.089 90.4339L483.346 89.539C487.752 95.7032 488.6 103.835 485.561 110.77C482.274 118.262 474.953 123.276 466.813 123.67L460.047 139.099H460.04Z" fill="#5B322C" fill-opacity="0.2"/>
<path d="M454.422 148.003L423.95 217.551L425.363 218.17L455.835 148.622L454.422 148.003Z" fill="#5B322C" fill-opacity="0.2"/>
<path d="M485.36 162.445L473.957 172.289L428.239 267.182L418.086 262.569L463.928 167.436L464.769 152.485L481.626 131.678L491.154 136.268L485.36 162.445Z" fill="#D3BDA5"/>
<path d="M441.103 238.701L427.53 266.827L428.92 267.498L442.492 239.371L441.103 238.701Z" fill="#5B322C" fill-opacity="0.2"/>
<path d="M446.329 231.501L444.94 230.83L473.331 171.811L484.657 162.028L489.193 141.568L490.697 141.9L486.053 162.861L474.581 172.767L446.329 231.501Z" fill="#5B322C" fill-opacity="0.2"/>
<path d="M475.746 358.457H1.2959V360H475.746V358.457Z" fill="#5A322C" fill-opacity="0.2"/>
<path d="M422.792 359.329L202.84 359.051C196.506 359.043 191.376 353.897 191.376 347.564L191.746 36.7151C191.746 30.3735 196.9 25.2431 203.234 25.2508L423.185 25.5285C429.519 25.5363 434.65 30.6821 434.65 37.016L434.279 347.864C434.279 354.206 429.126 359.336 422.792 359.329Z" fill="#A79C11"/>
<path d="M415.008 359.329L195.056 359.051C188.722 359.043 183.592 353.897 183.592 347.564L183.962 36.7151C183.962 30.3735 189.116 25.2431 195.45 25.2508L415.401 25.5285C421.735 25.5363 426.865 30.6821 426.865 37.016L426.495 347.864C426.495 354.206 421.342 359.336 415.008 359.329Z" fill="#EFDF18"/>
<path d="M417.622 359.622C416.226 359.622 414.922 359.622 414.143 359.607L414.166 358.064C416.481 358.102 423.462 358.064 423.532 358.064H423.547C426.363 358.064 429.009 356.937 431 354.9C432.998 352.848 434.101 350.117 434.109 347.216L434.479 37.6718C434.479 31.685 429.758 26.8015 423.933 26.7938L202.678 26.5161V24.9731L423.933 25.2508C430.606 25.2585 436.03 30.8287 436.022 37.6718L435.652 347.216C435.652 350.526 434.387 353.635 432.103 355.981C429.82 358.318 426.78 359.614 423.547 359.614H423.532C423.486 359.614 420.384 359.63 417.622 359.63V359.622Z" fill="#453028" fill-opacity="0.2"/>
<path d="M415.656 359.607L194.401 359.329C187.727 359.321 182.304 353.751 182.312 346.908L182.682 37.3632C182.682 34.0535 183.947 30.9444 186.231 28.5991C188.514 26.2615 191.554 24.9654 194.787 24.9654H194.802L416.057 25.2431C422.731 25.2508 428.154 30.821 428.147 37.6641L428.085 91.7224H426.542L426.604 37.6641C426.604 31.6773 421.882 26.7938 416.057 26.7861L194.802 26.5084C191.978 26.4852 189.332 27.627 187.342 29.6715C185.343 31.7236 184.233 34.4547 184.233 37.3555L183.862 346.9C183.862 352.887 188.584 357.77 194.408 357.778L415.664 358.056V359.599L415.656 359.607Z" fill="#453028" fill-opacity="0.2"/>
<path d="M427.984 110.639H426.441V218.586H427.984V110.639Z" fill="#5B322C" fill-opacity="0.2"/>
<g opacity="0.36">
<path d="M414.217 53.1059L208.554 52.8547L208.198 343.791L413.862 344.042L414.217 53.1059Z" fill="#45272A" fill-opacity="0.2"/>
</g>
<path d="M408.238 46.9345L202.574 46.6832L202.219 337.619L407.882 337.871L408.238 46.9345Z" fill="white"/>
<path d="M277.999 120.622H240.628V157.993H277.999V120.622Z" fill="#F7EFE2"/>
<path d="M277.999 178.677H240.628V216.048H277.999V178.677Z" fill="#F7EFE2"/>
<path d="M277.999 236.739H240.628V274.11H277.999V236.739Z" fill="#F7EFE2"/>
<path d="M278.655 158.641H267.368V157.338H277.351V120.622H278.655V158.641Z" fill="#5B322C" fill-opacity="0.2"/>
<path d="M278.655 216.704H257.855V215.392H277.351V178.677H278.655V216.704Z" fill="#5B322C" fill-opacity="0.2"/>
<path d="M278.655 274.758H240.628V273.454H277.351V236.739H278.655V274.758Z" fill="#5B322C" fill-opacity="0.2"/>
<path d="M329.057 132.117H286.008V133.421H329.057V132.117Z" fill="#5B322C" fill-opacity="0.2"/>
<path d="M350.412 145.187H286.008V146.49H350.412V145.187Z" fill="#5B322C" fill-opacity="0.2"/>
<path d="M338.893 190.18H286.008V191.484H338.893V190.18Z" fill="#5B322C" fill-opacity="0.2"/>
<path d="M379.073 203.241H286.008V204.545H379.073V203.241Z" fill="#5B322C" fill-opacity="0.2"/>
<path d="M338.893 248.234H286.008V249.538H338.893V248.234Z" fill="#5B322C" fill-opacity="0.2"/>
<path d="M379.073 261.303H286.008V262.607H379.073V261.303Z" fill="#5B322C" fill-opacity="0.2"/>
<path d="M324.382 19.835V19.6421C324.397 7.96177 313.643 -1.25752 301.322 1.14952C292.419 2.89309 286.132 10.8009 286.124 19.7424V19.7887L261.027 19.7578C257.895 19.7578 255.349 22.2575 255.341 25.3434L255.311 50.1777C255.311 53.2636 257.849 55.771 260.981 55.7787L349.425 55.8867C352.557 55.8867 355.103 53.3871 355.11 50.3011L355.141 25.4669C355.141 22.3809 352.603 19.8736 349.471 19.8659L324.374 19.835H324.382ZM306.522 21.8794C302.51 22.7589 299.008 19.3258 299.895 15.3758C300.342 13.3853 301.97 11.7729 303.992 11.3255C308.003 10.446 311.514 13.8945 310.619 17.8445C310.171 19.835 308.536 21.432 306.522 21.8794Z" fill="black"/>
<path d="M276.295 56.5656L260.981 56.5502C259.261 56.5502 257.64 55.8867 256.429 54.6832C255.21 53.4796 254.539 51.8749 254.539 50.1777L254.57 25.3434H256.113L256.082 50.1777C256.082 51.4661 256.591 52.6696 257.509 53.5877C258.435 54.5057 259.669 55.0072 260.981 55.0072L276.295 55.0226V56.5656ZM305.264 22.7821C303.583 22.7821 301.97 22.134 300.774 20.9305C299.285 19.4338 298.668 17.2891 299.139 15.1984C299.656 12.8993 301.492 11.0786 303.822 10.5617C305.99 10.0834 308.196 10.7237 309.731 12.259C311.228 13.7634 311.845 15.9158 311.367 18.0066C310.85 20.2979 309.014 22.1109 306.684 22.6201C306.213 22.7204 305.735 22.7744 305.264 22.7744V22.7821ZM305.241 11.9581C304.879 11.9581 304.516 11.9967 304.154 12.0738C302.433 12.4518 301.021 13.8482 300.643 15.5378C300.288 17.1348 300.736 18.7009 301.87 19.8427C303.027 21.0077 304.701 21.486 306.36 21.1234C308.08 20.7454 309.492 19.3644 309.87 17.6748C310.233 16.0779 309.785 14.504 308.644 13.3545C307.741 12.4441 306.522 11.9581 305.249 11.9581H305.241ZM349.471 20.6374L323.603 20.6065V19.6421C323.603 14.2648 321.211 9.19617 317.022 5.74761C312.74 2.21419 307.062 0.810079 301.461 1.91331C293.029 3.5643 286.895 11.0632 286.888 19.7501V20.5216L286.116 20.5679L261.02 20.5371V18.9941L285.36 19.0249C285.723 9.89822 292.257 2.14475 301.168 0.408904C307.224 -0.771474 313.365 0.740645 318.002 4.56723C322.399 8.19323 324.976 13.4548 325.138 19.0712L349.471 19.1021V20.6451V20.6374Z" fill="#453028" fill-opacity="0.2"/>
<path d="M327.158 55.1075H287.959V56.6505H327.158V55.1075Z" fill="#453028" fill-opacity="0.2"/>
<g opacity="0.32">
<path d="M222.228 215.739C222.197 215.847 222.174 215.955 222.143 216.063C210.772 262.507 185.613 315.107 141.654 348.266C136.894 351.861 131.872 355.224 126.587 358.334H113.024C3.98175 294.292 8.84213 119.164 8.84213 119.164C27.9674 117.235 49.3376 109.089 71.6336 98.3649C87.7423 90.6191 105.116 86.8311 122.467 87.024C138.931 87.1937 155.363 90.9431 170.662 98.28C193.12 109.05 214.66 117.228 233.839 119.164C233.839 119.164 234.981 163.509 222.228 215.739Z" fill="#D1B397"/>
</g>
<path d="M216.656 210.902C216.633 211.018 216.602 211.118 216.572 211.226C205.053 257.662 182.371 310.27 137.849 343.436C130.604 348.836 122.766 353.72 114.311 357.986C113.292 357.469 112.282 356.953 111.279 356.413C-4.51411 294.933 0.562285 114.335 0.562285 114.335C19.9344 112.406 41.5669 104.259 64.1484 93.5353C80.4654 85.7895 98.0554 82.0015 115.622 82.1944C132.294 82.3641 148.935 86.1135 164.427 93.4504C187.17 104.22 208.988 112.398 228.406 114.335C228.406 114.335 229.563 158.68 216.649 210.91L216.656 210.902Z" fill="#EFDF18"/>
<path d="M216.657 210.902C216.634 211.018 216.603 211.118 216.572 211.226C204.776 257.523 181.948 309.637 137.849 343.436C130.605 348.837 122.767 353.72 114.311 357.986C113.293 357.469 112.282 356.953 111.279 356.413C124.148 330.113 201.829 161.241 115.623 82.1945C132.295 82.3642 148.936 86.1136 164.427 93.4505C187.171 104.22 208.988 112.398 228.407 114.335C228.407 114.335 229.564 158.68 216.649 210.91L216.657 210.902Z" fill="#A79C11"/>
<path d="M114.343 334.448L113.563 334.055C91.167 322.768 72.2964 305.186 57.4915 281.794C45.68 263.14 36.4144 240.766 29.9416 215.299C18.9402 172.011 19.866 134.193 19.8737 133.815L19.92 132.295L21.4321 132.141C35.1723 130.767 51.4662 125.429 72.7052 115.338C99.1596 102.77 129.502 102.747 155.949 115.268C177.35 125.398 193.744 130.76 207.546 132.141L209.058 132.295L209.097 133.815C209.105 134.193 209.953 172.004 198.89 215.292C192.379 240.759 183.074 263.132 171.24 281.786C156.396 305.178 137.518 322.76 115.122 334.047L114.343 334.441V334.448ZM23.3068 135.412C23.2605 142.81 23.6463 176.532 33.313 214.528C43.2729 253.681 65.4147 305.494 114.35 330.575C163.286 305.494 185.505 253.681 195.526 214.528C205.255 176.54 205.695 142.818 205.664 135.412C191.785 133.761 175.46 128.33 154.468 118.393C128.962 106.319 99.6997 106.342 74.1788 118.462C53.3409 128.36 37.1165 133.769 23.2991 135.412H23.3068Z" fill="white"/>
<path d="M114.003 358.604C112.877 358.04 111.881 357.516 110.956 357.022C69.164 334.834 38.3507 294.902 19.3567 238.336C4.15833 193.057 0.70977 149.137 0 126.995L1.38097 126.949C2.67707 167.598 14.4577 304.221 111.604 355.795C112.522 356.289 113.509 356.806 114.62 357.361L114.003 358.596V358.604Z" fill="#5B322C" fill-opacity="0.2"/>
<path d="M138.258 343.992L137.433 342.888C174.68 315.146 201.08 270.793 215.893 211.064C215.932 210.933 215.955 210.848 215.978 210.748C224.557 176.069 226.879 144.631 227.496 128.985L228.877 129.039C228.26 144.747 225.93 176.285 217.32 211.072C217.289 211.195 217.259 211.311 217.22 211.434C210.639 237.974 201.536 261.944 190.179 282.643C176.223 308.079 158.757 328.716 138.25 343.992H138.258Z" fill="#5B322C" fill-opacity="0.2"/>
<path d="M218.926 113.64C203.628 110.74 186.215 104.521 164.135 94.0677C148.829 86.8157 132.504 83.0508 115.616 82.8734C98.0803 82.6882 80.3747 86.5842 64.4434 94.1525C42.888 104.39 25.8535 110.531 10.8403 113.486L10.5703 112.128C25.4678 109.197 42.3942 103.086 63.8416 92.9027C79.9658 85.2418 97.8797 81.2995 115.624 81.4924C132.712 81.6699 149.23 85.481 164.722 92.8179C186.694 103.218 203.998 109.405 219.181 112.283L218.926 113.64Z" fill="#5B322C" fill-opacity="0.2"/>
<path d="M115.144 255.648L67.8057 195.85L82.7957 183.977L114.951 224.596L163.972 161.056L179.108 172.736L115.144 255.648Z" fill="white"/>
<path d="M354.045 321.256C364.846 321.256 373.602 312.5 373.602 301.699C373.602 290.897 364.846 282.141 354.045 282.141C343.243 282.141 334.487 290.897 334.487 301.699C334.487 312.5 343.243 321.256 354.045 321.256Z" fill="#F7EFE2"/>
<path d="M352.856 312.461L342.078 298.852L345.488 296.144L352.81 305.394L363.973 290.929L367.414 293.59L352.856 312.461Z" fill="#008000"/>
<path d="M354.044 327.867C339.609 327.867 327.875 316.125 327.875 301.699C327.875 287.272 339.617 275.53 354.044 275.53C357.384 275.53 360.632 276.147 363.711 277.374L363.14 278.808C360.247 277.659 357.184 277.073 354.044 277.073C340.466 277.073 329.418 288.12 329.418 301.699C329.418 315.277 340.466 326.325 354.044 326.325C366.882 326.325 377.428 316.696 378.57 303.928L380.105 304.067C378.886 317.638 367.684 327.875 354.036 327.875L354.044 327.867Z" fill="#5B322C" fill-opacity="0.2"/>
<path d="M377.065 292.927C376.039 290.227 374.542 287.742 372.637 285.544L373.802 284.533C375.831 286.863 377.412 289.501 378.508 292.379L377.065 292.927Z" fill="#5B322C" fill-opacity="0.2"/>
</g>
<defs>
<clipPath id="clip0_226_1845">
<rect width="491.153" height="360" fill="white"/>
</clipPath>
</defs>
</svg>
