<svg width="599" height="444" viewBox="0 0 599 444" fill="none" xmlns="http://www.w3.org/2000/svg">
<path d="M537.872 165.52C520.955 189.17 492.538 203.218 462.835 203.218C414.582 203.218 371.682 164.32 371.682 113.424C371.682 71.4367 393.422 41.327 423.359 27.4628C431.462 23.7107 440.167 21.1467 449.202 19.8627C453.676 19.2256 458.232 18.9012 462.835 18.9012C474.805 18.9012 486.29 21.444 496.828 26.0442C528.771 39.983 552.007 72.8257 553.625 111.06C554.52 132.236 548.439 150.75 537.872 165.52Z" fill="#657285"/>
<path d="M412.59 119.147C412.59 119.147 415.993 127.468 412.59 132.036C409.187 136.604 408.878 145.251 415.684 150.961C422.489 156.671 425.428 157.161 423.881 162.871C422.335 168.581 420.71 175.556 423.262 178.492C425.815 181.429 426.859 188.403 432.543 188.893C438.226 189.382 432.078 184.121 435.791 179.226C439.503 174.332 453.887 173.353 452.495 163.686C451.103 154.019 464.327 153.163 466.183 146.8C468.039 140.438 460.151 136.522 453.538 137.012C446.926 137.501 450.986 126.611 443.794 125.02C436.602 123.429 433.238 117.311 429.062 118.045C424.886 118.78 420.246 112.539 415.49 114.497C410.734 116.455 412.59 119.147 412.59 119.147Z" fill="#B8C1C9"/>
<path d="M400.526 52.5828C400.526 52.5828 395.576 56.6614 394.184 63.1873C392.792 69.7132 385.832 73.7918 384.749 82.7651C383.667 91.7383 388.577 91.9831 386.838 96.8773C385.098 101.772 387.26 104.219 392.559 106.666C397.858 109.113 398.322 112.876 401.454 114.115C404.586 115.354 403.774 118.658 404.818 119.025C405.862 119.392 405.398 116.536 406.481 112.784C407.564 109.032 408.492 107.482 404.548 107.645C400.603 107.808 401.841 104.464 403.388 102.343C404.935 100.222 401.223 99.8955 399.985 100.222C398.748 100.548 399.057 106.585 396.505 103.73C393.953 100.875 392.716 97.6116 394.804 93.8591C396.892 90.1066 401.377 93.2065 404.548 88.7201C407.719 84.2333 412.204 86.028 412.436 89.6175C412.668 93.2065 419.01 93.2883 420.092 88.5571C421.175 83.8259 420.711 75.587 427.207 74.2409C433.703 72.8949 446.473 66.0429 438.348 63.2286C430.223 60.4143 433.471 54.541 429.295 54.9079C425.119 55.2749 426.743 61.8825 422.103 59.9248C417.463 57.967 414.099 52.7054 420.595 51.2372C427.091 49.7689 429.759 42.1826 424.771 42.6717C419.783 43.1613 418.971 38.0219 415.955 38.6336C412.939 39.2453 409.807 46.9542 406.675 48.912C403.542 50.8698 400.526 52.5828 400.526 52.5828Z" fill="#B8C1C9"/>
<path d="M442.364 37.4918C442.364 37.4918 448.783 35.6158 451.567 37.4918C454.351 39.3679 458.682 44.6703 455.047 46.6281C451.413 48.5859 447.62 49.2385 449.4 52.9093C451.181 56.58 444.298 57.8035 442.364 52.9093C440.431 48.015 440.431 46.2203 438.42 43.936C436.409 41.6517 437.26 36.7575 442.364 37.4918Z" fill="#B8C1C9"/>
<path d="M537.873 165.52C511.313 158.173 533.339 146.643 524.031 133.378C518.725 125.818 528.166 116.723 522.131 115.472C518.629 114.747 510.567 124.183 505.906 115.472C501.246 106.763 492.961 106.705 490.544 111.985C488.126 117.264 477.943 120.907 471.26 117.082C464.576 113.259 468.449 108.162 462.667 104.155C456.883 100.149 456.452 93.7778 462.667 88.8607C468.88 83.9439 466.033 76.843 475.354 79.0289C484.675 81.2131 482.863 58.5458 482.863 58.5458C482.721 54.5827 486.358 53.9014 484.286 50.2147C482.215 46.5281 476.39 49.5313 473.282 41.3387C470.176 33.1456 478.202 28.2289 484.675 29.0291C486.562 29.2613 491.141 27.8677 496.829 26.0446C528.772 39.9834 552.009 72.8261 553.626 111.06C554.521 132.236 548.44 150.75 537.873 165.52Z" fill="#B8C1C9"/>
<path d="M414.479 100.425C414.479 100.425 419.838 97.2759 422.687 99.7808C425.536 102.285 426.758 103.931 430.964 103.001C435.17 102.071 438.019 103.859 435.306 105.147C432.592 106.436 426.215 108.725 423.298 106.006C420.381 103.287 411.976 101.523 414.479 100.425Z" fill="#B8C1C9"/>
<path d="M436.052 110.586C436.052 110.586 439.851 111.301 440.733 109.656C441.615 108.01 439.851 109.584 438.392 108.725C436.934 107.867 434.153 108.725 436.052 110.586Z" fill="#B8C1C9"/>
<path d="M299.168 443.023C464.393 443.023 598.335 428.803 598.335 411.261C598.335 393.719 464.393 379.498 299.168 379.498C133.942 379.498 0 393.719 0 411.261C0 428.803 133.942 443.023 299.168 443.023Z" fill="#EAEAEA"/>
<path d="M112.004 24.0568C112.004 24.0568 117.535 12.8327 131.528 14.2392C145.522 15.6457 143.857 26.8965 150.52 25.8415C157.184 24.7865 166.514 25.8415 168.513 32.8733C170.512 39.905 179.508 36.0374 179.841 42.0146C180.174 47.9917 169.512 52.2108 157.184 46.9367C144.856 41.663 138.858 51.0337 121.533 49.3369C104.207 47.6402 102.06 45.5306 91.8054 46.5852C81.55 47.6402 81.7935 40.2307 86.4587 35.3081C91.1234 30.3859 110.005 30.8546 112.004 24.0568Z" fill="#EAEAEA"/>
<path d="M218.723 29.7112C218.723 29.7112 221.031 25.0276 226.871 25.6143C232.71 26.201 232.015 30.8963 234.796 30.456C237.577 30.0156 241.47 30.456 242.304 33.3904C243.139 36.3247 246.893 34.711 247.032 37.205C247.171 39.699 242.721 41.46 237.577 39.2591C232.432 37.0582 229.93 40.9688 222.699 40.2607C215.469 39.5527 214.573 38.6724 210.294 39.1123C206.014 39.5527 206.116 36.4607 208.063 34.4061C210.009 32.352 217.889 32.5476 218.723 29.7112Z" fill="#EAEAEA"/>
<g opacity="0.6">
<path d="M182.161 61.009C182.161 61.009 185.04 55.1673 192.323 55.8992C199.607 56.631 198.739 62.4868 202.208 61.9376C205.676 61.3888 210.532 61.9376 211.572 65.5975C212.613 69.2575 217.295 67.2447 217.468 70.3554C217.641 73.4662 212.092 75.662 205.676 72.9174C199.26 70.1728 196.138 75.0499 187.121 74.1667C178.103 73.2835 176.986 72.1856 171.649 72.7344C166.311 73.2831 166.438 69.4272 168.866 66.8648C171.294 64.3028 181.121 64.5467 182.161 61.009Z" fill="#EAEAEA"/>
</g>
<path d="M358.549 364.651V311.361H256.642V364.651C256.642 378.499 247.905 389.725 237.128 389.725H233.021V396.605H382.169V389.725H378.062C367.286 389.725 358.549 378.499 358.549 364.651Z" fill="#EFDF18"/>
<path d="M381.338 396.605H233.855C232.054 396.605 230.594 395.065 230.594 393.165C230.594 391.265 232.054 389.725 233.855 389.725H381.338C383.139 389.725 384.599 391.265 384.599 393.165C384.599 395.065 383.139 396.605 381.338 396.605Z" fill="#877D00"/>
<path d="M481.184 344.077L136.569 339.906C129.192 339.817 123.256 333.483 123.256 325.701V103.837C123.256 96.0762 129.161 89.7517 136.518 89.6329L476.687 84.1382C484.098 84.0185 490.208 90.2384 490.358 98.0549L494.803 329.585C494.958 337.605 488.789 344.17 481.184 344.077Z" fill="#877D00"/>
<path d="M469.51 300.075H143.832C139.843 300.075 136.609 296.664 136.609 292.456V114.105C136.609 109.897 139.843 106.486 143.832 106.486H469.51C473.499 106.486 476.733 109.897 476.733 114.105V292.456C476.733 296.664 473.499 300.075 469.51 300.075Z" fill="#EAEAEA"/>
<path d="M368.246 33.0793C367.872 33.0793 367.511 32.9508 367.209 32.7077C366.845 32.4146 366.611 31.9892 366.55 31.5105L366.231 28.9965C366.157 28.4123 365.77 27.924 365.246 27.753C365.104 27.7063 364.962 27.6571 364.823 27.6046C364.288 27.4048 363.692 27.5629 363.304 28.0074L361.567 29.9952C360.926 30.7287 359.839 30.7745 359.144 30.0994L357.113 28.125C356.776 27.7976 356.58 27.3515 356.561 26.8686C356.542 26.3857 356.703 25.9241 357.014 25.5688L358.506 23.8633C358.922 23.3875 359.003 22.6845 358.708 22.1145L358.696 22.0915C358.416 21.5486 357.836 21.2396 357.252 21.323L355.205 21.6145C354.752 21.6787 354.301 21.5532 353.937 21.2605C353.572 20.9673 353.338 20.5424 353.277 20.0637L352.908 17.1756C352.847 16.6969 352.966 16.2215 353.244 15.8371C353.522 15.453 353.926 15.2062 354.379 15.1419L356.428 14.8521C357.011 14.7696 357.494 14.31 357.628 13.7087C357.775 13.0541 357.521 12.3986 357.001 12.0558L355.134 10.8248C354.746 10.5688 354.476 10.1685 354.373 9.6977C354.27 9.22691 354.347 8.74237 354.59 8.33247L356.054 5.86179C356.297 5.4523 356.677 5.16666 357.123 5.05825C357.569 4.94899 358.029 5.03115 358.417 5.28718L360.589 6.7208C361.075 7.04105 361.689 7.02771 362.155 6.68661C362.277 6.59696 362.401 6.5098 362.526 6.42515C362.989 6.11407 363.24 5.53529 363.165 4.95108L362.845 2.43787C362.719 1.45002 363.379 0.53765 364.316 0.40463L367.051 0.0164107C367.504 -0.047806 367.955 0.0776983 368.32 0.370843C368.684 0.663988 368.918 1.08932 368.979 1.56803L369.217 3.43657C369.301 4.09751 369.783 4.61582 370.416 4.72632C370.931 4.81639 371.446 4.94608 371.945 5.11163C372.477 5.2876 373.061 5.12622 373.435 4.69964L374.976 2.93869C375.616 2.20603 376.703 2.16016 377.398 2.83611L379.428 4.81139C380.123 5.48775 380.166 6.63406 379.525 7.36714L378.437 8.61185C378.006 9.10432 377.933 9.82321 378.257 10.4003C378.324 10.5213 378.39 10.6434 378.454 10.7673C378.73 11.3031 379.307 11.6063 379.891 11.5254L381.337 11.3215C382.272 11.1889 383.137 11.8852 383.264 12.8727L383.632 15.7591C383.693 16.2378 383.574 16.7132 383.296 17.0972C383.018 17.4813 382.615 17.7285 382.161 17.7923L380.716 17.9967C380.132 18.0796 379.65 18.535 379.519 19.1296C379.488 19.2677 379.455 19.4049 379.42 19.5412C379.253 20.1871 379.503 20.8593 380.042 21.2142L381.404 22.112C381.792 22.368 382.063 22.7683 382.166 23.2391C382.268 23.7099 382.192 24.1948 381.949 24.6043L380.485 27.0733C379.984 27.9186 378.924 28.1763 378.123 27.6484L376.197 26.3794C375.731 26.0721 375.125 26.0788 374.656 26.3978C374.216 26.6972 373.752 26.9657 373.279 27.1959C372.697 27.4786 372.362 28.1125 372.447 28.773L372.685 30.6428C372.746 31.1215 372.627 31.5964 372.349 31.9805C372.071 32.3645 371.668 32.6114 371.214 32.6756L368.477 33.0634C368.4 33.0738 368.322 33.0793 368.246 33.0793ZM364.353 27.2193C364.542 27.2193 364.733 27.253 364.917 27.3219C365.054 27.3731 365.191 27.4211 365.33 27.4665C365.959 27.6721 366.424 28.2572 366.512 28.9569L366.832 31.4705C366.882 31.87 367.077 32.2244 367.381 32.4692C367.685 32.7136 368.061 32.8182 368.439 32.7653L371.176 32.3775C371.554 32.3237 371.891 32.1181 372.122 31.7974C372.354 31.4772 372.454 31.081 372.403 30.6816L372.165 28.8118C372.064 28.0203 372.464 27.2606 373.16 26.9224C373.622 26.698 374.073 26.4366 374.502 26.1447C375.063 25.7627 375.788 25.7548 376.349 26.1238L378.274 27.3927C378.943 27.8331 379.826 27.6179 380.244 26.9132L381.708 24.4442C381.91 24.1027 381.975 23.6982 381.889 23.3054C381.803 22.9126 381.577 22.579 381.253 22.3651L379.891 21.4673C379.245 21.042 378.946 20.2355 379.146 19.4611C379.18 19.3281 379.212 19.1947 379.242 19.06C379.4 18.3444 379.978 17.7969 380.679 17.6981L382.123 17.4938C382.502 17.44 382.838 17.2344 383.07 16.9137C383.302 16.5931 383.401 16.1969 383.35 15.7975L382.982 12.911C382.877 12.0875 382.155 11.5079 381.376 11.6171L379.93 11.821C379.231 11.9198 378.537 11.5533 378.204 10.9086C378.142 10.7881 378.078 10.6689 378.012 10.5509C377.625 9.85866 377.712 8.99716 378.228 8.40628L379.317 7.16155C379.575 6.86549 379.709 6.48061 379.694 6.07821C379.679 5.6754 379.515 5.30344 379.235 5.03031L377.205 3.05502C376.626 2.49125 375.719 2.52961 375.185 3.14092L373.644 4.90187C373.196 5.41311 372.497 5.60743 371.86 5.39643C371.373 5.23505 370.872 5.1087 370.369 5.02072C369.612 4.88853 369.035 4.26721 368.935 3.47493L368.697 1.60639C368.646 1.20692 368.451 0.852469 368.147 0.608112C367.843 0.363755 367.468 0.258679 367.089 0.312471L364.354 0.70069C363.573 0.81161 363.022 1.5722 363.127 2.39659L363.448 4.9098C363.537 5.60951 363.235 6.30339 362.68 6.67701C362.557 6.75958 362.437 6.84464 362.317 6.93221C361.759 7.34212 361.021 7.35879 360.439 6.97432L358.267 5.54071C357.942 5.32679 357.56 5.25924 357.187 5.34972C356.814 5.44021 356.498 5.67832 356.295 6.01984L354.831 8.49051C354.628 8.83203 354.564 9.23651 354.65 9.6289C354.735 10.0213 354.961 10.3553 355.285 10.5688L357.152 11.7998C357.776 12.2113 358.08 12.9965 357.91 13.7538C357.743 14.4977 357.165 15.0494 356.465 15.1482L354.417 15.438C354.038 15.4918 353.702 15.6974 353.47 16.018C353.238 16.3383 353.139 16.7349 353.19 17.1343L353.558 20.0224C353.609 20.4219 353.805 20.7763 354.109 21.0207C354.412 21.2651 354.788 21.3697 355.167 21.3159L357.214 21.0244C357.914 20.9252 358.61 21.2955 358.946 21.9468L358.833 22.0411L358.957 21.9689C359.312 22.6524 359.215 23.4947 358.715 24.0656L357.223 25.7711C356.964 26.0671 356.83 26.4524 356.845 26.8552C356.861 27.258 357.024 27.63 357.305 27.9031L359.337 29.878C359.916 30.4418 360.823 30.4022 361.357 29.7913L363.095 27.8035C363.426 27.4244 363.884 27.2193 364.353 27.2193Z" fill="#131F2D"/>
<path d="M368.736 23.2074C367.353 23.2074 365.843 22.5711 364.504 21.4068C363.014 20.1116 362 18.3644 361.793 16.7328C361.586 15.1127 362.133 13.4598 363.33 12.0787C364.461 10.7752 366.025 9.89868 367.621 9.67392C369.144 9.45708 370.688 10.0838 371.975 11.437C373.164 12.6875 373.971 14.3859 374.189 16.0973C374.403 17.7752 374.035 19.4244 373.151 20.7409C372.251 22.0836 370.896 22.9447 369.337 23.1657C369.14 23.194 368.939 23.2074 368.736 23.2074ZM368.211 9.93247C368.027 9.93247 367.843 9.94539 367.658 9.97166C366.128 10.1877 364.627 11.0296 363.54 12.2818C362.4 13.5962 361.88 15.1628 362.075 16.6931C362.273 18.2514 363.249 19.9269 364.685 21.1754C366.16 22.458 367.842 23.0752 369.299 22.8688C370.779 22.659 372.065 21.8422 372.919 20.5682C373.761 19.3139 374.112 17.7406 373.906 16.1381C373.7 14.5152 372.902 12.8372 371.774 11.6505C370.708 10.5292 369.461 9.93247 368.211 9.93247Z" fill="#131F2D"/>
<path d="M342.196 45.9848L346.48 45.8622C348.118 45.8155 349.409 44.3773 349.366 42.6501L349.227 37.1566C349.184 35.4282 347.82 34.0646 346.181 34.1113L343.151 34.1973C341.844 34.2344 340.668 33.3649 340.257 32.0556C340.179 31.8058 340.096 31.5569 340.009 31.3096C339.584 30.1036 339.93 28.7451 340.848 27.8978L342.918 25.9871C344.152 24.8483 344.277 22.8705 343.197 21.5695L339.764 17.4346C338.685 16.1348 336.811 16.0031 335.578 17.1402L333.505 19.0517C332.588 19.8974 331.268 20.0788 330.192 19.4766C329.972 19.3536 329.751 19.2352 329.528 19.1209C328.35 18.5184 327.687 17.1727 327.895 15.8096L328.377 12.6542C328.637 10.9475 327.537 9.34122 325.919 9.06642L320.772 8.19241C319.155 7.91761 317.632 9.0781 317.371 10.784L316.689 15.2487C316.505 16.4522 315.673 17.4246 314.563 17.7624C313.629 18.0463 312.709 18.4008 311.81 18.8257C310.611 19.3928 309.203 19.0867 308.338 18.0434L306.116 15.3659C305.037 14.0649 303.162 13.9335 301.929 15.0728L298.01 18.6927C296.777 19.8311 296.653 21.8084 297.732 23.109L300.721 26.7102C301.479 27.6242 301.684 28.9223 301.217 30.0332C301.104 30.3013 300.996 30.5719 300.894 30.8438C300.459 32.001 299.403 32.7653 298.223 32.7982L293.389 32.9329C291.75 32.9788 290.458 34.417 290.501 36.145L290.64 41.6426C290.684 43.3707 292.047 44.7342 293.685 44.6879L297.839 44.5708C299.114 44.5349 300.264 45.363 300.704 46.6257C300.709 46.6395 300.713 46.6528 300.718 46.6666C301.143 47.88 300.809 49.2444 299.886 50.0963L296.95 52.8059C295.716 53.9443 295.591 55.9229 296.671 57.2235L300.107 61.3609C301.187 62.6615 303.062 62.7925 304.294 61.6528L307.226 58.9428C308.149 58.09 309.476 57.9203 310.56 58.5262C310.573 58.5337 310.587 58.5412 310.601 58.5491C311.729 59.1763 312.356 60.4894 312.152 61.8179L311.491 66.1421C311.231 67.8497 312.332 69.4568 313.951 69.7308L319.099 70.6019C320.717 70.8758 322.239 69.7145 322.499 68.0078L323.266 62.9697C323.453 61.7404 324.311 60.7371 325.457 60.4356C325.725 60.3647 325.993 60.2884 326.259 60.2059C327.364 59.8643 328.557 60.2505 329.315 61.1645L332.303 64.7678C333.382 66.0692 335.257 66.201 336.49 65.0621L340.413 61.4414C341.646 60.303 341.771 58.3256 340.691 57.0246L338.469 54.3455C337.604 53.303 337.502 51.7918 338.193 50.6134C338.71 49.7306 339.163 48.8166 339.552 47.8783C340.015 46.7604 341.04 46.0177 342.196 45.9848ZM328.056 48.5493C323.502 52.7538 314.193 51.56 310.207 46.7562C306.226 41.9583 307.817 33.8395 312.371 29.6404C316.919 25.4358 324.688 27.6897 328.674 32.493C332.66 37.2913 332.61 44.3447 328.056 48.5493Z" fill="#EFDF18"/>
<path d="M320.039 74.0917C319.878 74.0917 319.716 74.0783 319.553 74.0508L314.405 73.1797C313.598 73.0434 312.891 72.5834 312.412 71.8854C311.934 71.1869 311.742 70.3342 311.872 69.4835L312.533 65.1593C312.729 63.8725 312.124 62.5986 311.027 61.9889L310.986 61.966C309.944 61.3838 308.645 61.5461 307.753 62.3701L304.821 65.0801C304.207 65.6476 303.421 65.9295 302.605 65.8724C301.791 65.8157 301.045 65.4274 300.508 64.7794L297.072 60.642C296.534 59.994 296.268 59.1638 296.322 58.304C296.376 57.4441 296.745 56.6585 297.359 56.0914L300.296 53.3818C301.188 52.5586 301.512 51.2218 301.103 50.0554L301.089 50.015C300.661 48.7874 299.542 47.9826 298.31 48.021L294.156 48.1381C293.344 48.1623 292.564 47.8475 291.971 47.2549C291.379 46.6624 291.041 45.8622 291.019 45.0011L290.88 39.5035C290.858 38.6424 291.156 37.8242 291.718 37.1992C292.28 36.5745 293.039 36.2176 293.855 36.1946L298.689 36.06C299.842 36.0278 300.859 35.2839 301.28 34.1647C301.383 33.8916 301.492 33.6176 301.604 33.3508C302.052 32.2854 301.863 31.0206 301.122 30.1278L298.133 26.5267C297.023 25.1894 297.152 23.1486 298.42 21.9777L302.338 18.3578C302.953 17.7903 303.739 17.5088 304.555 17.5664C305.369 17.6235 306.114 18.0117 306.652 18.6597L308.873 21.3372C309.712 22.3472 311.065 22.652 312.242 22.0953C313.135 21.6733 314.065 21.3139 315.006 21.0274C316.083 20.7001 316.893 19.7431 317.069 18.5893L317.752 14.1245C318.02 12.3702 319.591 11.1714 321.255 11.455L326.401 12.329C327.207 12.4657 327.915 12.9257 328.392 13.6237C328.871 14.3218 329.063 15.1745 328.932 16.0248L328.451 19.1801C328.247 20.5124 328.883 21.803 330.034 22.3918C330.258 22.5065 330.481 22.6257 330.702 22.7492C331.731 23.325 333.022 23.1595 333.914 22.3363L335.987 20.4249C337.255 19.2556 339.189 19.3924 340.298 20.7284L343.731 24.8633C344.269 25.5113 344.536 26.3415 344.482 27.201C344.427 28.0604 344.059 28.8464 343.444 29.4135L341.374 31.3242C340.481 32.149 340.154 33.4784 340.56 34.6326C340.647 34.8811 340.731 35.1309 340.809 35.3819C341.211 36.6608 342.333 37.4981 343.617 37.459L346.647 37.3731C347.46 37.3518 348.239 37.6633 348.832 38.2558C349.424 38.8484 349.763 39.649 349.785 40.5097L349.923 46.0031C349.968 47.7795 348.635 49.2636 346.951 49.312L342.667 49.4346C341.558 49.4663 340.551 50.1872 340.101 51.2718C339.71 52.2171 339.25 53.1412 338.736 54.0185C338.059 55.1749 338.166 56.6301 339.004 57.6393L341.227 60.3184C341.764 60.9664 342.03 61.7967 341.976 62.6561C341.922 63.5155 341.554 64.3007 340.939 64.8678L337.017 68.4886C336.402 69.0557 335.615 69.3355 334.801 69.2792C333.986 69.222 333.241 68.8334 332.703 68.185L329.716 64.5818C328.976 63.689 327.812 63.3237 326.752 63.6515C326.485 63.734 326.214 63.8116 325.946 63.8821C324.838 64.1735 324.004 65.1384 323.821 66.3398L323.054 71.3779C322.814 72.9612 321.512 74.0917 320.039 74.0917ZM309.655 61.431C310.141 61.431 310.627 61.5519 311.069 61.7992L311.11 61.8221C312.275 62.4693 312.917 63.8224 312.708 65.1889L312.048 69.5131C311.925 70.3142 312.106 71.1173 312.557 71.7749C313.007 72.4325 313.674 72.8653 314.433 72.9937L319.582 73.8648C321.148 74.1317 322.628 73.0013 322.879 71.3487L323.646 66.3106C323.841 65.0346 324.727 64.0101 325.903 63.7003C326.17 63.6302 326.438 63.5535 326.703 63.4717C327.83 63.124 329.065 63.5113 329.851 64.4588L332.839 68.062C333.345 68.6725 334.046 69.0382 334.814 69.0924C335.581 69.1466 336.322 68.8822 336.901 68.348L340.823 64.7273C341.401 64.1931 341.748 63.4534 341.799 62.6444C341.85 61.8355 341.599 61.0536 341.093 60.4436L338.87 57.7644C337.981 56.6927 337.866 55.1482 338.585 53.921C339.095 53.0507 339.55 52.1346 339.939 51.1976C340.417 50.0467 341.485 49.2811 342.663 49.2473L346.947 49.1247C348.532 49.0793 349.788 47.6815 349.746 46.009L349.607 40.5155C349.586 39.7049 349.268 38.951 348.71 38.393C348.151 37.8351 347.422 37.5403 346.652 37.562L343.622 37.6478C342.271 37.6829 341.068 36.8001 340.641 35.4416C340.562 35.1926 340.48 34.9453 340.394 34.6989C339.962 33.4717 340.309 32.0589 341.258 31.1832L343.328 29.2726C343.907 28.7384 344.254 27.9987 344.305 27.1893C344.356 26.3799 344.104 25.598 343.598 24.988L340.165 20.8531C339.12 19.5946 337.299 19.467 336.105 20.5675L334.032 22.479C333.084 23.3525 331.713 23.5285 330.618 22.9164C330.4 22.7938 330.179 22.6758 329.957 22.5624C328.734 21.9369 328.058 20.5662 328.275 19.1514L328.757 15.996C328.879 15.1954 328.698 14.3927 328.248 13.7351C327.798 13.0779 327.132 12.645 326.373 12.5158L321.227 11.6418C319.662 11.3766 318.181 12.5033 317.928 14.1554L317.245 18.6201C317.058 19.8452 316.198 20.8614 315.056 21.2092C314.123 21.4932 313.2 21.8493 312.316 22.2675C311.067 22.858 309.629 22.5344 308.739 21.4615L306.518 18.784C306.011 18.1735 305.31 17.8078 304.543 17.754C303.776 17.7011 303.034 17.965 302.456 18.4992L298.537 22.1191C297.343 23.2216 297.222 25.1431 298.267 26.4024L301.256 30.0036C302.042 30.951 302.243 32.2949 301.767 33.4271C301.656 33.6919 301.547 33.9633 301.445 34.2339C300.998 35.4232 299.918 36.2138 298.694 36.248L293.859 36.3827C293.091 36.404 292.376 36.7401 291.847 37.3284C291.318 37.9168 291.038 38.6874 291.058 39.498L291.197 44.9957C291.218 45.8063 291.536 46.5598 292.094 47.1177C292.653 47.6757 293.382 47.973 294.151 47.9492L298.305 47.8321C299.621 47.8008 300.802 48.6456 301.256 49.9483L301.268 49.9808C301.705 51.2285 301.36 52.6483 300.413 53.5227L297.477 56.2323C296.898 56.7665 296.551 57.5063 296.5 58.3156C296.449 59.125 296.7 59.9069 297.206 60.5169L300.642 64.6543C301.148 65.2644 301.85 65.6301 302.617 65.6835C303.383 65.7364 304.125 65.4716 304.704 64.9375L307.636 62.2274C308.204 61.7033 308.928 61.431 309.655 61.431Z" fill="#131F2D"/>
<g opacity="0.6">
<path d="M445.293 194.407H167.672C163.703 194.407 160.484 191.012 160.484 186.825V137.022C160.484 132.835 163.702 129.441 167.672 129.441H445.293C449.262 129.441 452.48 132.835 452.48 137.022V186.825C452.48 191.012 449.262 194.407 445.293 194.407Z" fill="#D5D6DA"/>
</g>
<g opacity="0.6">
<path d="M448.122 214.238H314.059C312.912 214.238 311.982 213.257 311.982 212.048V210.751C311.982 209.534 312.924 208.55 314.078 208.561L448.14 209.858C449.28 209.869 450.198 210.846 450.198 212.048C450.198 213.257 449.268 214.238 448.122 214.238Z" fill="#D5D6DA"/>
</g>
<path d="M438.089 159.374H348.141V155.775L438.089 156.618V159.374Z" fill="#657285"/>
<path d="M388.313 167.473H348.141V163.874L388.313 164.718V167.473Z" fill="#EFDF18"/>
<path d="M401.358 184.992H348.141V181.393L401.358 182.238V184.992Z" fill="#EFDF18"/>
<path d="M388.313 176.872H348.141V173.273L388.313 174.117V176.872Z" fill="#EFDF18"/>
<path d="M417.612 176.872H394.062V173.273L417.612 174.117V176.872Z" fill="#657285"/>
<path d="M434.236 167.473H394.062V163.874L434.236 164.718V167.473Z" fill="#EFDF18"/>
<g opacity="0.6">
<path d="M448.32 226.844L313.905 228.509C312.847 228.522 311.982 227.621 311.982 226.505V224.84C311.982 223.733 312.833 222.836 313.883 222.836H448.298C449.347 222.836 450.198 223.733 450.198 224.84C450.198 225.938 449.361 226.832 448.32 226.844Z" fill="#D5D6DA"/>
</g>
<g opacity="0.6">
<path d="M235.048 270.893H161.486V266.272L233.851 267.323C235.112 267.341 236.126 268.425 236.126 269.756C236.126 270.383 235.643 270.893 235.048 270.893Z" fill="#D5D6DA"/>
</g>
<g opacity="0.6">
<path d="M258.04 282.18L162.697 283.522C162.031 283.532 161.486 282.964 161.486 282.261V280.221C161.486 279.525 162.022 278.96 162.681 278.96H258.025C258.685 278.96 259.22 279.525 259.22 280.221V280.919C259.22 281.609 258.694 282.171 258.04 282.18Z" fill="#D5D6DA"/>
</g>
<g opacity="0.6">
<path d="M334.029 282.193L267.327 283.509C266.469 283.526 265.766 282.797 265.766 281.892V280.577C265.766 279.684 266.451 278.961 267.298 278.961H334C334.846 278.961 335.532 279.685 335.532 280.577C335.533 281.458 334.864 282.177 334.029 282.193Z" fill="#D5D6DA"/>
</g>
<g opacity="0.6">
<path d="M448.32 245.096L313.905 246.761C312.847 246.774 311.982 245.873 311.982 244.757V243.092C311.982 241.985 312.833 241.088 313.883 241.088H448.298C449.347 241.088 450.198 241.985 450.198 243.092C450.198 244.19 449.361 245.083 448.32 245.096Z" fill="#D5D6DA"/>
</g>
<path d="M221.535 252.725H166.81C163.316 252.725 160.484 249.738 160.484 246.053V209.953C160.484 206.268 163.316 203.28 166.81 203.28H221.535C225.028 203.28 227.861 206.268 227.861 209.953V246.053C227.861 249.738 225.028 252.725 221.535 252.725Z" fill="#D5D6DA"/>
<g opacity="0.6">
<path d="M291.801 252.725H242.285C239.312 252.725 236.902 250.183 236.902 247.048V208.958C236.902 205.822 239.312 203.28 242.285 203.28H291.801C294.773 203.28 297.183 205.822 297.183 208.958V247.047C297.183 250.183 294.773 252.725 291.801 252.725Z" fill="#D5D6DA"/>
</g>
<path d="M223.395 280.196C223.034 300.78 221.627 328.96 217.194 353.671C209.803 394.903 164.31 423.192 155.906 428.1C155.076 428.585 154.076 428.627 153.214 428.21C82.051 393.73 83.167 341.33 83.167 341.33V279.784C83.167 278.056 84.4819 276.65 86.1197 276.622C96.9547 276.433 134.753 274.282 151.262 253.82C152.394 252.417 154.434 252.356 155.658 253.67C162.763 261.295 185.969 282.423 223.263 280.204C223.307 280.201 223.351 280.201 223.395 280.196Z" fill="#EFDF18"/>
<path d="M154.41 418.08C154.364 418.08 154.319 418.07 154.277 418.05C139.769 411.157 127.448 402.83 117.655 393.302C109.814 385.672 103.567 377.26 99.0878 368.298C91.451 353.02 91.6095 341.265 91.6119 341.148V289.548C91.6119 286.616 93.7882 284.242 96.5661 284.143C101.89 283.953 112.424 283.21 123.152 280.358C135.953 276.956 145.389 271.604 151.199 264.452C151.754 263.769 152.559 263.362 153.408 263.334C154.254 263.311 155.072 263.658 155.659 264.297C159.603 268.584 170.244 279 183.86 283.106C194.723 286.382 204.78 287.206 209.808 287.406C212.505 287.513 214.644 289.916 214.578 292.762C214.011 316.817 212.356 336.199 209.518 352.016C207.883 361.139 203.972 370.289 197.894 379.212C193.039 386.341 186.796 393.343 179.341 400.023C166.654 411.391 154.679 417.978 154.559 418.043C154.512 418.068 154.461 418.08 154.41 418.08ZM153.504 264.016C153.479 264.016 153.454 264.017 153.428 264.018C152.761 264.039 152.128 264.36 151.692 264.897C145.793 272.158 136.244 277.583 123.31 281.021C112.524 283.888 101.938 284.636 96.5874 284.827C94.1609 284.913 92.2602 286.986 92.2602 289.547V341.155C92.2578 341.278 92.1088 352.89 99.6816 368.019C104.13 376.906 110.333 385.25 118.118 392.821C127.823 402.258 140.029 410.513 154.398 417.357C155.767 416.591 167.033 410.153 178.931 399.49C190.571 389.059 205.215 372.333 208.88 351.888C211.711 336.107 213.362 316.762 213.928 292.744C213.986 290.27 212.127 288.182 209.783 288.089C204.726 287.888 194.61 287.059 183.681 283.763C169.914 279.611 159.173 269.099 155.193 264.772C154.744 264.283 154.146 264.016 153.504 264.016Z" fill="#131F2D"/>
<path d="M169.67 366.555H124.637C120.468 366.555 117.076 362.977 117.076 358.58V329.274C117.076 324.877 120.468 321.299 124.637 321.299H127.176C128.238 316.702 130.747 312.534 134.264 309.54C137.902 306.441 142.48 304.734 147.153 304.734C151.826 304.734 156.404 306.441 160.042 309.54C163.559 312.534 166.068 316.702 167.13 321.299H169.669C173.838 321.299 177.23 324.877 177.23 329.274V358.58C177.23 362.977 173.838 366.555 169.67 366.555ZM124.637 321.983C120.826 321.983 117.725 325.254 117.725 329.273V358.579C117.725 362.599 120.826 365.869 124.637 365.869H169.67C173.481 365.869 176.581 362.599 176.581 358.579V329.273C176.581 325.253 173.481 321.983 169.67 321.983H166.874C166.723 321.983 166.591 321.873 166.557 321.718C165.565 317.164 163.107 313.028 159.635 310.072C156.112 307.072 151.679 305.419 147.153 305.419C142.628 305.419 138.195 307.072 134.672 310.072C131.201 313.028 128.742 317.164 127.749 321.718C127.715 321.873 127.585 321.983 127.433 321.983H124.637ZM161.701 321.983H132.605C132.502 321.983 132.405 321.931 132.344 321.843C132.283 321.756 132.265 321.643 132.296 321.539C134.338 314.643 140.309 310.01 147.153 310.01C153.998 310.01 159.968 314.643 162.01 321.539C162.041 321.643 162.023 321.756 161.962 321.843C161.901 321.931 161.804 321.983 161.701 321.983ZM133.053 321.299H161.253C159.175 314.936 153.564 310.695 147.153 310.695C140.742 310.695 135.131 314.936 133.053 321.299Z" fill="#131F2D"/>
<path d="M174.05 361.572H131.632C127.346 361.572 123.871 357.906 123.871 353.385V325.187C123.871 320.666 127.346 317.001 131.632 317.001H174.05C178.337 317.001 181.811 320.666 181.811 325.187V353.385C181.811 357.906 178.336 361.572 174.05 361.572Z" fill="#131F2D"/>
<path d="M152.84 343.132C141.681 343.132 132.602 333.555 132.602 321.784C132.602 310.013 141.681 300.436 152.84 300.436C164 300.436 173.079 310.013 173.079 321.784C173.079 333.555 164 343.132 152.84 343.132ZM152.84 305.712C144.439 305.712 137.603 312.922 137.603 321.784C137.603 330.646 144.439 337.856 152.84 337.856C161.242 337.856 168.078 330.646 168.078 321.784C168.077 312.922 161.242 305.712 152.84 305.712Z" fill="#131F2D"/>
<path d="M152.84 341.029C151.68 341.029 150.73 340.028 150.73 338.804V328.005C150.73 326.781 151.68 325.78 152.84 325.78C154.001 325.78 154.95 326.781 154.95 328.005V338.804C154.95 340.028 154.001 341.029 152.84 341.029Z" fill="#EFDF18"/>
<path d="M152.841 350.812C155.982 350.812 158.529 348.126 158.529 344.812C158.529 341.498 155.982 338.812 152.841 338.812C149.699 338.812 147.152 341.498 147.152 344.812C147.152 348.126 149.699 350.812 152.841 350.812Z" fill="#EFDF18"/>
<path d="M256.303 188.59C256.183 188.59 256.06 188.561 255.945 188.5L247.822 184.227C247.425 184.018 247.263 183.508 247.462 183.089C247.66 182.67 248.143 182.499 248.54 182.709L256.663 186.983C257.06 187.191 257.222 187.701 257.023 188.12C256.882 188.417 256.598 188.59 256.303 188.59Z" fill="#131F2D"/>
<path d="M244.778 198.868C244.358 198.868 244.005 198.524 243.976 198.077C243.946 197.609 244.281 197.205 244.724 197.173L253.74 196.529C254.18 196.496 254.566 196.85 254.596 197.318C254.626 197.785 254.292 198.19 253.849 198.221L244.833 198.866C244.815 198.867 244.796 198.868 244.778 198.868Z" fill="#131F2D"/>
<path d="M249.877 213.12C249.601 213.12 249.333 212.97 249.183 212.701C248.958 212.298 249.086 211.778 249.469 211.54L257.305 206.682C257.688 206.445 258.18 206.579 258.406 206.984C258.631 207.388 258.502 207.908 258.12 208.145L250.284 213.003C250.156 213.082 250.015 213.12 249.877 213.12Z" fill="#131F2D"/>
<path d="M282.674 188.59C282.379 188.59 282.095 188.417 281.954 188.12C281.756 187.701 281.917 187.191 282.314 186.982L290.437 182.708C290.834 182.499 291.317 182.67 291.515 183.089C291.713 183.508 291.552 184.017 291.155 184.226L283.032 188.5C282.917 188.561 282.795 188.59 282.674 188.59Z" fill="#131F2D"/>
<path d="M294.199 198.868C294.181 198.868 294.163 198.867 294.144 198.866L285.129 198.221C284.686 198.19 284.351 197.785 284.381 197.318C284.411 196.85 284.797 196.496 285.237 196.529L294.253 197.173C294.696 197.205 295.031 197.609 295.001 198.077C294.972 198.524 294.618 198.868 294.199 198.868Z" fill="#131F2D"/>
<path d="M289.1 213.12C288.962 213.12 288.822 213.082 288.694 213.003L280.858 208.145C280.475 207.908 280.347 207.388 280.572 206.984C280.797 206.58 281.289 206.445 281.672 206.683L289.508 211.54C289.891 211.778 290.019 212.298 289.794 212.701C289.644 212.97 289.376 213.12 289.1 213.12Z" fill="#131F2D"/>
<path d="M285.625 194.02C285.625 205.028 278.704 214.022 270.006 214.577C269.723 214.594 269.439 214.602 269.153 214.602C260.058 214.602 252.682 205.385 252.682 194.02C252.682 189.148 254.035 184.668 256.305 181.143C259.322 176.443 263.957 173.434 269.154 173.434C270.603 173.434 272.009 173.668 273.349 174.109C276.811 175.245 279.828 177.753 282.003 181.143C284.272 184.668 285.625 189.148 285.625 194.02Z" fill="#657285"/>
<path d="M285.625 194.02C285.625 205.028 278.704 214.022 270.006 214.577C268.931 211.358 268.107 207.831 267.604 204.1C266.608 196.703 267.029 189.691 268.555 183.987C269.636 179.925 271.275 176.52 273.349 174.109C276.811 175.245 279.827 177.753 282.002 181.143C284.272 184.668 285.625 189.148 285.625 194.02Z" fill="#657285"/>
<path d="M282.002 181.143C278.985 185.844 274.35 188.853 269.153 188.853C263.957 188.853 259.321 185.844 256.305 181.143C259.321 176.443 263.957 173.434 269.153 173.434C274.35 173.434 278.985 176.443 282.002 181.143Z" fill="#131F2D"/>
<path d="M265.548 176.11C265.112 176.11 264.755 175.743 264.744 175.282C264.596 168.841 258.961 166.229 258.905 166.204C258.496 166.02 258.306 165.522 258.481 165.091C258.655 164.66 259.127 164.46 259.536 164.644C259.807 164.766 266.179 167.722 266.352 175.241C266.362 175.71 266.011 176.098 265.567 176.11C265.561 176.11 265.554 176.11 265.548 176.11Z" fill="#131F2D"/>
<path d="M272.199 178.29C271.784 178.29 271.432 177.953 271.399 177.509C270.717 168.427 276.586 164.833 276.836 164.684C277.223 164.455 277.713 164.599 277.931 165.008C278.148 165.415 278.012 165.931 277.626 166.161C277.405 166.295 272.404 169.416 273.002 177.375C273.037 177.842 272.707 178.25 272.264 178.287C272.242 178.289 272.221 178.29 272.199 178.29Z" fill="#131F2D"/>
<g opacity="0.4">
<path d="M317.506 246.442C343.641 218.874 343.641 174.178 317.506 146.61C291.37 119.042 248.997 119.042 222.861 146.61C196.726 174.178 196.726 218.874 222.861 246.442C248.997 274.01 291.37 274.01 317.506 246.442Z" fill="#EFDF18"/>
</g>
<path d="M327.907 228.203L322.76 236.967L453.292 322.259L458.439 313.494L327.907 228.203Z" fill="#131F2D"/>
<path d="M459.643 317.002L456.847 321.764C455.735 323.657 453.378 324.241 451.584 323.069L383.483 278.575C381.687 277.403 381.133 274.917 382.245 273.024L385.042 268.262C386.153 266.368 388.51 265.784 390.305 266.957L458.406 311.45C460.2 312.623 460.754 315.109 459.643 317.002Z" fill="#131F2D"/>
<path d="M210.628 157.607C190.253 192.305 200.405 237.857 233.301 259.349C266.196 280.841 309.379 270.135 329.754 235.436C350.129 200.737 339.979 155.187 307.084 133.696C274.188 112.204 231.003 122.908 210.628 157.607ZM324.532 232.024C305.942 263.682 266.545 273.447 236.536 253.84C206.523 234.232 197.261 192.677 215.85 161.019C234.44 129.361 273.838 119.593 303.851 139.202C333.861 158.808 343.121 200.366 324.532 232.024Z" fill="#131F2D"/>
</svg>
