<svg width="735" height="490" viewBox="0 0 735 490" fill="none" xmlns="http://www.w3.org/2000/svg">
<path d="M668.724 298.136L655.866 298.41L649.339 298.518C647.154 298.567 644.959 298.518 642.773 298.577H642.342V298.136L642.283 287.14V286.65H642.773L655.748 286.709C660.08 286.709 664.402 286.817 668.724 286.866H668.998V287.14C668.998 289.002 668.92 290.854 668.871 292.687L668.724 298.136ZM668.724 298.136L668.586 292.599C668.537 290.776 668.479 288.973 668.459 287.169L668.724 287.444C664.402 287.493 660.08 287.601 655.748 287.601L642.773 287.659L643.263 287.169V298.136L642.822 297.704C644.959 297.704 647.095 297.704 649.241 297.753L655.621 297.92L668.724 298.136Z" fill="#EBEBEB"/>
<path d="M654.247 311.963L641.389 312.238L634.853 312.346C632.677 312.346 630.482 312.346 628.296 312.404H627.865V311.963V300.997V300.507H628.355L641.33 300.576C645.652 300.576 649.984 300.684 654.306 300.733H654.58V300.997C654.58 302.859 654.502 304.711 654.453 306.544L654.247 311.963ZM654.247 311.963L654.11 306.426C654.061 304.604 654.002 302.8 653.982 300.997L654.247 301.272C649.925 301.321 645.593 301.428 641.272 301.428L628.296 301.487L628.786 300.997V311.963L628.345 311.532C630.482 311.532 632.618 311.532 634.764 311.581L641.203 311.699L654.247 311.963Z" fill="#EBEBEB"/>
<path d="M683.198 311.963L670.341 312.238L663.814 312.346C661.628 312.346 659.433 312.346 657.248 312.404H656.817V311.963L656.758 300.997V300.507H657.248L670.223 300.576C674.555 300.576 678.876 300.684 683.198 300.733H683.473V300.997C683.473 302.859 683.384 304.711 683.345 306.544L683.198 311.963ZM683.198 311.963L683.061 306.426C683.061 304.604 682.953 302.8 682.934 300.997L683.198 301.272C678.876 301.321 674.555 301.428 670.223 301.428L657.248 301.487L657.738 300.997V311.963L657.297 311.532C659.443 311.532 661.57 311.532 663.716 311.581L670.164 311.699L683.198 311.963Z" fill="#EBEBEB"/>
<path d="M342.872 113.758L330.014 114.033L323.487 114.141C321.302 114.141 319.107 114.141 316.921 114.199H316.539V113.758L316.48 102.792V102.302H316.97L329.946 102.371C334.277 102.371 338.599 102.479 342.921 102.528H343.195V102.792C343.195 104.654 343.107 106.506 343.068 108.339L342.872 113.758ZM342.872 113.758L342.735 108.221C342.735 106.399 342.627 104.586 342.607 102.792L342.872 103.067C338.55 103.067 334.228 103.214 329.897 103.223L316.921 103.282L317.411 102.792L317.362 113.758L316.921 113.327C319.058 113.327 321.194 113.327 323.34 113.327L329.789 113.435L342.872 113.758Z" fill="#EBEBEB"/>
<path d="M328.399 127.586L315.542 127.861L309.015 127.968C306.83 127.968 304.634 127.968 302.449 128.027H302.018V127.586L301.959 116.62V116.13H302.449L315.424 116.199C319.756 116.199 324.078 116.306 328.399 116.355H328.674V116.62C328.674 118.482 328.595 120.334 328.546 122.167L328.399 127.586ZM328.399 127.586L328.262 122.049C328.262 120.226 328.154 118.413 328.135 116.62L328.399 116.894C324.078 116.894 319.756 117.041 315.424 117.051L302.449 117.11L302.939 116.62L302.89 127.586L302.449 127.155C304.585 127.155 306.722 127.155 308.868 127.204L315.316 127.312L328.399 127.586Z" fill="#EBEBEB"/>
<path d="M357.356 127.586L344.489 127.861L337.962 127.968C335.777 127.968 333.591 127.968 331.396 128.027H330.965V127.586L330.916 116.62V116.13H331.406L344.391 116.199C348.713 116.199 353.035 116.306 357.366 116.355H357.631V116.62C357.631 118.482 357.543 120.334 357.503 122.167L357.356 127.586ZM357.356 127.586L357.209 122.049C357.209 120.226 357.102 118.413 357.082 116.62L357.356 116.894C353.025 116.894 348.703 117.041 344.381 117.051L331.396 117.11L331.886 116.62L331.837 127.586L331.396 127.155C333.542 127.155 335.669 127.155 337.815 127.204L344.264 127.312L357.356 127.586Z" fill="#EBEBEB"/>
<path d="M154.841 227.233L141.973 227.507L135.446 227.615C133.271 227.664 131.076 227.615 128.89 227.664H128.459V227.223V216.257V215.767H128.949L141.924 215.825C146.246 215.825 150.578 215.933 154.899 215.992H155.164V216.257C155.164 218.119 155.086 219.971 155.037 221.794L154.841 227.233ZM154.841 227.233L154.703 221.686C154.703 219.863 154.596 218.06 154.576 216.266L154.841 216.531C150.519 216.58 146.187 216.688 141.865 216.698L128.89 216.756L129.38 216.266L129.361 227.233L128.929 226.792C131.066 226.792 133.202 226.792 135.339 226.85L141.787 226.958L154.841 227.233Z" fill="#EBEBEB"/>
<path d="M668.448 61.1324L655.62 61.4068L649.093 61.5146C646.917 61.5146 644.722 61.5146 642.537 61.5734H642.096V61.1324V50.1662V49.6762H642.586L655.561 49.735C659.883 49.735 664.204 49.8526 668.536 49.9016H668.801V50.1662C668.801 52.0282 668.712 53.8804 668.673 55.7032L668.448 61.1324ZM668.448 61.1324L668.36 55.5954C668.311 53.7628 668.242 51.9596 668.222 50.1662L668.497 50.4308C664.165 50.4308 659.844 50.5876 655.522 50.5974L642.546 50.6562L643.036 50.1662L642.978 61.1324L642.546 60.6914C644.683 60.6914 646.819 60.6914 648.956 60.7502L655.404 60.858L668.448 61.1324Z" fill="#EBEBEB"/>
<path d="M682.923 74.9602L670.055 75.2346L663.528 75.3424C661.353 75.3914 659.158 75.3424 656.972 75.3914H656.541V74.9504V63.9842V63.4942H657.031L670.006 63.553C674.328 63.553 678.66 63.6706 682.981 63.7196H683.256V63.9842C683.256 65.8462 683.177 67.6984 683.128 69.5212L682.923 74.9602ZM682.923 74.9602L682.785 69.4232C682.736 67.5906 682.678 65.7874 682.658 63.994L682.923 64.2586C678.601 64.3076 674.269 64.4154 669.947 64.4252L656.972 64.484L657.462 63.994L657.403 74.9602L656.972 74.5192C659.109 74.5192 661.245 74.5192 663.381 74.578L669.83 74.6858L682.923 74.9602Z" fill="#EBEBEB"/>
<path d="M77.7527 349.507L64.8853 349.782L58.3585 349.899C56.1829 349.899 53.9877 349.899 51.8023 349.899H51.3613V349.458V338.502V338.1H51.8611H64.7775C69.0993 338.1 73.4211 338.208 77.7527 338.257H78.0173V338.521C78.0173 340.374 77.9291 342.226 77.8899 344.058L77.7527 349.507ZM77.7527 349.507L77.6057 343.98C77.6057 342.157 77.4979 340.354 77.4783 338.561L77.7527 338.825C73.4211 338.825 69.0993 338.982 64.7775 338.982L51.8023 339.08L52.2923 338.6L52.2335 349.556L51.8023 349.125C53.9387 349.125 56.0653 349.125 58.2115 349.174L64.6599 349.292L77.7527 349.507Z" fill="#EBEBEB"/>
<path d="M92.2274 363.335L79.3796 363.58L72.8528 363.698C70.6772 363.698 68.482 363.698 66.2966 363.747H65.8556V363.306L65.8066 352.339V351.849H66.2966L79.2718 351.908C83.5936 351.908 87.9252 352.016 92.247 352.065H92.5116V352.32C92.5116 354.182 92.4332 356.034 92.3842 357.867L92.2274 363.335ZM92.2274 363.335L92.1196 357.798C92.1196 355.975 92.002 354.172 91.9922 352.369L92.2568 352.643C87.935 352.692 83.6034 352.8 79.2816 352.8L66.3064 352.859L66.7964 352.369L66.7376 363.335L66.3064 362.904C68.4428 362.904 70.5792 362.904 72.7156 362.953L79.164 363.07L92.2274 363.335Z" fill="#EBEBEB"/>
<path d="M77.7527 61.1422L64.8853 61.4166L58.3585 61.5244C56.1829 61.5244 53.9877 61.5244 51.8023 61.5832H51.3613V61.1422V50.176V49.686H51.8611L64.8363 49.7546C69.1581 49.7546 73.4799 49.8624 77.8115 49.9114H78.0761V50.176C78.0761 52.038 77.9879 53.8902 77.9487 55.7228L77.7527 61.1422ZM77.7527 61.1422L77.6057 55.6052C77.6057 53.7726 77.4979 51.9694 77.4783 50.176L77.7527 50.4406C73.4211 50.4994 69.0993 50.5974 64.7775 50.6072L51.8023 50.666L52.2923 50.176L52.2335 61.1422L51.8023 60.76C53.9387 60.76 56.0653 60.76 58.2115 60.76L64.6599 60.8678L77.7527 61.1422Z" fill="#EBEBEB"/>
<path d="M66.8356 254.8C67.2951 254.522 67.8222 254.374 68.3595 254.374C68.8969 254.374 69.4239 254.522 69.8834 254.8C70.1382 254.957 70.393 255.104 70.6576 255.241C70.9222 255.378 71.1966 255.525 71.471 255.653C71.956 255.878 72.3702 256.232 72.669 256.676C72.9678 257.12 73.1397 257.637 73.1664 258.171L73.284 261.915L85.4948 261.542L85.3772 257.789C85.3696 257.253 85.509 256.724 85.7802 256.261C86.0514 255.798 86.4441 255.418 86.9158 255.163C87.445 254.869 87.9644 254.545 88.4642 254.183C88.9034 253.878 89.4175 253.698 89.9511 253.664C90.4847 253.629 91.0176 253.741 91.4924 253.987L94.7852 255.78L100.557 245L97.2646 243.226C96.7966 242.968 96.4078 242.587 96.1402 242.124C95.8725 241.661 95.7361 241.134 95.7456 240.6C95.7652 239.992 95.7456 239.383 95.6868 238.777C95.6477 238.251 95.7508 237.724 95.9853 237.252C96.2198 236.779 96.577 236.379 97.0196 236.092L100.205 234.132L93.7856 223.734L90.581 225.694C90.1226 225.971 89.5974 226.117 89.062 226.117C88.5266 226.117 88.0014 225.971 87.543 225.694L86.7688 225.243L85.9652 224.841C85.4821 224.614 85.0699 224.26 84.7729 223.816C84.4759 223.372 84.3054 222.856 84.2796 222.323L84.1424 218.54L71.9414 218.922L72.059 222.656C72.0777 223.195 71.9477 223.729 71.6832 224.199C71.4188 224.669 71.0301 225.058 70.5596 225.322C70.0238 225.621 69.5037 225.949 69.0014 226.302C68.5622 226.607 68.0482 226.786 67.5146 226.821C66.981 226.855 66.4481 226.743 65.9732 226.498L62.6706 224.734L56.8984 235.514L60.1912 237.278C60.6608 237.537 61.0505 237.919 61.3183 238.384C61.586 238.849 61.7216 239.378 61.7102 239.914C61.7102 240.521 61.7298 241.129 61.769 241.737C61.8153 242.272 61.7136 242.811 61.4752 243.293C61.2367 243.775 60.8706 244.182 60.4166 244.471L57.2414 246.431L63.6996 256.76L66.8356 254.8ZM69.8932 235.514C70.8287 233.77 72.26 232.343 74.0062 231.413C75.7524 230.483 77.7351 230.092 79.7038 230.288C81.6724 230.485 83.5386 231.261 85.0665 232.517C86.5944 233.774 87.7154 235.456 88.2878 237.35C88.8602 239.244 88.8583 241.265 88.2824 243.157C87.7064 245.05 86.5823 246.73 85.052 247.984C83.5218 249.238 81.6541 250.01 79.6851 250.203C77.7161 250.396 75.7341 250 73.9896 249.067C71.657 247.81 69.9167 245.681 69.1491 243.145C68.3815 240.609 68.649 237.873 69.8932 235.533V235.514Z" fill="#EBEBEB"/>
<path d="M541.195 98.2156C541.519 98.4082 541.782 98.6873 541.955 99.0215C542.128 99.3557 542.205 99.7317 542.175 100.107C542.175 100.313 542.175 100.519 542.175 100.734C542.175 100.95 542.175 101.156 542.175 101.371C542.202 101.745 542.124 102.118 541.951 102.45C541.778 102.782 541.517 103.06 541.195 103.253L538.922 104.566L543.195 111.975L545.468 110.662C545.797 110.477 546.171 110.386 546.548 110.4C546.925 110.414 547.29 110.531 547.605 110.74C547.959 110.971 548.326 111.184 548.702 111.377C549.038 111.545 549.321 111.802 549.52 112.12C549.718 112.438 549.826 112.805 549.829 113.18V115.807H558.385V113.18C558.388 112.805 558.496 112.438 558.694 112.12C558.893 111.802 559.176 111.545 559.512 111.377C559.891 111.184 560.261 110.971 560.619 110.74C560.932 110.531 561.296 110.413 561.671 110.4C562.047 110.386 562.419 110.476 562.746 110.662L565.019 111.975L569.302 104.566L567.019 103.243C566.697 103.05 566.436 102.773 566.263 102.441C566.09 102.108 566.012 101.735 566.039 101.361C566.039 101.156 566.039 100.94 566.039 100.734C566.039 100.528 566.039 100.313 566.039 100.107C566.012 99.732 566.089 99.3569 566.262 99.0231C566.435 98.6893 566.697 98.4098 567.019 98.2156L569.302 96.9024L565.019 89.4936L562.755 90.8068C562.427 90.9917 562.053 91.0823 561.676 91.0684C561.299 91.0546 560.933 90.9369 560.619 90.7284C560.266 90.503 559.894 90.2874 559.512 90.0914C559.175 89.9229 558.891 89.6643 558.692 89.3442C558.493 89.0242 558.387 88.6552 558.385 88.2784V85.6618H549.829V88.2784C549.827 88.6552 549.721 89.0242 549.522 89.3442C549.323 89.6643 549.039 89.9229 548.702 90.0914C548.32 90.2874 547.948 90.503 547.595 90.7284C547.281 90.9369 546.915 91.0546 546.538 91.0684C546.161 91.0823 545.787 90.9917 545.459 90.8068L543.195 89.4936L538.922 96.9024L541.195 98.2156ZM554.112 93.7174C555.5 93.7155 556.858 94.1253 558.013 94.8952C559.168 95.665 560.069 96.7602 560.602 98.0422C561.134 99.3242 561.274 100.735 561.005 102.097C560.735 103.459 560.068 104.71 559.087 105.692C558.106 106.675 556.856 107.344 555.494 107.615C554.133 107.887 552.721 107.749 551.439 107.218C550.156 106.687 549.06 105.788 548.288 104.634C547.517 103.479 547.105 102.122 547.105 100.734C547.107 98.8757 547.846 97.094 549.159 95.7789C550.473 94.4638 552.253 93.7226 554.112 93.7174Z" fill="#EBEBEB"/>
<path d="M603.553 96.677C603.553 103.267 605.507 109.709 609.168 115.189C612.829 120.668 618.033 124.939 624.122 127.461C630.21 129.983 636.91 130.642 643.373 129.357C649.837 128.071 655.774 124.898 660.434 120.238C665.093 115.578 668.267 109.641 669.552 103.177C670.838 96.714 670.178 90.0144 667.656 83.926C665.135 77.8375 660.864 72.6337 655.384 68.9724C649.905 65.3112 643.463 63.357 636.873 63.357C628.036 63.357 619.561 66.8675 613.312 73.1162C607.063 79.3649 603.553 87.84 603.553 96.677ZM621.31 96.677C621.308 93.5963 622.22 90.5842 623.931 88.0219C625.641 85.4595 628.073 83.4621 630.919 82.2822C633.765 81.1024 636.897 80.7932 639.918 81.3937C642.94 81.9943 645.715 83.4776 647.894 85.656C650.072 87.8344 651.555 90.61 652.156 93.6316C652.757 96.6532 652.447 99.7851 651.268 102.631C650.088 105.477 648.09 107.909 645.528 109.619C642.966 111.329 639.953 112.241 636.873 112.239C632.748 112.234 628.793 110.593 625.878 107.675C622.962 104.757 621.323 100.802 621.32 96.677H621.31Z" fill="#EBEBEB"/>
<path d="M630.473 64.729H643.281L642.576 55.664H631.178L630.473 64.729Z" fill="#EBEBEB"/>
<path d="M654.865 69.0508L663.92 78.1158L669.84 71.197L661.774 63.1316L654.865 69.0508Z" fill="#EBEBEB"/>
<path d="M669.057 89.3564V102.165L678.131 101.459V90.062L669.057 89.3564Z" fill="#EBEBEB"/>
<path d="M664.745 113.749L655.68 122.804L662.598 128.723L670.654 120.658L664.745 113.749Z" fill="#EBEBEB"/>
<path d="M644.44 127.939H631.621L632.336 137.014H643.734L644.44 127.939Z" fill="#EBEBEB"/>
<path d="M620.047 123.627L610.982 114.562L605.072 121.481L613.128 129.536L620.047 123.627Z" fill="#EBEBEB"/>
<path d="M605.846 103.321V90.503L596.781 91.2184V102.616L605.846 103.321Z" fill="#EBEBEB"/>
<path d="M610.167 78.9292L619.232 69.8642L612.313 63.9548L604.258 72.0104L610.167 78.9292Z" fill="#EBEBEB"/>
<path d="M643.576 421.625H642.596V298.322L642.684 298.185L668.791 262.562V195.755H669.771V262.885L669.673 263.012L643.576 298.635V421.625Z" fill="#EBEBEB"/>
<path d="M669.281 196.284C668.722 196.286 668.175 196.122 667.71 195.813C667.244 195.503 666.881 195.063 666.666 194.546C666.451 194.03 666.394 193.462 666.503 192.914C666.612 192.365 666.881 191.861 667.276 191.466C667.671 191.071 668.175 190.802 668.723 190.693C669.272 190.585 669.84 190.641 670.356 190.856C670.872 191.071 671.313 191.434 671.622 191.9C671.932 192.366 672.096 192.913 672.094 193.472C672.091 194.217 671.794 194.931 671.267 195.458C670.74 195.984 670.027 196.282 669.281 196.284ZM669.281 191.629C668.917 191.627 668.559 191.734 668.255 191.935C667.951 192.136 667.713 192.423 667.572 192.76C667.431 193.096 667.393 193.467 667.463 193.825C667.533 194.183 667.708 194.512 667.965 194.771C668.223 195.03 668.551 195.206 668.909 195.278C669.266 195.35 669.637 195.314 669.974 195.175C670.312 195.036 670.6 194.799 670.803 194.496C671.006 194.193 671.114 193.836 671.114 193.472C671.114 192.985 670.921 192.518 670.578 192.172C670.234 191.827 669.768 191.632 669.281 191.629Z" fill="#EBEBEB"/>
<path d="M650.318 421.625H649.338V302.634L649.436 302.506L675.533 266.883V220.255H676.513V267.207L676.425 267.334L650.318 302.957V421.625Z" fill="#EBEBEB"/>
<path d="M676.024 220.784C675.465 220.784 674.919 220.618 674.455 220.308C673.99 219.997 673.628 219.556 673.415 219.04C673.202 218.523 673.146 217.955 673.256 217.408C673.366 216.86 673.636 216.357 674.031 215.963C674.427 215.568 674.931 215.3 675.479 215.192C676.027 215.085 676.595 215.142 677.11 215.357C677.626 215.572 678.066 215.935 678.375 216.401C678.684 216.866 678.848 217.413 678.846 217.972C678.843 218.718 678.545 219.434 678.016 219.961C677.487 220.488 676.77 220.784 676.024 220.784ZM676.024 216.129C675.659 216.129 675.303 216.237 675 216.44C674.697 216.642 674.461 216.93 674.321 217.267C674.182 217.603 674.145 217.974 674.217 218.331C674.288 218.688 674.463 219.017 674.721 219.274C674.978 219.532 675.307 219.708 675.664 219.779C676.022 219.85 676.392 219.813 676.729 219.674C677.065 219.534 677.353 219.298 677.555 218.995C677.758 218.692 677.866 218.336 677.866 217.972C677.866 217.483 677.672 217.014 677.326 216.669C676.981 216.323 676.512 216.129 676.024 216.129Z" fill="#EBEBEB"/>
<path d="M637.068 258.544H636.088V421.625H637.068V258.544Z" fill="#EBEBEB"/>
<path d="M636.578 259.034C636.02 259.034 635.474 258.868 635.009 258.557C634.545 258.247 634.183 257.805 633.97 257.289C633.756 256.773 633.701 256.205 633.811 255.657C633.921 255.109 634.19 254.606 634.586 254.212C634.982 253.818 635.486 253.55 636.034 253.442C636.582 253.334 637.15 253.391 637.665 253.607C638.181 253.822 638.621 254.185 638.93 254.65C639.239 255.116 639.403 255.662 639.401 256.221C639.398 256.968 639.1 257.683 638.571 258.21C638.042 258.738 637.325 259.034 636.578 259.034ZM636.578 254.379C636.214 254.379 635.858 254.487 635.555 254.689C635.252 254.892 635.016 255.179 634.876 255.516C634.737 255.853 634.7 256.223 634.771 256.58C634.842 256.938 635.018 257.266 635.275 257.524C635.533 257.781 635.861 257.957 636.219 258.028C636.576 258.099 636.947 258.063 637.283 257.923C637.62 257.784 637.908 257.548 638.11 257.245C638.313 256.942 638.421 256.585 638.421 256.221C638.421 255.732 638.227 255.264 637.881 254.918C637.535 254.573 637.067 254.379 636.578 254.379Z" fill="#EBEBEB"/>
<path d="M630.816 421.625H629.836V338.864L612.049 305.319V245.059H613.029V305.074L630.816 338.619V421.625Z" fill="#EBEBEB"/>
<path d="M612.5 245.549C611.941 245.549 611.395 245.383 610.931 245.072C610.467 244.762 610.105 244.32 609.892 243.804C609.678 243.288 609.623 242.72 609.733 242.172C609.842 241.624 610.112 241.121 610.508 240.727C610.904 240.333 611.407 240.065 611.956 239.957C612.504 239.849 613.071 239.906 613.587 240.122C614.103 240.337 614.543 240.7 614.852 241.165C615.161 241.631 615.324 242.178 615.323 242.736C615.323 243.106 615.249 243.473 615.108 243.815C614.966 244.157 614.758 244.467 614.495 244.728C614.233 244.99 613.922 245.197 613.579 245.337C613.237 245.478 612.87 245.55 612.5 245.549ZM612.5 240.894C612.136 240.894 611.78 241.002 611.477 241.204C611.174 241.407 610.937 241.694 610.798 242.031C610.659 242.368 610.622 242.738 610.693 243.096C610.764 243.453 610.94 243.781 611.197 244.039C611.455 244.297 611.783 244.472 612.141 244.543C612.498 244.614 612.869 244.578 613.205 244.438C613.542 244.299 613.83 244.063 614.032 243.76C614.234 243.457 614.343 243.101 614.343 242.736C614.343 242.247 614.148 241.779 613.803 241.433C613.457 241.088 612.989 240.894 612.5 240.894Z" fill="#EBEBEB"/>
<path d="M624.593 421.625H623.613V342.461L602.641 305.378V265.639H603.621V305.113L624.593 342.196V421.625Z" fill="#EBEBEB"/>
<path d="M603.131 266.129C602.573 266.129 602.027 265.963 601.563 265.653C601.099 265.343 600.737 264.902 600.523 264.386C600.31 263.871 600.254 263.303 600.363 262.756C600.472 262.208 600.74 261.705 601.135 261.311C601.53 260.916 602.033 260.647 602.58 260.538C603.128 260.429 603.695 260.485 604.211 260.699C604.727 260.912 605.168 261.274 605.478 261.738C605.788 262.203 605.953 262.748 605.953 263.306C605.953 264.055 605.656 264.773 605.127 265.302C604.597 265.831 603.88 266.129 603.131 266.129ZM603.131 261.474C602.766 261.474 602.41 261.582 602.106 261.785C601.803 261.988 601.567 262.276 601.428 262.613C601.289 262.951 601.253 263.322 601.325 263.679C601.397 264.037 601.573 264.365 601.832 264.622C602.09 264.88 602.42 265.054 602.778 265.124C603.136 265.194 603.506 265.156 603.843 265.016C604.179 264.875 604.466 264.637 604.668 264.333C604.869 264.028 604.975 263.671 604.973 263.306C604.973 263.065 604.926 262.826 604.833 262.603C604.74 262.38 604.604 262.177 604.433 262.007C604.262 261.837 604.059 261.702 603.835 261.61C603.612 261.519 603.372 261.473 603.131 261.474Z" fill="#EBEBEB"/>
<path d="M92.4059 421.625H91.4259V357.435L65.2305 321.685V283.955H66.2105V321.362L92.4059 357.122V421.625Z" fill="#EBEBEB"/>
<path d="M65.7189 284.484C65.1602 284.484 64.6142 284.318 64.1498 284.008C63.6855 283.697 63.3237 283.256 63.1104 282.74C62.8971 282.223 62.8417 281.655 62.9514 281.108C63.0611 280.56 63.3309 280.057 63.7266 279.663C64.1223 279.268 64.6261 279 65.1743 278.893C65.7224 278.785 66.2902 278.842 66.8058 279.057C67.3213 279.272 67.7614 279.636 68.0704 280.101C68.3793 280.566 68.5432 281.113 68.5413 281.672C68.5387 282.419 68.2402 283.134 67.7112 283.661C67.1821 284.188 66.4657 284.484 65.7189 284.484ZM65.7189 279.829C65.3545 279.829 64.9983 279.937 64.6953 280.14C64.3923 280.342 64.1562 280.63 64.0167 280.967C63.8773 281.303 63.8408 281.674 63.9119 282.031C63.983 282.388 64.1584 282.717 64.4161 282.974C64.6738 283.232 65.002 283.408 65.3594 283.479C65.7168 283.55 66.0873 283.513 66.4239 283.374C66.7606 283.234 67.0483 282.998 67.2508 282.695C67.4532 282.392 67.5613 282.036 67.5613 281.672C67.5613 281.183 67.3672 280.714 67.0216 280.369C66.6761 280.023 66.2075 279.829 65.7189 279.829Z" fill="#EBEBEB"/>
<path d="M85.6617 421.625H84.6817V361.757L58.4863 326.007V308.455H59.4663V325.683L85.6617 361.434V421.625Z" fill="#EBEBEB"/>
<path d="M58.9767 308.984C58.4177 308.986 57.8706 308.822 57.405 308.513C56.9394 308.203 56.5761 307.763 56.3612 307.246C56.1464 306.73 56.0897 306.162 56.1983 305.614C56.3069 305.065 56.5759 304.561 56.9712 304.166C57.3665 303.771 57.8703 303.502 58.4187 303.393C58.9671 303.285 59.5354 303.341 60.0515 303.556C60.5677 303.771 61.0084 304.134 61.3177 304.6C61.6271 305.066 61.7913 305.613 61.7893 306.172C61.7867 306.917 61.4896 307.631 60.9627 308.158C60.4358 308.685 59.7219 308.982 58.9767 308.984ZM58.9767 304.329C58.6119 304.327 58.2547 304.434 57.9505 304.635C57.6462 304.836 57.4085 305.123 57.2676 305.46C57.1266 305.796 57.0888 306.167 57.1587 306.525C57.2287 306.883 57.4034 307.212 57.6607 307.471C57.9179 307.73 58.2462 307.906 58.6039 307.978C58.9615 308.05 59.3325 308.014 59.6697 307.875C60.0069 307.736 60.2952 307.499 60.4981 307.196C60.701 306.893 60.8093 306.536 60.8093 306.172C60.8093 305.685 60.6166 305.218 60.2732 304.872C59.9298 304.527 59.4636 304.332 58.9767 304.329Z" fill="#EBEBEB"/>
<path d="M98.9116 317.344H97.9316V421.625H98.9116V317.344Z" fill="#EBEBEB"/>
<path d="M98.422 317.834C97.863 317.836 97.3159 317.671 96.8503 317.362C96.3847 317.053 96.0214 316.612 95.8066 316.096C95.5917 315.58 95.535 315.011 95.6436 314.463C95.7522 313.915 96.0212 313.411 96.4165 313.016C96.8118 312.62 97.3156 312.351 97.864 312.243C98.4124 312.134 98.9807 312.191 99.4968 312.406C100.013 312.62 100.454 312.984 100.763 313.449C101.072 313.915 101.237 314.462 101.235 315.021C101.232 315.766 100.935 316.48 100.408 317.007C99.8811 317.534 99.1672 317.831 98.422 317.834ZM98.422 313.179C98.0572 313.177 97.7001 313.283 97.3958 313.484C97.0915 313.686 96.8538 313.973 96.7129 314.309C96.5719 314.646 96.5341 315.016 96.604 315.374C96.674 315.732 96.8487 316.062 97.106 316.32C97.3633 316.579 97.6915 316.755 98.0492 316.827C98.4068 316.899 98.7778 316.863 99.115 316.724C99.4522 316.585 99.7405 316.349 99.9434 316.046C100.146 315.742 100.255 315.386 100.255 315.021C100.255 314.534 100.062 314.067 99.7185 313.722C99.3751 313.376 98.909 313.181 98.422 313.179Z" fill="#EBEBEB"/>
<path d="M105.164 421.625H104.184V368.019L104.242 367.912L121.971 334.474V274.459H122.951V334.719L122.892 334.827L105.164 368.264V421.625Z" fill="#EBEBEB"/>
<path d="M122.5 274.949C121.941 274.951 121.394 274.787 120.928 274.477C120.463 274.168 120.1 273.727 119.885 273.211C119.67 272.695 119.613 272.127 119.722 271.578C119.83 271.03 120.099 270.526 120.495 270.131C120.89 269.735 121.394 269.466 121.942 269.358C122.491 269.249 123.059 269.306 123.575 269.521C124.091 269.736 124.532 270.099 124.841 270.564C125.151 271.03 125.315 271.577 125.313 272.136C125.31 272.881 125.013 273.595 124.486 274.122C123.959 274.649 123.245 274.946 122.5 274.949ZM122.5 270.294C122.135 270.292 121.778 270.398 121.474 270.6C121.17 270.801 120.932 271.088 120.791 271.424C120.65 271.761 120.612 272.132 120.682 272.49C120.752 272.848 120.927 273.177 121.184 273.435C121.441 273.694 121.77 273.871 122.127 273.942C122.485 274.014 122.856 273.978 123.193 273.839C123.53 273.7 123.819 273.464 124.022 273.161C124.224 272.858 124.333 272.501 124.333 272.136C124.33 271.65 124.137 271.184 123.794 270.84C123.451 270.495 122.986 270.299 122.5 270.294Z" fill="#EBEBEB"/>
<path d="M111.386 421.625H110.406V371.596L110.465 371.489L131.378 334.513V295.039H132.358V334.778L132.29 334.886L111.386 371.861V421.625Z" fill="#EBEBEB"/>
<path d="M131.869 295.529C131.311 295.531 130.764 295.367 130.299 295.058C129.833 294.749 129.47 294.309 129.255 293.793C129.04 293.278 128.982 292.71 129.09 292.162C129.198 291.614 129.466 291.11 129.86 290.714C130.255 290.318 130.758 290.049 131.305 289.939C131.853 289.829 132.421 289.885 132.937 290.098C133.454 290.311 133.895 290.673 134.206 291.137C134.516 291.602 134.682 292.148 134.682 292.706C134.682 293.453 134.386 294.17 133.859 294.699C133.332 295.228 132.616 295.526 131.869 295.529ZM131.869 290.874C131.504 290.872 131.147 290.979 130.842 291.18C130.538 291.382 130.3 291.67 130.159 292.007C130.019 292.344 129.981 292.715 130.052 293.073C130.123 293.432 130.299 293.761 130.557 294.019C130.815 294.277 131.144 294.453 131.502 294.524C131.861 294.594 132.232 294.557 132.569 294.416C132.906 294.276 133.194 294.038 133.396 293.734C133.597 293.429 133.704 293.072 133.702 292.706C133.699 292.221 133.505 291.757 133.162 291.413C132.819 291.07 132.355 290.876 131.869 290.874Z" fill="#EBEBEB"/>
<path d="M49.7051 421.135L129.154 420.9L208.602 420.812L367.499 420.655L526.397 420.812L605.845 420.9L685.294 421.135L605.845 421.38L526.397 421.469L367.499 421.625L208.602 421.459L129.154 421.38L49.7051 421.135Z" fill="#263238"/>
<path d="M95.5116 336.757C88.4066 322.155 75.9802 314.668 61.976 318.804C47.9718 322.939 45.806 342.481 56.2528 347.41C66.6996 352.339 77.166 337.943 82.7128 334.984C88.2596 332.024 95.5116 336.757 95.5116 336.757Z" fill="#EFDF18"/>
<path d="M102.382 375.614C102.382 373.85 102.284 372.096 102.215 370.332C102.098 366.824 101.98 363.306 101.843 359.797C101.608 353.368 100.863 347.057 98.2561 341.177C95.8996 335.808 91.9699 331.281 86.9861 328.192C85.1493 327.083 83.1716 326.226 81.1061 325.644C79.2344 323.741 76.8519 322.421 74.2461 321.842C70.9997 321.182 67.6625 321.099 64.3873 321.597C64.2697 321.597 64.2795 321.793 64.3873 321.783C67.5072 321.38 70.6764 321.606 73.7071 322.449C74.991 322.793 76.2357 323.27 77.4213 323.87C78.1788 324.274 78.9059 324.733 79.5969 325.242C76.7684 324.659 73.8477 324.689 71.0317 325.331C70.0269 325.577 69.0436 325.905 68.0917 326.311C67.3266 326.14 66.5424 326.071 65.7593 326.105C64.7367 326.139 63.721 326.287 62.7311 326.546C60.7031 327.11 58.7636 327.955 56.9687 329.055C56.8609 329.113 56.9687 329.27 57.0667 329.211C58.8316 328.249 60.7214 327.537 62.6821 327.095C63.6499 326.879 64.6328 326.738 65.6221 326.673C66.1607 326.644 66.7005 326.644 67.2391 326.673C63.2464 328.517 60.0351 331.714 58.1741 335.699C58.1251 335.807 58.2917 335.895 58.3407 335.787C59.445 333.476 61.0566 331.444 63.0554 329.842C65.0543 328.24 67.3888 327.11 69.8851 326.536C70.1889 326.458 70.5025 326.418 70.8651 326.36C70.7924 326.827 70.7434 327.298 70.7181 327.771C70.6201 328.476 70.5025 329.182 70.3653 329.888C70.0181 331.344 69.5795 332.778 69.0521 334.18C68.5836 335.599 68.0172 336.984 67.3567 338.325C66.7254 339.744 65.9329 341.086 64.9949 342.324C64.9067 342.422 65.0635 342.539 65.1419 342.432C65.9847 341.109 66.9549 339.893 67.7291 338.512C68.4634 337.202 69.0989 335.839 69.6303 334.435C70.1624 333.01 70.5786 331.545 70.8749 330.054C71.0317 329.27 71.1493 328.476 71.2473 327.683C71.3355 327.204 71.3651 326.717 71.3355 326.232C72.9805 325.984 74.6507 325.951 76.3041 326.134C75.6867 329.613 75.0203 333.239 73.0603 336.267C73.0015 336.365 73.1681 336.463 73.2269 336.356C74.142 334.752 74.9475 333.089 75.6377 331.377C76.2787 329.714 76.6812 327.969 76.8333 326.193C79.7246 326.578 82.5155 327.513 85.0555 328.947C89.856 331.726 93.6899 335.908 96.0413 340.932C98.5151 346.331 99.894 352.167 100.099 358.102C100.569 365.56 100.667 373.066 101.412 380.505C101.412 380.995 102.225 381.151 102.323 380.603C102.504 378.946 102.524 377.275 102.382 375.614Z" fill="#263238"/>
<path d="M85.9758 326.987C85.5048 326.421 84.9611 325.92 84.3588 325.497C83.7813 325.01 83.1795 324.552 82.5556 324.125C81.3234 323.281 79.9587 322.648 78.518 322.253C78.4102 322.253 78.3612 322.41 78.518 322.43C79.9648 322.803 81.3192 323.47 82.4968 324.39C83.0922 324.824 83.6647 325.288 84.2118 325.781C84.7111 326.294 85.2593 326.757 85.8484 327.163C85.8702 327.165 85.8921 327.161 85.9119 327.152C85.9317 327.143 85.9489 327.128 85.9617 327.111C85.9745 327.093 85.9825 327.072 85.985 327.051C85.9874 327.029 85.9843 327.007 85.9758 326.987Z" fill="#263238"/>
<path d="M63.309 332.279C62.1333 333.642 61.0466 335.079 60.0554 336.581C59.0812 338.097 58.2667 339.709 57.625 341.393C57.625 341.442 57.6936 341.471 57.7132 341.393C59.3369 338.214 61.2564 335.195 63.4462 332.377C63.5148 332.308 63.3874 332.22 63.309 332.279Z" fill="#263238"/>
<path d="M78.5876 330.828C78.4336 331.741 78.1636 332.63 77.784 333.474C77.3976 334.289 76.9487 335.072 76.4414 335.817C76.4336 335.827 76.4303 335.84 76.4321 335.853C76.434 335.866 76.4408 335.877 76.4512 335.885C76.4616 335.893 76.4747 335.896 76.4876 335.895C76.5004 335.893 76.512 335.886 76.5198 335.875C77.7462 334.467 78.5303 332.729 78.7738 330.877C78.7836 330.76 78.6072 330.711 78.5876 330.828Z" fill="#263238"/>
<path d="M101.391 337.12C101.391 337.12 111.445 324.478 130.859 328.957C149.303 333.22 157.819 367.039 139.179 371.097C120.54 375.154 123.823 343.843 117.031 338.531C112.043 334.621 104.86 335.464 101.391 337.12Z" fill="#EFDF18"/>
<path d="M145.844 347.43C144.58 346.32 143.245 345.295 141.845 344.362C140.528 343.463 139.093 342.747 137.582 342.236C136.827 341.086 135.982 339.998 135.054 338.982C133.338 337.142 131.356 335.57 129.174 334.317C129.366 334.307 129.559 334.307 129.752 334.317C130.777 334.263 131.804 334.263 132.829 334.317C134.901 334.452 136.932 334.957 138.827 335.807C138.838 335.812 138.85 335.815 138.862 335.815C138.874 335.816 138.886 335.814 138.897 335.81C138.909 335.806 138.919 335.8 138.928 335.792C138.937 335.783 138.944 335.774 138.949 335.763C138.955 335.752 138.957 335.74 138.958 335.728C138.959 335.716 138.957 335.704 138.953 335.692C138.949 335.681 138.942 335.67 138.934 335.662C138.926 335.653 138.916 335.645 138.905 335.64C136.986 334.81 134.976 334.205 132.917 333.837C131.918 333.656 130.905 333.567 129.889 333.572C129.35 333.572 128.801 333.621 128.262 333.67H127.949C126.17 332.77 124.292 332.079 122.353 331.612L122.892 331.465C123.843 331.255 124.805 331.098 125.773 330.995C127.703 330.769 129.653 330.799 131.575 331.083C131.692 331.083 131.732 330.917 131.575 330.897C129.624 330.661 127.658 330.583 125.695 330.662C124.045 330.704 122.403 330.915 120.795 331.289C119.626 331.076 118.444 330.942 117.257 330.887C110.485 330.603 103.106 333.131 98.9409 338.727C94.7759 344.323 94.0801 351.712 93.3157 358.425C92.1764 367.782 91.927 377.226 92.5709 386.63C92.5709 387.188 93.3941 387.09 93.4137 386.561C93.6685 378.584 93.9429 370.607 94.7073 362.659C95.0601 358.974 95.4521 355.279 96.0695 351.634C96.5103 348.494 97.4118 345.436 98.7449 342.559C100.181 339.616 102.459 337.167 105.291 335.523C108.135 333.895 111.305 332.917 114.572 332.661C117.499 332.417 120.445 332.696 123.274 333.484C123.174 334.05 123.158 334.628 123.225 335.199C123.291 335.919 123.435 336.628 123.656 337.316C123.867 337.968 124.139 338.598 124.47 339.198C124.823 339.864 125.273 340.462 125.675 341.099C125.744 341.197 125.901 341.099 125.832 340.991C125.035 339.854 124.518 338.544 124.323 337.169C124.207 336.521 124.128 335.866 124.088 335.209C124.088 334.709 124.088 334.229 124.088 333.71C127.167 334.651 130.04 336.167 132.555 338.178C133.035 338.561 133.535 338.962 133.937 339.364C133.296 339.961 132.742 340.643 132.29 341.393C131.619 342.358 131.042 343.385 130.565 344.46C129.668 346.621 129.062 348.892 128.762 351.212C128.762 351.33 128.929 351.369 128.948 351.212C129.307 348.968 130.053 346.802 131.153 344.813C131.667 343.83 132.244 342.881 132.878 341.971C133.202 341.501 133.545 340.991 133.858 340.589C134.044 340.354 134.25 340.109 134.436 339.844C136.719 342.08 138.584 344.705 139.944 347.596C139.024 348.565 138.257 349.669 137.67 350.869C136.973 352.132 136.364 353.442 135.848 354.789C134.915 357.376 134.143 360.017 133.535 362.698C133.535 362.816 133.692 362.855 133.721 362.698C134.302 359.994 135.228 357.376 136.475 354.907C137.053 353.682 137.661 352.486 138.307 351.31C138.982 350.214 139.591 349.079 140.13 347.91C141.424 350.744 142.175 353.795 142.345 356.906C142.345 357.024 142.541 357.004 142.531 356.906C142.173 352.037 140.683 347.319 138.18 343.127C139.366 343.637 140.561 344.107 141.698 344.735C143.16 345.506 144.517 346.461 145.736 347.577C145.814 347.655 145.942 347.508 145.844 347.43Z" fill="#263238"/>
<path d="M143.914 343.392C143.151 342.656 142.282 342.038 141.336 341.559C140.388 341.127 139.404 340.776 138.396 340.511C138.279 340.511 138.24 340.658 138.396 340.687C139.399 340.949 140.361 341.345 141.258 341.863C142.176 342.345 143.06 342.888 143.904 343.49C143.913 343.485 143.92 343.479 143.926 343.471C143.931 343.463 143.934 343.453 143.935 343.444C143.936 343.434 143.935 343.424 143.931 343.415C143.927 343.406 143.921 343.398 143.914 343.392Z" fill="#263238"/>
<path d="M110.957 320.235C110.957 320.235 112.809 297.538 129.685 290.178C143.787 284.033 151.852 299.87 141.886 309.562C133.83 317.402 120.904 313.865 110.957 320.235Z" fill="#EFDF18"/>
<path d="M138.769 294.568C136.201 295.609 133.694 296.796 131.263 298.126C129.221 299.305 127.257 300.615 125.383 302.046C125.667 301.468 125.902 300.87 126.186 300.311C126.622 299.431 127.103 298.574 127.627 297.744C128.66 296.024 129.909 294.444 131.341 293.04C131.429 292.951 131.341 292.824 131.204 292.912C129.775 294.319 128.464 295.839 127.284 297.459C126.7 298.288 126.163 299.148 125.677 300.037C125.177 300.848 124.794 301.725 124.54 302.644L124.354 302.781C121.409 305.113 118.71 307.74 116.298 310.621C116.298 310.395 116.386 310.18 116.445 309.974C116.768 308.867 117.102 307.769 117.474 306.671C118.195 304.339 119.22 302.112 120.522 300.047C120.59 299.949 120.424 299.86 120.355 299.958C119.031 302.027 117.852 304.185 116.827 306.417C116.356 307.507 115.966 308.63 115.661 309.778C115.412 310.518 115.228 311.279 115.112 312.052C114.377 312.983 113.652 313.923 112.966 314.894C105.724 325.213 102.088 337.688 101.206 350.174C100.948 353.895 100.886 357.627 101.02 361.355C101.037 365.12 101.365 368.876 102 372.586C102 372.821 102.411 372.743 102.402 372.518C102.323 369.235 101.98 365.971 101.912 362.718C101.843 359.464 101.97 356.132 102.235 352.859C102.765 346.307 103.997 339.832 105.91 333.543C107.872 327.104 110.764 320.987 114.495 315.384C115.21 315.237 115.916 315.041 116.612 314.864C117.454 314.649 118.297 314.433 119.14 314.198C120.761 313.78 122.337 313.202 123.844 312.473C123.952 312.414 123.844 312.257 123.746 312.316C122.258 313.128 120.645 313.684 118.973 313.963C117.65 314.227 116.278 314.394 114.955 314.698C116.172 312.913 117.481 311.192 118.875 309.543C122.094 309.834 125.339 309.592 128.479 308.827C130.145 308.423 131.782 307.909 133.379 307.289C135.075 306.642 136.672 305.809 138.338 305.103C138.36 305.093 138.377 305.074 138.386 305.051C138.394 305.028 138.393 305.003 138.382 304.981C138.372 304.959 138.353 304.942 138.33 304.933C138.307 304.925 138.282 304.926 138.26 304.937C135.24 306.59 131.941 307.67 128.528 308.122C125.518 308.608 122.474 308.86 119.424 308.876C120.62 307.504 121.864 306.162 123.187 304.956C127.617 300.733 132.88 296.852 138.72 294.833C138.936 294.706 138.877 294.529 138.769 294.568Z" fill="#263238"/>
<path d="M125.03 294.647C124.269 295.602 123.578 296.61 122.962 297.665C122.332 298.78 121.832 299.964 121.473 301.193C121.473 301.193 121.473 301.252 121.541 301.193C122.1 300.086 122.58 298.929 123.148 297.822C123.707 296.729 124.384 295.7 125.167 294.755C125.246 294.676 125.108 294.549 125.03 294.647Z" fill="#263238"/>
<path d="M140.728 302.203C139.627 302.805 138.464 303.288 137.259 303.643C136.105 304.033 134.93 304.36 133.741 304.623C133.682 304.623 133.741 304.731 133.741 304.721C134.985 304.587 136.211 304.317 137.396 303.918C138.563 303.478 139.702 302.968 140.807 302.389C140.924 302.31 140.826 302.144 140.728 302.203Z" fill="#263238"/>
<path d="M97.8345 316.148C97.7267 317.128 95.2767 307.906 81.0079 299.723C68.0425 292.285 52.5879 272.94 65.3279 260.719C75.5395 250.88 102.568 272.362 97.8345 316.148Z" fill="#EFDF18"/>
<path d="M107.654 369.029C107.444 359.429 106.688 349.849 105.39 340.334C104.263 331.589 102.244 322.982 99.3631 314.649C98.2917 311.65 97.0928 308.71 95.7665 305.829C95.8403 304.699 95.8206 303.565 95.7077 302.438C95.6391 300.978 95.5117 299.498 95.3745 298.077C95.2373 296.656 95.0903 295.186 94.9237 293.735C94.7571 292.285 94.4435 290.854 94.3847 289.414C94.3896 289.399 94.3909 289.383 94.3885 289.368C94.3861 289.353 94.3801 289.338 94.371 289.326C94.3619 289.313 94.35 289.303 94.3362 289.296C94.3224 289.289 94.3071 289.285 94.2916 289.285C94.2761 289.285 94.2609 289.289 94.2471 289.296C94.2333 289.303 94.2213 289.313 94.2123 289.326C94.2032 289.338 94.1972 289.353 94.1948 289.368C94.1924 289.383 94.1937 289.399 94.1985 289.414C94.4892 290.927 94.6628 292.46 94.7179 294C94.8257 295.401 94.9041 296.803 94.9433 298.204C94.9825 299.606 94.9433 301.017 94.9433 302.418C94.9433 302.928 94.9433 303.467 94.9433 304.006C93.6007 301.174 92.1699 298.381 90.6117 295.656C91.5917 289.776 90.3177 283.553 89.1123 277.771C89.1123 277.654 88.9065 277.712 88.9359 277.83C89.5414 280.848 89.8694 283.915 89.9159 286.993C89.9159 289.423 89.8571 291.893 89.8473 294.284C89.5043 293.706 89.1613 293.118 88.8085 292.55C86.9661 289.525 85.0061 286.585 82.9285 283.73C83.1037 282.326 83.0574 280.904 82.7913 279.516C82.5775 277.955 82.25 276.412 81.8113 274.9C81.3507 273.391 80.8313 271.96 80.2237 270.451C79.6161 268.941 78.7831 267.511 78.1951 266.021C78.1363 265.894 77.9501 266.021 78.0187 266.099C78.7836 267.52 79.3852 269.022 79.8121 270.578C80.28 272.036 80.6692 273.518 80.9783 275.017C81.2821 276.517 81.5271 278.026 81.7329 279.535C81.8799 280.515 81.9681 281.583 82.1347 282.603C79.0836 278.495 75.7466 274.608 72.1485 270.97C72.0603 270.882 71.9427 271.019 72.0211 271.107C77.4581 277.222 82.3138 283.829 86.5251 290.844L86.9857 291.638C86.2017 291.148 85.3001 290.756 84.5553 290.345C83.0657 289.515 81.6317 288.737 80.2531 288.012C78.8746 287.287 77.5255 286.549 76.2057 285.797C75.5099 285.415 74.8337 285.013 74.1281 284.651C73.2853 284.271 72.4756 283.822 71.7075 283.308C71.5997 283.23 71.4821 283.396 71.5997 283.455C72.9717 284.21 74.1869 285.337 75.5197 286.18C76.8525 287.022 78.2147 287.855 79.5965 288.63C82.1347 290.041 84.8885 291.06 87.4365 292.55C89.1744 295.588 90.7751 298.694 92.2385 301.869C90.7195 300.889 89.1809 299.968 87.6031 299.096C86.6231 298.528 85.5843 297.969 84.5553 297.43C83.5331 296.957 82.5667 296.372 81.6741 295.686C81.5859 295.617 81.4683 295.744 81.5467 295.823C83.2082 297.32 85.0522 298.6 87.0347 299.635C88.8673 300.713 90.7195 301.742 92.6305 302.683C94.1528 306.028 95.5281 309.432 96.7563 312.894C102.764 329.907 104.969 347.959 106.027 365.893C106.341 371.244 106.498 376.585 106.566 381.935C106.635 387.286 106.351 392.627 106.36 397.968C106.36 398.125 106.625 398.164 106.645 397.968C107.291 393.235 107.399 388.413 107.625 383.631C107.85 378.848 107.801 373.89 107.654 369.029Z" fill="#263238"/>
<path d="M81.7239 292.04C79.1183 290.888 76.5853 289.579 74.1387 288.12C71.6588 286.727 69.2574 285.2 66.9455 283.543C66.9455 283.543 66.8573 283.543 66.9455 283.612C69.1169 285.38 71.4091 286.994 73.8054 288.443C76.3363 289.863 78.9549 291.12 81.6454 292.207C81.7434 292.236 81.8317 292.04 81.7239 292.04Z" fill="#263238"/>
<path d="M85.8586 272.803C85.6528 271.97 85.3882 271.156 85.104 270.353C85.1151 270.339 85.1212 270.321 85.1212 270.304C85.1212 270.286 85.1151 270.268 85.104 270.255C84.9276 269.794 84.7316 269.333 84.5454 268.883C84.5277 268.825 84.5047 268.769 84.4768 268.716C84.4768 268.628 84.4082 268.54 84.369 268.451C84.369 268.451 84.4572 268.765 84.5062 268.922C84.5246 269.012 84.5508 269.101 84.5846 269.186C85.526 272.361 86.2335 275.6 86.7014 278.879C86.7074 278.896 86.7187 278.911 86.7336 278.921C86.7485 278.932 86.7664 278.938 86.7847 278.938C86.803 278.938 86.8209 278.932 86.8358 278.921C86.8507 278.911 86.862 278.896 86.868 278.879C86.7224 276.826 86.3844 274.792 85.8586 272.803Z" fill="#263238"/>
<path d="M122.736 372.478L121.717 384.552L118.6 421.371H85.202L82.0856 384.552L81.0664 372.478H122.736Z" fill="#37474F"/>
<path d="M122.736 372.478L121.717 384.552H82.0856L81.0664 372.478H122.736Z" fill="#263238"/>
<path d="M126.009 367.637H77.793V379.221H126.009V367.637Z" fill="#37474F"/>
<path d="M636.677 401.535H98.3145V421.145H636.677V401.535Z" fill="#C7C7C7"/>
<path d="M419.979 401.535H315.021V409.513H419.979V401.535Z" fill="#A6A6A6"/>
<path d="M581.051 115.826H153.947V401.526H581.051V115.826Z" fill="#DBDBDB"/>
<path d="M577.955 119.315H157.055V398.047H577.955V119.315Z" fill="#263238"/>
<path d="M559.307 137.229H175.686V380.132H559.307V137.229Z" fill="white"/>
<path d="M559.307 137.229H175.686V146.579H559.307V137.229Z" fill="#455A64"/>
<path d="M184.485 141.904C184.485 142.255 184.381 142.599 184.185 142.89C183.99 143.182 183.713 143.41 183.388 143.544C183.063 143.678 182.706 143.712 182.362 143.643C182.017 143.574 181.701 143.404 181.454 143.155C181.206 142.906 181.038 142.589 180.97 142.244C180.903 141.899 180.94 141.542 181.075 141.218C181.211 140.894 181.44 140.618 181.733 140.424C182.026 140.231 182.37 140.128 182.721 140.13C182.954 140.13 183.184 140.176 183.398 140.265C183.613 140.355 183.808 140.485 183.972 140.65C184.136 140.815 184.266 141.011 184.354 141.226C184.442 141.441 184.486 141.672 184.485 141.904Z" fill="#C7C7C7"/>
<path d="M191.708 141.904C191.708 142.255 191.603 142.599 191.408 142.89C191.213 143.182 190.935 143.41 190.61 143.544C190.286 143.678 189.929 143.712 189.584 143.643C189.24 143.574 188.924 143.404 188.676 143.155C188.429 142.906 188.26 142.589 188.193 142.244C188.126 141.899 188.162 141.542 188.298 141.218C188.434 140.894 188.663 140.618 188.956 140.424C189.249 140.231 189.593 140.128 189.944 140.13C190.176 140.13 190.406 140.176 190.621 140.265C190.836 140.355 191.031 140.485 191.195 140.65C191.359 140.815 191.488 141.011 191.576 141.226C191.664 141.441 191.709 141.672 191.708 141.904Z" fill="white"/>
<path d="M198.94 141.904C198.94 142.255 198.836 142.599 198.641 142.89C198.445 143.182 198.168 143.41 197.843 143.544C197.518 143.678 197.161 143.712 196.817 143.643C196.472 143.574 196.156 143.404 195.909 143.155C195.661 142.906 195.493 142.589 195.425 142.244C195.358 141.899 195.395 141.542 195.53 141.218C195.666 140.894 195.895 140.618 196.188 140.424C196.481 140.231 196.825 140.128 197.176 140.13C197.409 140.13 197.639 140.176 197.853 140.265C198.068 140.355 198.263 140.485 198.427 140.65C198.591 140.815 198.721 141.011 198.809 141.226C198.897 141.441 198.941 141.672 198.94 141.904Z" fill="#EFDF18"/>
<path d="M553.27 146.579H175.686V198.607H553.27V146.579Z" fill="#EFDF18"/>
<path d="M559.316 146.579H553.279V353.535H559.316V146.579Z" fill="#DBDBDB"/>
<path d="M556.289 218.324C555.875 218.324 555.479 218.16 555.187 217.868C554.895 217.576 554.73 217.179 554.73 216.766V149.342C554.733 148.93 554.898 148.535 555.19 148.243C555.481 147.952 555.876 147.787 556.289 147.784C556.702 147.784 557.098 147.948 557.39 148.24C557.683 148.533 557.847 148.929 557.847 149.342V216.766C557.847 217.179 557.683 217.576 557.39 217.868C557.098 218.16 556.702 218.324 556.289 218.324Z" fill="#A6A6A6"/>
<path d="M536.627 156.673H455.375V167.521H536.627V156.673Z" fill="white"/>
<path d="M536.737 167.629H455.26V156.565H536.737V167.629ZM455.485 167.404H536.512V156.8H455.485V167.404Z" fill="#C7C7C7"/>
<path d="M536.738 156.565H525.664V167.639H536.738V156.565Z" fill="#455A64"/>
<path d="M534.639 165.14L533.659 165.894L531.797 163.444L531.121 162.553C531.261 162.495 531.393 162.419 531.513 162.327C531.739 162.154 531.915 161.924 532.023 161.661L532.748 162.641L534.639 165.14Z" fill="white"/>
<path d="M532.67 159.368C532.353 158.953 531.924 158.638 531.434 158.46C530.945 158.281 530.414 158.246 529.905 158.359C529.395 158.473 528.929 158.729 528.561 159.098C528.193 159.468 527.938 159.935 527.827 160.444C527.715 160.954 527.752 161.484 527.932 161.974C528.113 162.463 528.429 162.891 528.844 163.206C529.26 163.521 529.757 163.711 530.276 163.754C530.796 163.796 531.317 163.689 531.778 163.444C531.915 163.378 532.043 163.296 532.16 163.199C532.376 163.031 532.567 162.833 532.729 162.611C533.066 162.135 533.243 161.564 533.232 160.98C533.222 160.396 533.025 159.831 532.67 159.368ZM531.494 162.308C531.373 162.399 531.242 162.475 531.102 162.533C530.819 162.645 530.51 162.676 530.211 162.622C529.911 162.568 529.633 162.432 529.406 162.229C529.18 162.026 529.014 161.763 528.929 161.471C528.843 161.179 528.841 160.869 528.922 160.575C529.003 160.282 529.164 160.017 529.388 159.81C529.611 159.604 529.888 159.463 530.186 159.405C530.485 159.347 530.794 159.373 531.079 159.48C531.363 159.588 531.612 159.773 531.798 160.014C531.97 160.244 532.08 160.515 532.116 160.801C532.152 161.086 532.113 161.376 532.003 161.641C531.899 161.912 531.723 162.149 531.494 162.327V162.308Z" fill="white"/>
<path d="M458.219 158.809H457.641V165.395H458.219V158.809Z" fill="#C7C7C7"/>
<path d="M441.029 156.673H220.01V167.521H441.029V156.673Z" fill="white"/>
<path d="M441.147 167.629H219.902V156.565H441.147V167.629ZM220.128 167.404H440.922V156.8H220.128V167.404Z" fill="#C7C7C7"/>
<path d="M222.863 158.809H222.285V165.395H222.863V158.809Z" fill="#C7C7C7"/>
<path d="M199.547 165.806L195.598 162.17L199.537 158.388L200.155 159.025L196.891 162.161L200.145 165.159L199.547 165.806Z" fill="white"/>
<path d="M209.074 158.388L213.034 162.023L209.084 165.806L208.477 165.159L211.74 162.033L208.477 159.034L209.074 158.388Z" fill="white"/>
<path d="M325.487 334.65H369.254V288.11H325.487V334.65Z" fill="#EBEBEB"/>
<path d="M331.523 298.292C331.285 299.451 331.426 300.656 331.925 301.728C332.425 302.801 333.257 303.684 334.297 304.246C335.338 304.809 336.532 305.022 337.703 304.853C338.874 304.685 339.96 304.143 340.799 303.31C341.638 302.476 342.187 301.394 342.364 300.225C342.54 299.055 342.336 297.859 341.78 296.815C341.224 295.77 340.347 294.933 339.278 294.426C338.209 293.919 337.005 293.77 335.845 294C334.783 294.212 333.807 294.732 333.038 295.496C332.269 296.259 331.743 297.232 331.523 298.292Z" fill="white"/>
<path d="M369.255 324.625H325.488V334.65H369.255V324.625Z" fill="#DBDBDB"/>
<path d="M339.941 324.664L369.253 324.625L354.612 306.573L339.941 324.664Z" fill="#C7C7C7"/>
<path d="M325.488 324.664H351.517L338.503 312.885L325.488 324.664Z" fill="#DBDBDB"/>
<path d="M193.091 278.879H279.154V212.846H193.091V278.879Z" fill="#EBEBEB"/>
<path d="M201.665 227.291C201.332 228.942 201.539 230.656 202.256 232.179C202.972 233.703 204.161 234.955 205.645 235.751C207.129 236.547 208.829 236.844 210.495 236.598C212.161 236.352 213.703 235.576 214.893 234.386C216.084 233.195 216.86 231.653 217.106 229.987C217.352 228.321 217.055 226.621 216.259 225.137C215.463 223.653 214.211 222.465 212.687 221.748C211.164 221.031 209.45 220.824 207.799 221.157C206.287 221.462 204.897 222.207 203.806 223.298C202.715 224.389 201.97 225.779 201.665 227.291Z" fill="white"/>
<path d="M221.49 264.659H279.153L250.322 229.114L221.49 264.659Z" fill="#C7C7C7"/>
<path d="M193.1 264.659H244.236L218.668 241.511L193.1 264.659Z" fill="#DBDBDB"/>
<path d="M279.163 264.659H193.1V278.888H279.163V264.659Z" fill="#DBDBDB"/>
<path d="M238.082 288.11H192.512V291.942H238.082V288.11Z" fill="#A6A6A6"/>
<path d="M314.581 297.009H192.512V300.84H314.581V297.009Z" fill="#EBEBEB"/>
<path d="M314.581 305.437H192.512V309.268H314.581V305.437Z" fill="#EBEBEB"/>
<path d="M314.581 313.874H192.512V317.706H314.581V313.874Z" fill="#EBEBEB"/>
<path d="M314.581 322.312H192.512V326.144H314.581V322.312Z" fill="#EBEBEB"/>
<path d="M314.581 330.74H192.512V334.572H314.581V330.74Z" fill="#EBEBEB"/>
<path d="M431.465 212.856H383.945V216.688H431.465V212.856Z" fill="#A6A6A6"/>
<path d="M453.143 221.745H383.945V225.576H453.143V221.745Z" fill="#EBEBEB"/>
<path d="M453.143 230.182H383.945V234.014H453.143V230.182Z" fill="#EBEBEB"/>
<path d="M453.143 238.62H383.945V242.452H453.143V238.62Z" fill="#EBEBEB"/>
<path d="M453.143 247.048H383.945V250.88H453.143V247.048Z" fill="#EBEBEB"/>
<path d="M453.143 263.924H383.945V267.756H453.143V263.924Z" fill="#EBEBEB"/>
<path d="M453.143 272.352H383.945V276.184H453.143V272.352Z" fill="#EBEBEB"/>
<path d="M453.143 280.79H383.945V284.621H453.143V280.79Z" fill="#EBEBEB"/>
<path d="M453.143 289.227H383.945V293.059H453.143V289.227Z" fill="#EBEBEB"/>
<path d="M453.143 306.093H383.945V309.925H453.143V306.093Z" fill="#EBEBEB"/>
<path d="M453.143 314.531H383.945V318.363H453.143V314.531Z" fill="#EBEBEB"/>
<path d="M453.143 322.959H383.945V326.791H453.143V322.959Z" fill="#EBEBEB"/>
<path d="M453.143 331.397H383.945V335.229H453.143V331.397Z" fill="#EBEBEB"/>
<path d="M536.737 221.745H467.539V225.576H536.737V221.745Z" fill="#EBEBEB"/>
<path d="M536.737 230.182H467.539V234.014H536.737V230.182Z" fill="#EBEBEB"/>
<path d="M536.737 213.317H467.539V217.148H536.737V213.317Z" fill="#EBEBEB"/>
<path d="M536.737 238.62H467.539V242.452H536.737V238.62Z" fill="#EBEBEB"/>
<path d="M536.737 247.048H467.539V250.88H536.737V247.048Z" fill="#EBEBEB"/>
<path d="M536.737 255.486H467.539V259.318H536.737V255.486Z" fill="#EBEBEB"/>
<path d="M536.737 263.924H467.539V267.756H536.737V263.924Z" fill="#EBEBEB"/>
<path d="M536.737 280.79H467.539V284.621H536.737V280.79Z" fill="#EBEBEB"/>
<path d="M536.737 289.227H467.539V293.059H536.737V289.227Z" fill="#EBEBEB"/>
<path d="M536.737 297.655H467.539V301.487H536.737V297.655Z" fill="#EBEBEB"/>
<path d="M536.737 306.093H467.539V309.925H536.737V306.093Z" fill="#EBEBEB"/>
<path d="M536.737 314.531H467.539V318.363H536.737V314.531Z" fill="#EBEBEB"/>
<path d="M338.111 212.856H292.541V223.117H338.111V212.856Z" fill="#A6A6A6"/>
<path d="M369.265 230.182H292.541V234.014H369.265V230.182Z" fill="#EBEBEB"/>
<path d="M369.265 238.62H292.541V242.452H369.265V238.62Z" fill="#EBEBEB"/>
<path d="M369.265 247.048H292.541V250.88H369.265V247.048Z" fill="#EBEBEB"/>
<path d="M369.265 255.486H292.541V259.318H369.265V255.486Z" fill="#EBEBEB"/>
<path d="M369.265 266.707H292.541V270.539H369.265V266.707Z" fill="#EBEBEB"/>
<path d="M369.265 275.135H292.541V278.967H369.265V275.135Z" fill="#EBEBEB"/>
<path opacity="0.7" d="M559.307 137.229H175.686V380.132H559.307V137.229Z" fill="white"/>
<path d="M387.03 236.18V252.693H381.071V236.18C381.071 228.164 374.985 221.647 367.498 221.647C360.011 221.647 353.925 228.164 353.925 236.18V252.693H347.967V236.18C347.967 224.694 356.728 215.365 367.498 215.365C378.268 215.365 387.03 224.655 387.03 236.18Z" fill="#455A64"/>
<path d="M347.967 237.052L353.915 237.287V252.654H347.967V237.052Z" fill="#263238"/>
<path d="M387.031 238.64V252.654H381.082V238.395L387.031 238.64Z" fill="#263238"/>
<path d="M394.675 240.267H340.334V289.561H394.675V240.267Z" fill="#EFDF18"/>
<path opacity="0.1" d="M394.666 240.267H367.5V289.561H394.666V240.267Z" fill="black"/>
<path d="M369.792 266.717L372.075 277.497H362.422L364.696 266.717C363.803 266.163 363.116 265.333 362.737 264.353C362.358 263.374 362.309 262.297 362.597 261.287C362.885 260.277 363.495 259.388 364.333 258.756C365.171 258.123 366.193 257.781 367.243 257.781C368.294 257.781 369.316 258.123 370.154 258.756C370.992 259.388 371.602 260.277 371.89 261.287C372.178 262.297 372.129 263.374 371.75 264.353C371.372 265.333 370.684 266.163 369.792 266.717Z" fill="#263238"/>
<path d="M367.667 171.569L369.744 176.518L375.095 176.968L371.028 180.477L372.253 185.7L367.667 182.917L363.07 185.7L364.295 180.477L360.238 176.968L365.579 176.518L367.667 171.569Z" fill="#EFDF18"/>
<path d="M326.537 182.505L330.809 185.749L335.66 183.466L333.896 188.532L337.571 192.443L332.211 192.335L329.624 197.039L328.065 191.894L322.803 190.894L327.203 187.827L326.537 182.505Z" fill="#EFDF18"/>
<path d="M296.381 212.542L301.702 213.209L304.76 208.809L305.769 214.071L310.904 215.629L306.21 218.217L306.318 223.577L302.408 219.902L297.341 221.666L299.615 216.815L296.381 212.542Z" fill="#EFDF18"/>
<path d="M285.277 253.624L290.226 251.546L290.677 246.196L294.186 250.263L299.409 249.038L296.626 253.624L299.409 258.22L294.186 256.995L290.677 261.052L290.226 255.711L285.277 253.624Z" fill="#EFDF18"/>
<path d="M296.215 294.755L299.459 290.482L297.175 285.631L302.242 287.385L306.152 283.72L306.044 289.08L310.738 291.668L305.613 293.226L304.604 298.488L301.536 294.088L296.215 294.755Z" fill="#EFDF18"/>
<path d="M326.251 324.909L326.918 319.588L322.518 316.53L327.78 315.521L329.338 310.386L331.926 315.08L337.286 314.972L333.621 318.882L335.375 323.949L330.524 321.675L326.251 324.909Z" fill="#EFDF18"/>
<path d="M367.335 336.013L365.257 331.064L359.906 330.613L363.973 327.104L362.748 321.881L367.335 324.664L371.931 321.881L370.706 327.104L374.763 330.613L369.422 331.064L367.335 336.013Z" fill="#EFDF18"/>
<path d="M408.464 325.076L404.192 321.832L399.341 324.115L401.105 319.049L397.43 315.139L402.79 315.246L405.377 310.542L406.936 315.687L412.198 316.687L407.798 319.754L408.464 325.076Z" fill="#EFDF18"/>
<path d="M438.617 295.039L433.296 294.372L430.238 298.773L429.229 293.51L424.094 291.952L428.788 289.365L428.68 284.004L432.59 287.679L437.657 285.915L435.383 290.766L438.617 295.039Z" fill="#EFDF18"/>
<path d="M449.721 253.957L444.772 256.035L444.322 261.376L440.813 257.319L435.59 258.544L438.373 253.957L435.59 249.361L440.813 250.586L444.322 246.529L444.772 251.87L449.721 253.957Z" fill="#EFDF18"/>
<path d="M438.785 212.827L435.541 217.099L437.825 221.95L432.758 220.186L428.848 223.861L428.956 218.501L424.262 215.914L429.387 214.355L430.396 209.093L433.464 213.493L438.785 212.827Z" fill="#EFDF18"/>
<path d="M408.748 182.672L408.081 187.993L412.481 191.051L407.219 192.06L405.661 197.196L403.073 192.501L397.713 192.609L401.378 188.699L399.624 183.632L404.475 185.906L408.748 182.672Z" fill="#EFDF18"/>
<path d="M599.973 238.532C627.056 238.532 649.012 216.576 649.012 189.493C649.012 162.409 627.056 140.454 599.973 140.454C572.889 140.454 550.934 162.409 550.934 189.493C550.934 216.576 572.889 238.532 599.973 238.532Z" fill="#A6A6A6"/>
<path d="M599.974 243.412C589.314 243.412 578.893 240.251 570.029 234.329C561.165 228.406 554.257 219.988 550.177 210.139C546.098 200.29 545.03 189.453 547.11 178.997C549.19 168.542 554.323 158.937 561.861 151.399C569.399 143.861 579.003 138.728 589.459 136.648C599.914 134.568 610.752 135.636 620.601 139.715C630.45 143.795 638.868 150.703 644.79 159.567C650.713 168.431 653.874 178.852 653.874 189.512C653.853 203.801 648.168 217.499 638.064 227.603C627.961 237.706 614.263 243.392 599.974 243.412ZM599.974 136.592C589.508 136.592 579.276 139.696 570.573 145.511C561.871 151.326 555.088 159.591 551.083 169.261C547.077 178.931 546.029 189.571 548.071 199.837C550.113 210.102 555.153 219.532 562.554 226.933C569.955 234.334 579.385 239.374 589.65 241.416C599.916 243.458 610.556 242.41 620.226 238.404C629.896 234.399 638.161 227.616 643.976 218.913C649.791 210.211 652.894 199.979 652.894 189.512C652.884 175.478 647.306 162.02 637.385 152.093C627.463 142.167 614.009 136.581 599.974 136.563V136.592Z" fill="#A6A6A6"/>
<path d="M594.887 183.26L617.838 160.308H629.04V171.255H621.876V178.674H614.702V186.102H607.274V193.403L606.078 194.599L594.887 183.26Z" fill="#EFDF18"/>
<path opacity="0.3" d="M629.032 160.318V171.255H621.868V178.683H614.704V186.112H607.276V193.403L606.119 194.559L600.455 188.895L629.032 160.318Z" fill="white"/>
<path opacity="0.1" d="M605.766 180.8L604.639 179.663L616.801 167.492L617.918 168.609L605.766 180.8Z" fill="black"/>
<path d="M576.238 213.356C578.78 215.897 582.02 217.628 585.546 218.328C589.072 219.029 592.727 218.669 596.048 217.293C599.369 215.916 602.208 213.586 604.205 210.597C606.202 207.608 607.268 204.093 607.268 200.498C607.268 196.903 606.202 193.389 604.205 190.399C602.208 187.41 599.369 185.08 596.048 183.704C592.727 182.328 589.072 181.967 585.546 182.668C582.02 183.369 578.78 185.099 576.238 187.641C572.829 191.051 570.914 195.676 570.914 200.498C570.914 205.32 572.829 209.945 576.238 213.356ZM586.831 202.762C587.496 203.427 587.948 204.274 588.132 205.196C588.315 206.118 588.221 207.073 587.861 207.942C587.501 208.81 586.892 209.552 586.11 210.074C585.329 210.597 584.41 210.875 583.47 210.875C582.53 210.875 581.611 210.597 580.83 210.074C580.048 209.552 579.439 208.81 579.079 207.942C578.719 207.073 578.625 206.118 578.808 205.196C578.992 204.274 579.444 203.427 580.109 202.762C580.55 202.32 581.074 201.97 581.651 201.731C582.228 201.492 582.846 201.369 583.47 201.369C584.094 201.369 584.713 201.492 585.289 201.731C585.866 201.97 586.39 202.32 586.831 202.762Z" fill="#EFDF18"/>
<path d="M229.369 383.288C256.453 383.288 278.408 361.332 278.408 334.249C278.408 307.165 256.453 285.209 229.369 285.209C202.286 285.209 180.33 307.165 180.33 334.249C180.33 361.332 202.286 383.288 229.369 383.288Z" fill="#A6A6A6"/>
<path d="M229.369 388.158C218.708 388.158 208.287 384.997 199.424 379.075C190.56 373.152 183.651 364.734 179.572 354.885C175.492 345.036 174.425 334.199 176.504 323.743C178.584 313.287 183.718 303.683 191.256 296.145C198.794 288.607 208.398 283.474 218.853 281.394C229.309 279.314 240.146 280.382 249.995 284.461C259.844 288.541 268.262 295.449 274.185 304.313C280.108 313.177 283.269 323.598 283.269 334.258C283.248 348.547 277.563 362.245 267.459 372.349C257.355 382.452 243.658 388.138 229.369 388.158ZM229.369 281.338C218.902 281.338 208.671 284.442 199.968 290.257C191.265 296.072 184.482 304.337 180.477 314.007C176.472 323.677 175.424 334.317 177.466 344.583C179.508 354.848 184.548 364.278 191.949 371.679C199.35 379.08 208.779 384.12 219.045 386.162C229.31 388.204 239.951 387.156 249.62 383.15C259.29 379.145 267.555 372.362 273.37 363.659C279.185 354.957 282.289 344.725 282.289 334.258C282.276 320.225 276.697 306.77 266.776 296.846C256.855 286.921 243.402 281.337 229.369 281.319V281.338Z" fill="#A6A6A6"/>
<path d="M260.269 318.667C260.269 318.667 255.898 353.682 248.714 361.561C240.081 371.008 233.818 369.627 230.339 374.507C226.851 369.607 220.588 371.018 211.955 361.561C204.761 353.721 200.4 318.667 200.4 318.667C219.344 309.464 230.339 299.165 230.339 299.165C230.673 299.488 241.629 309.611 260.269 318.667Z" fill="#EFDF18"/>
<path opacity="0.1" d="M230.3 299.174V374.507C226.812 369.607 220.549 371.018 211.916 361.561C204.722 353.721 200.361 318.667 200.361 318.667C219.305 309.464 230.3 299.165 230.3 299.165V299.174Z" fill="black"/>
<path d="M205.035 321.489C205.035 321.489 208.73 351.065 214.835 357.749C222.126 365.746 227.418 364.609 230.368 368.696C233.308 364.58 238.6 365.756 245.901 357.749C251.967 351.095 255.652 321.489 255.652 321.489C239.659 313.718 230.368 305.005 230.368 305.005C230.368 305.005 221.039 313.718 205.035 321.489Z" fill="#EFDF18"/>
<path opacity="0.3" d="M255.624 321.489C255.624 321.489 251.929 351.065 245.824 357.749C238.533 365.736 233.251 364.609 230.301 368.676V305.015C230.614 305.29 239.866 313.835 255.624 321.489Z" fill="white"/>
<path d="M235.838 330.809V335.405H234.221V330.809C234.247 330.296 234.169 329.784 233.99 329.303C233.812 328.822 233.538 328.382 233.185 328.01C232.832 327.639 232.406 327.342 231.935 327.14C231.464 326.938 230.956 326.833 230.443 326.833C229.93 326.833 229.422 326.938 228.951 327.14C228.48 327.342 228.054 327.639 227.701 328.01C227.348 328.382 227.073 328.822 226.895 329.303C226.717 329.784 226.639 330.296 226.665 330.809V335.405H225.009V330.809C224.954 330.062 225.054 329.311 225.302 328.604C225.55 327.897 225.941 327.249 226.451 326.7C226.961 326.151 227.579 325.713 228.266 325.414C228.952 325.115 229.694 324.96 230.443 324.96C231.192 324.96 231.933 325.115 232.62 325.414C233.307 325.713 233.925 326.151 234.435 326.7C234.945 327.249 235.336 327.897 235.584 328.604C235.832 329.311 235.932 330.062 235.877 330.809H235.838Z" fill="white"/>
<path d="M222.842 331.955V345.675H237.963V331.955H222.842ZM231.662 342.324H228.977L229.614 339.315C229.414 339.192 229.251 339.019 229.139 338.813C229.027 338.607 228.972 338.376 228.977 338.142C228.982 337.907 229.049 337.679 229.17 337.478C229.291 337.278 229.463 337.113 229.668 336.999C229.872 336.885 230.103 336.827 230.338 336.83C230.572 336.834 230.801 336.898 231.003 337.017C231.204 337.137 231.371 337.306 231.487 337.51C231.602 337.714 231.663 337.944 231.662 338.178C231.662 338.405 231.604 338.629 231.495 338.828C231.385 339.026 231.227 339.194 231.035 339.315L231.662 342.324Z" fill="white"/>
<path d="M201.621 136.013C207.98 109.686 191.793 83.1891 165.467 76.8298C139.14 70.4705 112.643 86.657 106.284 112.983C99.9248 139.31 116.111 165.807 142.438 172.166C168.764 178.526 195.261 162.339 201.621 136.013Z" fill="#A6A6A6"/>
<path d="M153.949 178.36C143.288 178.36 132.867 175.199 124.004 169.276C115.14 163.354 108.231 154.936 104.152 145.087C100.072 135.238 99.0048 124.4 101.085 113.945C103.164 103.489 108.298 93.885 115.836 86.3469C123.374 78.8089 132.978 73.6754 143.433 71.5957C153.889 69.5159 164.727 70.5833 174.575 74.6629C184.424 78.7424 192.842 85.6509 198.765 94.5148C204.688 103.379 207.849 113.8 207.849 124.46C207.833 138.75 202.15 152.451 192.045 162.556C181.94 172.661 168.239 178.344 153.949 178.36ZM153.949 71.54C143.482 71.54 133.251 74.6437 124.548 80.4586C115.845 86.2735 109.063 94.5385 105.057 104.208C101.052 113.878 100.004 124.519 102.046 134.784C104.088 145.05 109.128 154.479 116.529 161.88C123.93 169.281 133.359 174.321 143.625 176.363C153.89 178.405 164.531 177.357 174.2 173.352C183.87 169.346 192.135 162.563 197.95 153.861C203.765 145.158 206.869 134.927 206.869 124.46C206.851 110.43 201.269 96.9804 191.349 87.06C181.428 77.1395 167.979 71.5581 153.949 71.54Z" fill="#A6A6A6"/>
<path d="M121.275 148.254H183.563L183.23 105.193H120.941L121.275 148.254Z" fill="#EFDF18"/>
<path d="M160.986 100.734H182.997L183.232 105.193H159.957L160.986 100.734Z" fill="#EFDF18"/>
<g opacity="0.1">
<path d="M121.275 148.255H183.563L183.23 105.193H120.941L121.275 148.255Z" fill="black"/>
<path d="M160.984 100.734H182.995L183.23 105.193H159.955L160.984 100.734Z" fill="black"/>
</g>
<path d="M121.324 148.254H183.613L188.415 107.722H126.126L121.324 148.254Z" fill="#EFDF18"/>
<path d="M166.905 103.527H188.915L188.416 107.722H165.141L166.905 103.527Z" fill="#EFDF18"/>
<path d="M160.722 121.187V125.95H159.007V121.187C159.007 120.147 158.594 119.15 157.859 118.415C157.124 117.68 156.127 117.267 155.087 117.267C154.048 117.267 153.05 117.68 152.315 118.415C151.58 119.15 151.167 120.147 151.167 121.187V125.95H149.452V121.187C149.396 120.413 149.5 119.636 149.758 118.905C150.016 118.173 150.421 117.503 150.949 116.935C151.478 116.367 152.117 115.914 152.828 115.604C153.539 115.295 154.307 115.135 155.082 115.135C155.858 115.135 156.625 115.295 157.336 115.604C158.047 115.914 158.687 116.367 159.215 116.935C159.743 117.503 160.149 118.173 160.407 118.905C160.664 119.636 160.768 120.413 160.712 121.187H160.722Z" fill="white"/>
<path d="M147.285 122.373V136.583H162.965V122.373H147.285ZM156.438 133.153H153.655L154.312 130.036C154.055 129.876 153.857 129.637 153.748 129.355C153.64 129.073 153.626 128.763 153.709 128.472C153.792 128.182 153.967 127.926 154.209 127.744C154.45 127.561 154.744 127.463 155.047 127.463C155.349 127.463 155.643 127.561 155.885 127.744C156.126 127.926 156.302 128.182 156.385 128.472C156.468 128.763 156.454 129.073 156.345 129.355C156.236 129.637 156.039 129.876 155.782 130.036L156.438 133.153Z" fill="white"/>
</svg>
