<svg width="450" height="450" viewBox="0 0 450 450" fill="none" xmlns="http://www.w3.org/2000/svg">
<path d="M331.74 22.23L305.415 35.433C304.451 35.8428 303.629 36.5273 303.051 37.4011C302.473 38.2749 302.166 39.2994 302.166 40.347V52.659C302.143 63.8517 305.407 74.805 311.553 84.159C316.296 91.359 322.587 100.62 333.054 105.903H337.77C349.425 102.303 358.119 92.88 363.429 84.78C369.575 75.4255 372.839 64.4726 372.816 53.28V40.347C372.816 39.3007 372.509 38.2774 371.933 37.4039C371.357 36.5304 370.538 35.8451 369.576 35.433L339.588 22.653C338.247 22.086 333.072 21.663 331.74 22.23Z" fill="#E0E0E0"/>
<path d="M330.678 22.653L300.69 35.433C299.726 35.8428 298.904 36.5273 298.326 37.4011C297.749 38.2749 297.441 39.2994 297.441 40.347V52.659C297.442 64.0654 300.826 75.2152 307.166 84.6978C313.505 94.1803 322.514 101.569 333.054 105.93C344.7 102.33 353.394 92.907 358.713 84.807C364.86 75.443 368.124 64.4812 368.1 53.28V40.347C368.101 39.2994 367.793 38.2749 367.215 37.4011C366.638 36.5273 365.815 35.8428 364.851 35.433L334.863 22.653C334.201 22.3745 333.49 22.2311 332.771 22.2311C332.052 22.2311 331.341 22.3745 330.678 22.653Z" fill="#F5F5F5"/>
<path d="M368.001 49.9409C368.042 50.1271 368.06 50.3175 368.055 50.5079C368.055 50.9309 368.1 51.4709 368.127 52.1369C368.154 52.8029 368.199 53.7119 368.127 54.7199C368.055 55.7279 368.127 56.8799 367.965 58.1399C367.803 59.3999 367.758 60.8399 367.497 62.2709C367.38 63.0089 367.29 63.774 367.137 64.557C366.984 65.34 366.795 66.1319 366.624 66.9509C365.794 70.5043 364.634 73.9724 363.159 77.3099C361.643 80.6311 359.836 83.8115 357.759 86.8139C356.76 88.1639 355.833 89.514 354.843 90.5849C354.357 91.152 353.943 91.728 353.448 92.232L352.08 93.6809C351.225 94.5809 350.352 95.3729 349.623 96.0749C348.894 96.7769 348.228 97.3259 347.679 97.7669L346.5 98.7929C346.36 98.921 346.206 99.0327 346.041 99.1259C346.161 98.9765 346.297 98.8407 346.446 98.721L347.661 97.632C348.192 97.173 348.84 96.597 349.542 95.832C350.244 95.067 351.108 94.3649 351.936 93.4109L353.277 91.944C353.736 91.44 354.177 90.8639 354.645 90.297C355.617 89.172 356.517 87.8669 357.498 86.5169C359.536 83.5282 361.312 80.3696 362.808 77.0759C364.266 73.7629 365.426 70.3262 366.273 66.807L366.804 64.4309C366.966 63.6569 367.065 62.8919 367.191 62.1629C367.461 60.7049 367.569 59.3279 367.704 58.0679C367.839 56.8079 367.857 55.6739 367.929 54.6659C368.001 53.6579 367.992 52.8029 367.992 52.0919C367.992 51.3809 367.992 50.8859 367.992 50.4629C367.977 50.2891 367.98 50.1142 368.001 49.9409Z" fill="#E0E0E0"/>
<path d="M330.535 76.7069L313.336 63.0359L318.106 57.0329L329.644 66.2039L346.492 47.3489L352.207 52.4609L330.535 76.7069Z" fill="white"/>
<path d="M411.787 89.6039H408.529V71.8829C408.529 69.8779 407.733 67.955 406.315 66.5372C404.897 65.1194 402.974 64.3229 400.969 64.3229C398.964 64.3229 397.041 65.1194 395.624 66.5372C394.206 67.955 393.409 69.8779 393.409 71.8829V89.6039H390.151V71.8829C390.151 69.0186 391.289 66.2716 393.315 64.2462C395.34 62.2208 398.087 61.0829 400.951 61.0829C403.816 61.0829 406.563 62.2208 408.588 64.2462C410.614 66.2716 411.751 69.0186 411.751 71.8829L411.787 89.6039Z" fill="#EBEBEB"/>
<path d="M412.767 77.58H389.16C387.629 77.58 386.388 78.8211 386.388 80.352V97.659C386.388 99.19 387.629 100.431 389.16 100.431H412.767C414.298 100.431 415.539 99.19 415.539 97.659V80.352C415.539 78.8211 414.298 77.58 412.767 77.58Z" fill="#EBEBEB"/>
<path d="M403.199 89.595C403.489 89.3007 403.717 88.952 403.872 88.5689C404.026 88.1858 404.103 87.776 404.099 87.363C404.103 86.7642 403.94 86.1761 403.628 85.665C403.316 85.154 402.867 84.7403 402.332 84.4708C401.797 84.2012 401.198 84.0865 400.601 84.1395C400.005 84.1925 399.435 84.4112 398.956 84.7709C398.477 85.1305 398.109 85.6168 397.891 86.1749C397.674 86.733 397.618 87.3407 397.727 87.9294C397.837 88.518 398.109 89.0643 398.513 89.5065C398.917 89.9487 399.436 90.2693 400.013 90.432L399.329 93.474H402.38L401.768 90.432C402.301 90.2798 402.785 89.9913 403.172 89.595" fill="#FAFAFA"/>
<path d="M41.7872 348.246C38.2917 346.059 34.3418 344.701 30.2402 344.277C28.3502 344.079 26.2892 344.133 24.7772 345.276C24.6016 345.376 24.4563 345.522 24.3566 345.698C24.2568 345.873 24.2062 346.073 24.2102 346.275C24.3024 346.56 24.494 346.803 24.7502 346.959C27.2019 348.708 30.0858 349.753 33.0891 349.98C36.0924 350.207 39.1005 349.607 41.7872 348.246Z" fill="#E0E0E0"/>
<path d="M41.4902 347.922C38.8167 345.957 36.3202 343.761 34.0292 341.361C31.7335 338.943 30.1215 335.958 29.3582 332.712C29.2062 332.231 29.1605 331.723 29.2242 331.222C29.2879 330.722 29.4595 330.241 29.7272 329.814C35.6672 334.458 40.3382 340.47 41.4902 347.922Z" fill="#E0E0E0"/>
<path d="M41.7251 348.201C41.1773 344.952 41.2261 341.631 41.8691 338.4C42.53 335.143 44.3897 332.252 47.0801 330.3C48.1061 332.703 47.6651 335.475 46.9451 337.977C45.8261 341.865 44.078 345.544 41.7701 348.867" fill="#E0E0E0"/>
<path d="M47.5561 358.65C44.0579 359.216 40.8217 360.854 38.2951 363.339C35.6377 365.754 33.7871 368.927 32.9941 372.429C36.4681 372.213 39.4111 369.729 41.5441 367.029C43.6771 364.329 45.1441 361.278 47.5111 358.713" fill="#E0E0E0"/>
<path d="M48.8249 360.315C47.4316 356.78 46.9431 352.952 47.4036 349.18C47.8641 345.409 49.259 341.811 51.4619 338.715C53.4779 345.915 52.7309 354.015 48.8249 360.315Z" fill="#E0E0E0"/>
<path d="M56.5215 369.486C53.2871 369.29 50.0663 370.048 47.2585 371.665C44.4507 373.283 42.1795 375.689 40.7265 378.585C40.5375 378.972 40.3575 379.485 40.6275 379.818C40.7628 379.951 40.9289 380.049 41.1111 380.102C41.2932 380.155 41.4857 380.163 41.6715 380.124C44.7855 379.926 47.5395 378.054 49.8165 375.921C52.0935 373.788 54.0825 371.322 56.5935 369.477" fill="#E0E0E0"/>
<path d="M56.2764 369C54.6181 363.661 54.5151 357.961 55.9794 352.566C56.5644 350.451 57.5364 348.228 59.4894 347.238C59.5677 347.185 59.6561 347.149 59.749 347.132C59.842 347.115 59.9374 347.117 60.0294 347.139C60.1874 347.223 60.3067 347.365 60.3624 347.535C61.0226 349.012 61.307 350.629 61.1904 352.242C61.075 353.852 60.8282 355.451 60.4524 357.021C59.8404 359.937 59.5524 363.069 57.9054 365.589C57.5294 366.195 57.1898 366.823 56.8884 367.47C56.5914 368.109 56.5914 368.37 56.3124 368.838" fill="#E0E0E0"/>
<path d="M76.662 372.024C75.9767 369.024 75.9543 365.911 76.5963 362.902C77.2383 359.892 78.5292 357.059 80.379 354.6C80.64 354.249 80.991 353.88 81.432 353.916C82.098 353.979 82.269 354.87 82.242 355.536C81.9659 361.444 80.0321 367.155 76.662 372.015" fill="#E0E0E0"/>
<path d="M78.498 373.284C82.0645 374.126 85.7711 374.183 89.362 373.453C92.953 372.723 96.3426 371.222 99.297 369.054C95.8171 367.304 91.8372 366.817 88.038 367.677C84.276 368.577 80.838 370.215 78.498 373.284Z" fill="#E0E0E0"/>
<path d="M80.0469 369.459C83.9619 363.087 91.4589 358.929 98.9469 358.542C98.0469 361.584 95.5899 363.942 92.7729 365.373C89.8851 366.668 86.8323 367.559 83.7009 368.019C82.4949 368.253 80.8389 368.514 80.1009 369.459" fill="#E0E0E0"/>
<path d="M77.0484 350.892C78.2355 347.302 79.0439 343.598 79.4604 339.84C79.8787 336.058 79.1113 332.24 77.2644 328.914C73.6104 335.979 73.2414 344.214 76.9404 351.279" fill="#E0E0E0"/>
<path d="M89.3447 344.7C93.6197 336.942 102.332 330.741 111.143 329.868C107.741 338.337 98.4707 344.88 89.3447 344.7Z" fill="#E0E0E0"/>
<path d="M86.6611 346.203C93.0241 347.175 98.4511 351.243 104.4 353.709C105.649 354.307 107.032 354.57 108.414 354.474C109.056 354.466 109.68 354.261 110.202 353.887C110.724 353.514 111.119 352.989 111.334 352.384C111.548 351.779 111.572 351.123 111.403 350.504C111.233 349.885 110.878 349.332 110.385 348.921C109.543 348.132 108.552 347.52 107.469 347.121C100.989 344.421 94.0321 344.358 87.2101 345.996" fill="#E0E0E0"/>
<path d="M82.9727 350.667C84.4127 351.081 84.9077 351.828 86.0507 352.8C89.9553 356.117 94.5765 358.484 99.5507 359.712C100.064 359.838 100.739 359.892 101 359.433C101.261 358.974 100.937 358.533 100.649 358.173C98.4945 355.638 95.696 353.732 92.5487 352.656C89.4437 351.495 86.7527 350.1 83.0447 350.406" fill="#E0E0E0"/>
<path d="M78.8135 323.694C81.4256 326.102 84.5125 327.937 87.876 329.081C91.2394 330.225 94.8049 330.652 98.3435 330.336C98.6722 330.347 98.9931 330.234 99.2435 330.021C99.7385 329.481 99.1445 328.653 98.5775 328.221C92.8355 323.721 85.8785 321.921 78.8315 323.721" fill="#E0E0E0"/>
<path d="M83.7451 321.885C87.202 319.343 91.2112 317.654 95.4452 316.956C99.6793 316.259 104.018 316.572 108.108 317.871C104.919 320.823 100.83 322.618 96.4981 322.965C92.2167 323.358 87.8994 322.993 83.7451 321.885Z" fill="#E0E0E0"/>
<path d="M81.7831 309.492C81.2251 303.759 81.5851 299.241 81.1891 293.481C81.1891 293.022 81.0631 292.473 80.6311 292.302C80.0281 292.077 79.5331 292.806 79.3351 293.418C78.4998 296.086 78.2853 298.91 78.708 301.674C79.1307 304.438 80.1794 307.069 81.7741 309.366" fill="#E0E0E0"/>
<path d="M81.3691 310.122C85.1279 307.711 88.3681 304.575 90.9001 300.897C92.7721 298.332 94.3561 295.263 93.9331 292.113C92.6128 292.148 91.316 292.47 90.1331 293.058C88.9502 293.645 87.9097 294.484 87.0841 295.515C85.4496 297.59 84.2608 299.98 83.5921 302.535C82.8361 305.055 82.3051 307.647 81.4051 310.122" fill="#E0E0E0"/>
<path d="M90.7021 307.53C99.2607 304.372 107.186 299.708 114.102 293.76C111.312 292.635 108.117 293.31 105.327 294.435C98.9932 296.834 93.7603 301.474 90.6211 307.476" fill="#E0E0E0"/>
<path d="M83.9971 313.263C88.2971 313.873 92.6603 313.895 96.9661 313.326C101.169 312.624 105.147 310.95 109.071 309.303C109.414 309.201 109.709 308.977 109.899 308.673C109.958 308.491 109.962 308.295 109.909 308.11C109.856 307.926 109.749 307.761 109.602 307.638C109.298 307.4 108.944 307.234 108.567 307.152C104.292 305.964 99.6841 306.522 95.4811 307.935C91.4779 309.306 87.629 311.092 83.9971 313.263Z" fill="#E0E0E0"/>
<path d="M59.4008 323.892C56.4578 317.952 56.7008 311.022 59.1938 304.902C60.9938 307.602 61.2008 311.094 60.8768 314.343C60.5528 317.592 59.5628 320.922 59.4908 324.18" fill="#E0E0E0"/>
<path d="M47.6193 317.961C43.9366 317.912 40.2843 318.633 36.8964 320.077C33.5085 321.521 30.4597 323.658 27.9453 326.349C31.6647 326.795 35.4318 326.098 38.7453 324.351C42.0257 322.61 45.1197 320.538 47.9793 318.168" fill="#E0E0E0"/>
<path d="M39.7159 315.315C36.1159 315.027 32.6689 314.586 29.2129 315.639C27.4692 316.13 25.8519 316.991 24.4711 318.164C23.0904 319.336 21.9787 320.793 21.2119 322.434C24.6015 322.706 28.0019 322.062 31.0579 320.571C34.0958 319.082 36.9935 317.323 39.7159 315.315Z" fill="#E0E0E0"/>
<path d="M51.4174 315.441C48.1864 313.326 44.8654 311.166 41.1034 310.284C37.3414 309.402 33.0034 310.059 30.3574 312.894C33.3994 314.694 37.0984 314.892 40.6354 314.892C44.1724 314.892 48.4924 314.847 51.8224 316.026" fill="#E0E0E0"/>
<path d="M51.4359 315.612C45.9099 310.212 43.8219 300.438 46.0359 293.022C50.3964 299.7 52.3049 307.684 51.4359 315.612Z" fill="#E0E0E0"/>
<path d="M66.5996 300.24C67.6436 297.81 68.3996 295.272 69.2996 292.806C70.1517 290.304 71.4608 287.981 73.1606 285.957C74.8826 283.905 77.3426 282.612 80.0096 282.357C79.1577 286.095 77.5366 289.615 75.2495 292.693C72.9624 295.77 70.0595 298.337 66.7256 300.231" fill="#E0E0E0"/>
<path d="M63.9004 303.444C62.1814 301.068 60.1834 297.846 57.8434 296.073C55.5034 294.3 52.4434 293.229 49.6084 293.904C51.0868 296.494 53.148 298.705 55.6286 300.361C58.1092 302.016 60.9412 303.072 63.9004 303.444Z" fill="#E0E0E0"/>
<path d="M64.4321 300.438C63.207 297.604 62.3015 294.643 61.7321 291.609C61.1665 288.539 61.655 285.367 63.1181 282.609C66.1511 288.342 67.1321 294.498 64.6211 300.483" fill="#E0E0E0"/>
<path d="M66.6641 282.6C68.3831 276.921 73.5851 272.7 79.2101 270.81C79.9047 270.525 80.6586 270.413 81.4061 270.486C81.7797 270.525 82.1333 270.674 82.4218 270.914C82.7104 271.155 82.9207 271.476 83.0261 271.836C83.2331 272.799 82.4321 273.636 81.6761 274.311C77.2856 278.063 72.1781 280.883 66.6641 282.6Z" fill="#E0E0E0"/>
<path d="M66.7267 277.983C66.9427 274.311 67.1677 270.594 68.3647 267.12C69.5617 263.646 71.8567 260.397 75.1957 258.876C75.7627 262.575 74.1337 266.256 72.1627 269.442C70.1917 272.628 67.8157 275.634 66.6367 279.189" fill="#E0E0E0"/>
<path d="M66.6015 280.503C65.1795 276.363 65.0355 271.098 62.5515 267.489C60.8145 264.969 58.0515 263.25 56.5485 260.577C55.6459 263.14 55.7718 265.953 56.8995 268.425C58.0279 270.87 59.5821 273.094 61.4895 274.995C63.2895 276.957 64.8915 278.433 66.6015 280.503Z" fill="#E0E0E0"/>
<path d="M66.6639 402.498C66.5559 402.498 66.4569 374.868 66.4479 340.785C66.4389 306.702 66.5289 279.063 66.6369 279.063C66.7449 279.063 66.8439 306.684 66.8529 340.785C66.8619 374.886 66.7719 402.498 66.6639 402.498Z" fill="#E0E0E0"/>
<path d="M90.8098 319.716C90.4795 319.884 90.1326 320.016 89.7748 320.112L86.9128 321.075C84.5008 321.894 81.1888 323.082 77.5978 324.558C74.0068 326.034 70.6768 327.321 68.7688 328.977C67.9956 329.611 67.3796 330.415 66.9688 331.326C66.6898 331.974 66.6448 332.37 66.6088 332.37C66.5728 332.37 66.6088 332.262 66.6088 332.073C66.6545 331.8 66.7237 331.532 66.8158 331.272C67.1762 330.308 67.7699 329.448 68.5438 328.77C69.6981 327.794 70.99 326.993 72.3778 326.394C73.9078 325.674 75.6088 324.927 77.4088 324.189C81.0088 322.713 84.3478 321.561 86.7868 320.805C88.0108 320.427 89.0008 320.148 89.6938 319.959C90.0573 319.843 90.431 319.762 90.8098 319.716Z" fill="#E0E0E0"/>
<path d="M98.7288 300.276C98.6443 300.391 98.5444 300.494 98.4318 300.582L97.5318 301.419L94.2198 304.425L83.2038 314.235C78.9018 318.069 75.1848 321.723 72.6108 324.477C71.3148 325.854 70.2978 326.997 69.6048 327.789L68.8038 328.689C68.7202 328.802 68.6201 328.902 68.5068 328.986C68.574 328.86 68.6555 328.742 68.7498 328.635C68.9118 328.41 69.1548 328.077 69.4878 327.672C70.1448 326.844 71.1348 325.674 72.4038 324.27C75.7281 320.636 79.2431 317.181 82.9338 313.92C87.2538 310.104 91.1778 306.666 94.0308 304.2C95.4348 302.994 96.5868 302.013 97.4238 301.284L98.3238 300.51C98.4475 300.414 98.5837 300.335 98.7288 300.276Z" fill="#E0E0E0"/>
<path d="M78.5787 318.132C78.4617 318.078 79.3617 316.008 80.2617 313.38C81.1617 310.752 81.5847 308.547 81.7017 308.565C81.6083 310.257 81.25 311.925 80.6397 313.506C80.2531 314.628 79.8054 315.727 79.2987 316.8C79.1178 317.273 78.8758 317.721 78.5787 318.132Z" fill="#E0E0E0"/>
<path d="M66.6893 334.854C66.437 334.627 66.2134 334.37 66.0233 334.089L64.3223 331.911C62.9003 330.066 60.9293 327.519 58.7153 324.711C56.5013 321.903 54.4763 319.428 53.0003 317.619L51.2993 315.495C51.0716 315.243 50.8696 314.968 50.6963 314.676C50.959 314.892 51.2002 315.133 51.4163 315.396C51.8573 315.873 52.4873 316.584 53.2163 317.466C54.7463 319.266 56.8163 321.696 59.0303 324.486C61.2443 327.276 63.1793 329.886 64.5473 331.74C65.2403 332.64 65.7803 333.459 66.1493 333.999C66.3579 334.265 66.5388 334.551 66.6893 334.854Z" fill="#E0E0E0"/>
<path d="M61.3889 328.059C60.3218 326.878 59.5614 325.454 59.1749 323.91C58.7538 322.554 58.583 321.133 58.6709 319.716H58.8509C58.8263 319.888 58.7682 320.053 58.6799 320.202C58.6799 320.202 58.6799 320.013 58.6799 319.689H58.8599C58.944 321.07 59.1794 322.437 59.5619 323.766C60.0666 325.239 60.6772 326.674 61.3889 328.059Z" fill="#E0E0E0"/>
<path d="M54.5581 319.5C54.0793 319.14 53.5597 318.838 53.0101 318.6C51.617 318.18 50.1501 318.063 48.7081 318.258C47.2479 318.364 45.7995 318.596 44.3791 318.951C43.7888 319.133 43.1876 319.277 42.5791 319.383C43.1046 319.059 43.679 318.822 44.2801 318.681C45.705 318.24 47.1755 317.962 48.6631 317.853C50.156 317.655 51.6747 317.818 53.0911 318.33C53.7009 318.538 54.2194 318.952 54.5581 319.5Z" fill="#E0E0E0"/>
<path d="M52.939 317.376C52.939 317.439 52.039 317.016 50.563 316.476C46.7167 315.167 42.6008 314.857 38.602 315.576C37.072 315.846 36.154 316.134 36.127 316.071C36.3205 315.947 36.5334 315.855 36.757 315.801C37.3455 315.595 37.9468 315.426 38.557 315.297C40.5681 314.856 42.6328 314.711 44.686 314.865C46.7355 315.025 48.7512 315.48 50.671 316.215C51.2507 316.437 51.8158 316.696 52.363 316.989C52.5737 317.088 52.7679 317.218 52.939 317.376Z" fill="#E0E0E0"/>
<path d="M66.5995 308.565C65.8948 306.6 65.3176 304.592 64.8715 302.553C64.2901 300.547 63.8391 298.506 63.5215 296.442C64.2268 298.407 64.807 300.415 65.2585 302.454C65.8346 304.46 66.2825 306.502 66.5995 308.565Z" fill="#E0E0E0"/>
<path d="M66.745 308.565C66.1917 307.321 65.5511 306.118 64.828 304.965C64.0175 303.874 63.0674 302.893 62.002 302.049C62.4037 302.152 62.7763 302.346 63.091 302.616C63.8931 303.199 64.59 303.914 65.152 304.731C66.0118 305.846 66.5614 307.169 66.745 308.565Z" fill="#E0E0E0"/>
<path d="M66.6626 387.765C66.6626 387.765 66.5366 387.099 66.2216 385.965C65.7804 384.314 65.1775 382.71 64.4216 381.177C61.7606 376.178 58.4698 371.542 54.6296 367.38C52.4426 364.878 50.3186 362.52 48.5186 360.261C46.8983 358.278 45.4359 356.172 44.1446 353.961C43.2762 352.467 42.5384 350.902 41.9396 349.281C41.7326 348.705 41.5886 348.255 41.5076 347.949C41.455 347.794 41.4158 347.634 41.3906 347.472C41.3906 347.472 41.6246 348.102 42.0836 349.227C42.7376 350.812 43.5077 352.346 44.3876 353.817C45.7064 355.993 47.1802 358.072 48.7976 360.036C50.5976 362.268 52.7396 364.608 54.9266 367.11C58.7948 371.297 62.0767 375.99 64.6826 381.06C65.4348 382.616 66.0172 384.248 66.4196 385.929C66.5262 386.386 66.6073 386.849 66.6626 387.315C66.6764 387.465 66.6764 387.615 66.6626 387.765Z" fill="#E0E0E0"/>
<path d="M88.4887 363.123C88.1189 363.356 87.7374 363.569 87.3457 363.762C86.3086 364.342 85.3159 364.998 84.3757 365.724C82.9828 366.802 81.6795 367.991 80.4787 369.279C79.1107 370.719 77.7067 372.393 76.2667 374.193C73.3957 377.793 70.7047 380.997 69.0667 383.544C68.2477 384.804 67.6537 385.866 67.2667 386.613C67.0817 387.01 66.8713 387.395 66.6367 387.765C66.6367 387.765 66.6367 387.648 66.7447 387.441C66.8527 387.234 66.9427 386.928 67.1227 386.541C67.6335 385.459 68.2106 384.41 68.8507 383.4C71.0369 380.118 73.4077 376.963 75.9517 373.95C77.3917 372.15 78.8227 370.476 80.2177 369.027C81.4451 367.744 82.7789 366.567 84.2047 365.508C85.1772 364.78 86.2134 364.142 87.3007 363.6C87.5926 363.45 87.8931 363.318 88.2007 363.204C88.3867 363.132 88.4827 363.105 88.4887 363.123Z" fill="#E0E0E0"/>
<path d="M88.9116 371.115C88.1141 371.29 87.305 371.407 86.4906 371.466C84.5485 371.665 82.6292 372.044 80.7576 372.6C78.9064 373.201 77.1715 374.115 75.6276 375.3C74.4486 376.2 73.8906 376.965 73.8276 376.929C73.7646 376.893 73.9176 376.704 74.1786 376.371C74.5545 375.901 74.9766 375.47 75.4386 375.084C76.9698 373.805 78.7329 372.834 80.6316 372.222C82.5266 371.657 84.4805 371.312 86.4546 371.196C87.2694 371.094 88.0919 371.067 88.9116 371.115Z" fill="#E0E0E0"/>
<path d="M74.5393 376.038C74.4133 375.966 75.5023 374.301 76.3393 372.06C77.1763 369.819 77.3203 367.821 77.4553 367.848C77.5321 368.277 77.5321 368.715 77.4553 369.144C77.3325 370.186 77.0972 371.212 76.7533 372.204C76.3831 373.183 75.9126 374.121 75.3493 375.003C75.14 375.391 74.8661 375.741 74.5393 376.038Z" fill="#E0E0E0"/>
<path d="M95.5528 341.649C95.4354 341.738 95.3048 341.808 95.1658 341.856L94.0318 342.369C93.5278 342.585 92.9248 342.855 92.2318 343.215C91.5388 343.575 90.7468 343.935 89.9188 344.43L88.6048 345.177C88.1458 345.447 87.7048 345.753 87.2098 346.077C86.2378 346.662 85.2658 347.391 84.2218 348.129C82.0159 349.803 79.9344 351.635 77.9938 353.61C76.0894 355.608 74.3356 357.743 72.7468 360C72.0358 361.071 71.3428 362.07 70.7848 363.06C70.5058 363.546 70.2088 364.014 69.9568 364.482L69.2998 365.832C68.8318 366.678 68.4988 367.488 68.1658 368.181C67.8328 368.874 67.5808 369.486 67.3828 369.981C67.1848 370.476 67.0318 370.827 66.9058 371.133C66.8564 371.271 66.7931 371.404 66.7168 371.529C66.734 371.383 66.7734 371.24 66.8338 371.106L67.2388 369.927C67.4188 369.414 67.6438 368.784 67.9588 368.082C68.2738 367.38 68.5888 366.552 69.0478 365.697C69.2638 365.256 69.4978 364.797 69.7318 364.329C69.9658 363.861 70.2628 363.429 70.5508 362.889C71.0998 361.881 71.7838 360.873 72.4858 359.793C75.6449 355.174 79.5608 351.121 84.0688 347.805C85.1218 347.067 86.1118 346.347 87.0928 345.771C87.5878 345.474 88.0468 345.159 88.5058 344.871L89.8468 344.133C90.6928 343.656 91.5028 343.305 92.1958 342.972C92.7817 342.68 93.3825 342.418 93.9958 342.189L95.1658 341.739C95.2915 341.696 95.4211 341.666 95.5528 341.649Z" fill="#E0E0E0"/>
<path d="M78.2998 353.223C78.4424 352.669 78.7576 352.174 79.1998 351.81C80.2645 350.884 81.6227 350.364 83.0338 350.343C84.4133 350.337 85.7804 350.603 87.0568 351.126C87.5958 351.3 88.1078 351.548 88.5778 351.864C88.0269 351.761 87.4874 351.604 86.9668 351.396C85.7046 350.96 84.3783 350.738 83.0428 350.739C81.7187 350.767 80.4384 351.218 79.3888 352.026C78.9947 352.396 78.6305 352.796 78.2998 353.223Z" fill="#E0E0E0"/>
<path d="M75.7002 355.887C76.2125 354.759 76.5785 353.571 76.7892 352.35C76.8621 351.115 76.7804 349.875 76.5462 348.66C76.7778 348.963 76.9322 349.319 76.9962 349.695C77.4617 351.474 77.2399 353.364 76.3752 354.987C76.0332 355.599 75.7362 355.914 75.7002 355.887Z" fill="#E0E0E0"/>
<path d="M47.5752 391.725C48.1692 402.291 51.3552 413.028 56.2512 423.891H77.5362C82.2072 413.136 85.1682 402.417 85.6902 391.725H47.5752Z" fill="#E0E0E0"/>
<path d="M82.2424 408.816C82.2424 408.924 75.2314 409.014 66.5914 409.014C57.9514 409.014 50.9404 408.924 50.9404 408.816C50.9404 408.708 57.9424 408.6 66.6004 408.6C75.2584 408.6 82.2424 408.708 82.2424 408.816Z" fill="#FAFAFA"/>
<path d="M81.766 412.641C81.766 412.749 75.196 412.839 67.096 412.839C58.996 412.839 52.417 412.749 52.417 412.641C52.417 412.533 58.987 412.443 67.096 412.443C75.205 412.443 81.766 412.533 81.766 412.641Z" fill="#FAFAFA"/>
<path d="M56.5916 398.7C56.8556 401.962 56.8556 405.239 56.5916 408.501C56.3276 405.239 56.3276 401.962 56.5916 398.7Z" fill="#FAFAFA"/>
<path d="M67.9959 398.7C68.2599 402.079 68.2599 405.473 67.9959 408.852C67.7318 405.473 67.7318 402.079 67.9959 398.7Z" fill="#FAFAFA"/>
<path d="M78.7058 398.574C78.9698 402.022 78.9698 405.485 78.7058 408.933C78.4418 405.485 78.4418 402.022 78.7058 398.574Z" fill="#FAFAFA"/>
<path d="M85.0139 398.7C85.0139 398.808 76.7969 398.898 66.6629 398.898C56.5289 398.898 48.2939 398.808 48.2939 398.7C48.2939 398.592 56.5199 398.502 66.6629 398.502C76.8059 398.502 85.0139 398.547 85.0139 398.7Z" fill="#FAFAFA"/>
<path d="M415.251 300.177C417.199 299.316 418.852 297.904 420.005 296.114C421.158 294.324 421.761 292.235 421.74 290.106C421.74 284.094 417.24 279.198 411.579 279.18C405.918 279.162 401.346 284.004 401.328 289.98C401.287 292.126 401.882 294.236 403.039 296.044C404.195 297.852 405.861 299.278 407.826 300.141C392.121 302.508 392.832 319.572 392.832 319.572L429.975 319.743C429.975 319.743 430.821 302.526 415.251 300.177Z" fill="#EBEBEB"/>
<path d="M248.282 52.0289C249.65 51.7603 250.911 51.1001 251.911 50.1288C252.911 49.1574 253.608 47.9166 253.916 46.5569C254.172 45.6844 254.248 44.7689 254.139 43.8661C254.029 42.9634 253.737 42.0924 253.28 41.3063C252.823 40.5201 252.211 39.8353 251.481 39.2935C250.75 38.7517 249.917 38.3644 249.032 38.1551C248.148 37.9458 247.229 37.919 246.334 38.0762C245.438 38.2334 244.584 38.5714 243.823 39.0695C243.062 39.5676 242.411 40.2155 241.909 40.9736C241.407 41.7317 241.064 42.5841 240.902 43.4789C240.556 44.8435 240.623 46.2801 241.094 47.6067C241.565 48.9334 242.419 50.0903 243.548 50.9309C233.171 50.1119 231.11 61.1099 231.11 61.1099L254.78 66.7169C254.78 66.7169 257.876 55.7999 248.282 52.0289Z" fill="#EBEBEB"/>
<path d="M416.267 143.649C417.402 142.939 418.304 141.912 418.861 140.694C419.418 139.477 419.605 138.123 419.399 136.8C419.332 135.924 419.085 135.072 418.675 134.295C418.265 133.518 417.7 132.834 417.015 132.284C416.33 131.734 415.54 131.33 414.693 131.098C413.846 130.866 412.96 130.809 412.091 130.932C411.221 131.056 410.386 131.356 409.637 131.815C408.888 132.273 408.241 132.881 407.736 133.599C407.23 134.318 406.878 135.132 406.7 135.992C406.522 136.852 406.522 137.74 406.7 138.6C406.866 139.939 407.426 141.199 408.309 142.22C409.192 143.24 410.358 143.976 411.659 144.333C402.11 147.222 404.081 157.77 404.081 157.77L427.193 154.539C427.193 154.539 426.158 143.712 416.267 143.649Z" fill="#F5F5F5"/>
<path d="M45.4332 146.916L32.9502 136.989L36.4062 132.633L44.7852 139.284L57.0072 125.613L61.1562 129.321L45.4332 146.916Z" fill="#F5F5F5"/>
<path d="M423.594 424.206C423.594 424.341 333.459 424.44 222.309 424.44C111.159 424.44 21.0059 424.341 21.0059 424.206C21.0059 424.071 111.114 423.972 222.309 423.972C333.504 423.972 423.594 424.08 423.594 424.206Z" fill="#263238"/>
<path d="M62.4592 161.289L34.8562 175.14C33.8549 175.576 33.0032 176.296 32.4066 177.211C31.81 178.126 31.4946 179.196 31.4992 180.288V193.203C31.4676 204.951 34.8882 216.449 41.3362 226.269C46.3132 233.847 52.9102 243.531 63.8812 249.066H68.8312C81.0532 245.34 90.1702 235.413 95.7412 226.917C102.192 217.098 105.616 205.6 105.587 193.851V180.288C105.586 179.191 105.263 178.119 104.658 177.204C104.053 176.289 103.194 175.571 102.185 175.14L70.6942 161.739C69.2992 161.145 63.8992 160.695 62.4592 161.289Z" fill="#EFDF18"/>
<path opacity="0.3" d="M62.4592 161.289L34.8562 175.14C33.8549 175.576 33.0032 176.296 32.4066 177.211C31.81 178.126 31.4946 179.196 31.4992 180.288V193.203C31.4676 204.951 34.8882 216.449 41.3362 226.269C46.3132 233.847 52.9102 243.531 63.8812 249.066H68.8312C81.0532 245.34 90.1702 235.413 95.7412 226.917C102.192 217.098 105.616 205.6 105.587 193.851V180.288C105.586 179.191 105.263 178.119 104.658 177.204C104.053 176.289 103.194 175.571 102.185 175.14L70.6942 161.739C69.2992 161.145 63.8992 160.695 62.4592 161.289Z" fill="black"/>
<path d="M61.3541 161.739L29.8991 175.14C28.8907 175.571 28.0309 176.289 27.4262 177.204C26.8215 178.119 26.4985 179.191 26.4971 180.288V193.203C26.4978 205.164 30.046 216.856 36.6928 226.799C43.3396 236.743 52.7864 244.492 63.8381 249.066C76.0511 245.34 85.1681 235.413 90.7481 226.917C97.1988 217.098 100.623 205.6 100.594 193.851V180.288C100.593 179.192 100.272 178.121 99.6687 177.206C99.0657 176.291 98.2078 175.573 97.2011 175.14L65.7011 161.739C65.0128 161.45 64.2739 161.301 63.5276 161.301C62.7812 161.301 62.0423 161.45 61.3541 161.739Z" fill="#EFDF18"/>
<path opacity="0.3" d="M71.0083 220.318C81.6252 216.2 86.8936 204.255 82.7756 193.638C78.6576 183.021 66.7125 177.752 56.0957 181.87C45.4788 185.988 40.2104 197.933 44.3284 208.55C48.4464 219.167 60.3914 224.436 71.0083 220.318Z" fill="black"/>
<path d="M63.5404 202.239C68.2674 202.239 72.0994 198.407 72.0994 193.68C72.0994 188.953 68.2674 185.121 63.5404 185.121C58.8134 185.121 54.9814 188.953 54.9814 193.68C54.9814 198.407 58.8134 202.239 63.5404 202.239Z" fill="white"/>
<path d="M47.916 214.533C49.2925 211.653 51.4649 209.228 54.1762 207.544C56.8875 205.86 60.0244 204.987 63.216 205.029C66.4887 205.03 69.7007 205.913 72.5136 207.585C75.3266 209.258 77.6365 211.658 79.2 214.533C79.2 214.533 74.151 222.003 63 221.733C60.1101 221.721 57.2586 221.07 54.6505 219.825C52.0424 218.58 49.7425 216.773 47.916 214.533Z" fill="white"/>
<path d="M84.1592 201.096C84.1489 200.985 84.1489 200.874 84.1592 200.763C84.1592 200.52 84.1592 200.196 84.0782 199.791C84.0782 199.575 84.0782 199.332 84.0782 199.071C84.0782 198.81 83.9882 198.522 83.9432 198.171C83.8494 197.457 83.705 196.75 83.5112 196.056C83.0219 194.134 82.2484 192.296 81.2162 190.602C79.8624 188.354 78.0905 186.387 75.9962 184.806C73.4662 182.882 70.5186 181.581 67.3922 181.008C63.8029 180.347 60.1021 180.658 56.6732 181.908C55.7453 182.23 54.8428 182.621 53.9732 183.078C53.1037 183.554 52.2678 184.09 51.4712 184.68C50.661 185.29 49.8886 185.948 49.1582 186.651C48.4423 187.393 47.7749 188.181 47.1602 189.009C45.9003 190.715 44.9191 192.611 44.2532 194.625C42.8491 198.8 42.8491 203.32 44.2532 207.495C44.9151 209.511 45.8966 211.407 47.1602 213.111C47.7748 213.942 48.4422 214.733 49.1582 215.478C49.8864 216.181 50.659 216.836 51.4712 217.44C53.0337 218.632 54.774 219.57 56.6282 220.221C60.0571 221.471 63.7579 221.782 67.3472 221.121C70.1978 220.584 72.9029 219.451 75.2852 217.797C77.6675 216.142 79.6733 214.002 81.1712 211.518C82.1919 209.836 82.9534 208.009 83.4302 206.1C83.6232 205.403 83.7676 204.693 83.8622 203.976C83.8622 203.67 83.9702 203.382 83.9972 203.076C84.0242 202.77 83.9972 202.572 83.9972 202.356L84.0782 201.375C84.069 201.264 84.069 201.153 84.0782 201.042C84.0879 201.153 84.0879 201.264 84.0782 201.375C84.0782 201.627 84.0782 201.951 84.0782 202.365C84.0782 202.581 84.0782 202.824 84.0782 203.085C84.0782 203.346 84.0062 203.643 83.9612 203.985C83.8893 204.712 83.7568 205.431 83.5652 206.136C83.1086 208.086 82.3526 209.953 81.3242 211.671C78.8785 215.846 75.0472 219.033 70.4962 220.677C65.9451 222.321 60.9618 222.319 56.4122 220.671C55.4858 220.338 54.5836 219.941 53.7122 219.483C52.8263 218.985 51.978 218.422 51.1742 217.8C50.3371 217.186 49.5432 216.516 48.7982 215.793C48.0818 215.045 47.4144 214.251 46.8002 213.417C45.5046 211.674 44.4959 209.736 43.8122 207.675C43.1287 205.548 42.7677 203.33 42.7412 201.096C42.7662 198.861 43.1304 196.643 43.8212 194.517C44.4981 192.455 45.5041 190.516 46.8002 188.775C47.433 187.929 48.1183 187.123 48.8522 186.363C49.5945 185.641 50.3853 184.97 51.2192 184.356C52.0172 183.747 52.8562 183.194 53.7302 182.7C54.6015 182.239 55.5036 181.839 56.4302 181.503C59.9301 180.235 63.7051 179.924 67.3652 180.603C70.2685 181.161 73.019 182.333 75.4326 184.041C77.8462 185.748 79.8672 187.951 81.3602 190.503C82.3888 192.224 83.1447 194.094 83.6012 196.047C83.7927 196.749 83.9252 197.465 83.9972 198.189C83.9972 198.504 84.0962 198.792 84.1142 199.089V199.818C84.1142 200.232 84.1142 200.556 84.1142 200.799C84.1375 200.897 84.1525 200.996 84.1592 201.096Z" fill="#263238"/>
<path d="M100.485 190.35C100.527 190.548 100.548 190.75 100.548 190.953C100.548 191.385 100.548 191.952 100.62 192.663C100.692 193.374 100.692 194.31 100.62 195.363C100.62 195.894 100.62 196.452 100.62 197.055C100.62 197.658 100.62 198.288 100.503 198.945C100.377 200.268 100.287 201.726 100.008 203.274C99.8907 204.048 99.7917 204.849 99.6297 205.668C99.4677 206.487 99.2697 207.324 99.0897 208.188C98.2242 211.909 97.0191 215.542 95.4897 219.042C93.9091 222.524 92.0206 225.859 89.8467 229.005C88.8027 230.418 87.8397 231.786 86.7957 232.965C86.2917 233.559 85.8237 234.162 85.3287 234.693L83.8977 236.205C82.9977 237.204 82.0977 238.005 81.3237 238.716C80.6761 239.353 79.994 239.954 79.2807 240.516L77.9487 241.596C77.8026 241.727 77.6426 241.842 77.4717 241.938C77.5996 241.787 77.7412 241.649 77.8947 241.524L79.1637 240.381C79.7307 239.895 80.4057 239.292 81.1437 238.581C81.8817 237.87 82.7817 237.033 83.6547 236.034L85.0587 234.504C85.5447 233.973 85.9587 233.37 86.4987 232.776C87.5157 231.597 88.4607 230.229 89.4957 228.807C91.6319 225.674 93.4929 222.361 95.0577 218.907C96.5786 215.422 97.7834 211.808 98.6577 208.107L99.2157 205.605C99.3777 204.795 99.4857 203.994 99.6207 203.229C99.9087 201.699 100.017 200.25 100.161 198.936C100.242 198.279 100.296 197.649 100.314 197.055L100.395 195.372C100.476 194.319 100.458 193.41 100.458 192.672C100.458 191.934 100.458 191.403 100.458 190.962C100.451 190.758 100.46 190.553 100.485 190.35Z" fill="#263238"/>
<path d="M349.329 424.206H136.515C135.12 424.183 133.744 423.885 132.465 423.329C131.186 422.773 130.029 421.971 129.061 420.968C128.092 419.965 127.33 418.781 126.82 417.483C126.309 416.186 126.059 414.8 126.084 413.406V88.1279C126.059 86.7337 126.309 85.3482 126.82 84.0506C127.33 82.753 128.092 81.5689 129.061 80.5659C130.029 79.5628 131.186 78.7606 132.465 78.205C133.744 77.6494 135.12 77.3514 136.515 77.3279H349.329C350.723 77.3514 352.098 77.6495 353.377 78.2052C354.655 78.7608 355.812 79.5632 356.78 80.5664C357.748 81.5696 358.508 82.7538 359.018 84.0513C359.528 85.3488 359.777 86.7341 359.751 88.1279V413.424C359.775 414.816 359.524 416.2 359.013 417.495C358.502 418.791 357.741 419.973 356.773 420.974C355.805 421.975 354.65 422.776 353.372 423.33C352.095 423.885 350.721 424.183 349.329 424.206Z" fill="#263238"/>
<path d="M246.999 408.429C247.033 410.394 246.481 412.324 245.414 413.975C244.347 415.625 242.813 416.921 241.007 417.696C239.202 418.472 237.206 418.693 235.274 418.33C233.343 417.968 231.563 417.038 230.161 415.661C228.759 414.284 227.799 412.52 227.403 410.595C227.007 408.67 227.193 406.671 227.937 404.852C228.681 403.033 229.95 401.477 231.581 400.381C233.213 399.285 235.133 398.7 237.099 398.7C239.701 398.678 242.206 399.691 244.062 401.515C245.919 403.34 246.975 405.826 246.999 408.429Z" fill="#455A64"/>
<path d="M266.861 95.67H219.161C218.717 95.6629 218.278 95.5684 217.871 95.3918C217.463 95.2152 217.094 94.96 216.784 94.6408C216.475 94.3215 216.232 93.9445 216.068 93.5311C215.905 93.1178 215.824 92.6764 215.831 92.232C215.817 91.3336 216.16 90.4662 216.784 89.82C217.408 89.1737 218.263 88.8015 219.161 88.785H266.861C267.76 88.8015 268.615 89.1737 269.239 89.82C269.863 90.4662 270.206 91.3336 270.192 92.232C270.199 92.6764 270.118 93.1178 269.955 93.5311C269.791 93.9445 269.548 94.3215 269.239 94.6408C268.929 94.96 268.56 95.2152 268.152 95.3918C267.745 95.5684 267.306 95.6629 266.861 95.67Z" fill="#455A64"/>
<path d="M352.191 102.087H133.257V391.761H352.191V102.087Z" fill="white"/>
<path d="M352.191 102.087H342.849V391.761H352.191V102.087Z" fill="#F5F5F5"/>
<path d="M347.512 206.163C346.74 206.161 346 205.852 345.455 205.306C344.91 204.759 344.604 204.019 344.604 203.247V139.176C344.604 138.404 344.91 137.664 345.455 137.117C346 136.571 346.74 136.262 347.512 136.26C348.285 136.26 349.027 136.567 349.573 137.114C350.12 137.661 350.427 138.403 350.427 139.176V203.247C350.427 204.02 350.12 204.762 349.573 205.309C349.027 205.856 348.285 206.163 347.512 206.163Z" fill="#E0E0E0"/>
<path d="M323.633 168.012H162.209C160.978 168.012 159.797 167.523 158.926 166.652C158.055 165.781 157.565 164.6 157.565 163.368C157.565 162.136 158.055 160.955 158.926 160.084C159.797 159.213 160.978 158.724 162.209 158.724H323.633C324.865 158.724 326.046 159.213 326.917 160.084C327.788 160.955 328.277 162.136 328.277 163.368C328.277 164.6 327.788 165.781 326.917 166.652C326.046 167.523 324.865 168.012 323.633 168.012Z" fill="#E0E0E0"/>
<path d="M298.803 134.1H197.256C196.025 134.1 194.843 133.611 193.973 132.74C193.102 131.869 192.612 130.688 192.612 129.456C192.612 128.224 193.102 127.043 193.973 126.172C194.843 125.301 196.025 124.812 197.256 124.812H298.803C300.035 124.812 301.216 125.301 302.087 126.172C302.958 127.043 303.447 128.224 303.447 129.456C303.447 130.688 302.958 131.869 302.087 132.74C301.216 133.611 300.035 134.1 298.803 134.1Z" fill="#EFDF18"/>
<path d="M300.711 186.705H185.133C183.902 186.705 182.72 186.216 181.849 185.345C180.979 184.474 180.489 183.293 180.489 182.061C180.489 180.829 180.979 179.648 181.849 178.777C182.72 177.906 183.902 177.417 185.133 177.417H300.711C301.321 177.417 301.925 177.537 302.488 177.771C303.052 178.004 303.564 178.346 303.995 178.777C304.426 179.208 304.768 179.72 305.002 180.284C305.235 180.847 305.355 181.451 305.355 182.061C305.355 182.671 305.235 183.275 305.002 183.838C304.768 184.402 304.426 184.914 303.995 185.345C303.564 185.776 303.052 186.118 302.488 186.352C301.925 186.585 301.321 186.705 300.711 186.705Z" fill="#E0E0E0"/>
<path d="M248.529 268.2H159.6C158.368 268.2 157.187 267.711 156.316 266.84C155.445 265.969 154.956 264.788 154.956 263.556C154.956 262.946 155.076 262.342 155.31 261.779C155.543 261.215 155.885 260.703 156.316 260.272C156.747 259.841 157.259 259.499 157.823 259.265C158.386 259.032 158.99 258.912 159.6 258.912H248.529C249.139 258.912 249.743 259.032 250.306 259.265C250.87 259.499 251.382 259.841 251.813 260.272C252.244 260.703 252.586 261.215 252.82 261.779C253.053 262.342 253.173 262.946 253.173 263.556C253.173 264.788 252.684 265.969 251.813 266.84C250.942 267.711 249.761 268.2 248.529 268.2Z" fill="#E0E0E0"/>
<path d="M321.024 248.733H159.6C158.368 248.733 157.187 248.244 156.316 247.373C155.445 246.502 154.956 245.321 154.956 244.089C154.956 243.48 155.076 242.876 155.31 242.313C155.543 241.75 155.885 241.239 156.317 240.808C156.748 240.378 157.26 240.037 157.824 239.804C158.387 239.572 158.991 239.453 159.6 239.454H321.024C321.633 239.453 322.237 239.572 322.801 239.804C323.364 240.037 323.876 240.378 324.307 240.808C324.739 241.239 325.081 241.75 325.314 242.313C325.548 242.876 325.668 243.48 325.668 244.089C325.668 244.699 325.548 245.303 325.315 245.866C325.081 246.43 324.739 246.942 324.308 247.373C323.877 247.804 323.365 248.146 322.801 248.379C322.238 248.613 321.634 248.733 321.024 248.733Z" fill="#E0E0E0"/>
<path d="M321.024 302.085H179.733C177.168 302.085 175.089 304.164 175.089 306.729C175.089 309.294 177.168 311.373 179.733 311.373H321.024C323.589 311.373 325.668 309.294 325.668 306.729C325.668 304.164 323.589 302.085 321.024 302.085Z" fill="#E0E0E0"/>
<path d="M321.024 331.2H159.6C158.368 331.2 157.187 330.711 156.316 329.84C155.445 328.969 154.956 327.788 154.956 326.556C154.961 325.327 155.452 324.151 156.323 323.284C157.193 322.417 158.372 321.93 159.6 321.93H321.024C321.634 321.93 322.238 322.05 322.801 322.283C323.365 322.517 323.877 322.859 324.308 323.29C324.739 323.721 325.081 324.233 325.315 324.797C325.548 325.36 325.668 325.964 325.668 326.574C325.663 327.802 325.172 328.979 324.302 329.846C323.431 330.713 322.253 331.2 321.024 331.2Z" fill="#E0E0E0"/>
<path d="M321.024 351.378H159.6C158.368 351.378 157.187 350.889 156.316 350.018C155.445 349.147 154.956 347.966 154.956 346.734C154.956 345.502 155.445 344.321 156.316 343.45C157.187 342.579 158.368 342.09 159.6 342.09H321.024C321.634 342.09 322.238 342.21 322.801 342.443C323.365 342.677 323.877 343.019 324.308 343.45C324.739 343.881 325.081 344.393 325.315 344.957C325.548 345.52 325.668 346.124 325.668 346.734C325.668 347.966 325.179 349.147 324.308 350.018C323.437 350.889 322.256 351.378 321.024 351.378Z" fill="#E0E0E0"/>
<path d="M166.864 306.729C166.864 307.684 166.581 308.617 166.05 309.41C165.52 310.204 164.766 310.822 163.884 311.187C163.002 311.552 162.031 311.647 161.095 311.46C160.159 311.273 159.3 310.813 158.626 310.137C157.951 309.461 157.493 308.601 157.307 307.665C157.122 306.728 157.219 305.758 157.586 304.877C157.952 303.995 158.572 303.243 159.366 302.714C160.161 302.185 161.094 301.903 162.049 301.905C163.327 301.907 164.551 302.417 165.454 303.321C166.357 304.226 166.864 305.451 166.864 306.729Z" fill="#EFDF18"/>
<path d="M321.024 230.598H179.724C178.492 230.598 177.311 230.109 176.44 229.238C175.569 228.367 175.08 227.186 175.08 225.954C175.08 224.722 175.569 223.541 176.44 222.67C177.311 221.799 178.492 221.31 179.724 221.31H321.024C321.634 221.31 322.238 221.43 322.801 221.663C323.365 221.897 323.877 222.239 324.308 222.67C324.739 223.101 325.081 223.613 325.315 224.177C325.548 224.74 325.668 225.344 325.668 225.954C325.668 226.564 325.548 227.168 325.315 227.731C325.081 228.295 324.739 228.807 324.308 229.238C323.877 229.669 323.365 230.011 322.801 230.244C322.238 230.478 321.634 230.598 321.024 230.598Z" fill="#E0E0E0"/>
<path d="M162.047 230.778C164.711 230.778 166.871 228.618 166.871 225.954C166.871 223.29 164.711 221.13 162.047 221.13C159.382 221.13 157.223 223.29 157.223 225.954C157.223 228.618 159.382 230.778 162.047 230.778Z" fill="#EFDF18"/>
<path d="M316.515 380.907H280.29C278.328 380.907 276.446 380.128 275.058 378.74C273.671 377.353 272.892 375.471 272.892 373.509C272.892 371.547 273.671 369.665 275.058 368.278C276.446 366.89 278.328 366.111 280.29 366.111H316.515C318.477 366.111 320.358 366.89 321.746 368.278C323.133 369.665 323.913 371.547 323.913 373.509C323.913 375.471 323.133 377.353 321.746 378.74C320.358 380.128 318.477 380.907 316.515 380.907Z" fill="#EFDF18"/>
<path d="M99.9011 31.815L62.3531 50.652C60.9791 51.2362 59.8072 52.2113 58.9831 53.4563C58.159 54.7013 57.7191 56.161 57.7181 57.654V75.222C57.6737 91.2106 62.3308 106.859 71.1101 120.222C77.8781 130.5 86.8421 143.676 101.773 151.2H108.505C125.119 146.133 137.521 132.624 145.108 121.077C153.887 107.714 158.545 92.0656 158.5 76.077V57.654C158.502 56.1651 158.068 54.7082 157.25 53.4637C156.433 52.2192 155.268 51.2416 153.901 50.652L111.097 32.4C109.189 31.617 101.809 31.005 99.9011 31.815Z" fill="#EFDF18"/>
<path opacity="0.3" d="M99.9011 31.815L62.3531 50.652C60.9791 51.2362 59.8072 52.2113 58.9831 53.4563C58.159 54.7013 57.7191 56.161 57.7181 57.654V75.222C57.6737 91.2106 62.3308 106.859 71.1101 120.222C77.8781 130.5 86.8421 143.676 101.773 151.2H108.505C125.119 146.133 137.521 132.624 145.108 121.077C153.887 107.714 158.545 92.0656 158.5 76.077V57.654C158.502 56.1651 158.068 54.7082 157.25 53.4637C156.433 52.2192 155.268 51.2416 153.901 50.652L111.097 32.4C109.189 31.617 101.809 31.005 99.9011 31.815Z" fill="black"/>
<path d="M98.3884 32.4L55.6114 50.652C54.2384 51.2365 53.0677 52.2121 52.2451 53.4571C51.4225 54.7022 50.9844 56.1618 50.9854 57.654V75.222C50.9875 91.4893 55.8139 107.391 64.854 120.915C73.8941 134.439 86.7419 144.978 101.772 151.2C118.386 146.133 130.788 132.624 138.366 121.077C147.15 107.716 151.807 92.0662 151.758 76.077V57.654C151.759 56.1618 151.321 54.7022 150.499 53.4571C149.676 52.2121 148.505 51.2365 147.132 50.652L104.4 32.4C103.45 31.993 102.428 31.7831 101.394 31.7831C100.361 31.7831 99.3382 31.993 98.3884 32.4Z" fill="#EFDF18"/>
<path d="M151.623 71.343C151.634 71.4115 151.634 71.4814 151.623 71.55C151.623 71.712 151.623 71.91 151.623 72.153C151.623 72.729 151.668 73.503 151.704 74.484C151.74 75.465 151.794 76.725 151.704 78.165C151.704 78.885 151.704 79.65 151.632 80.46C151.632 80.874 151.632 81.288 151.632 81.72C151.632 82.152 151.551 82.62 151.506 83.043C151.326 84.843 151.209 86.823 150.831 88.92C150.66 89.964 150.525 91.062 150.309 92.169C150.093 93.276 149.823 94.419 149.571 95.589C148.383 100.648 146.728 105.586 144.63 110.34C142.486 115.072 139.926 119.605 136.98 123.885C135.558 125.811 134.28 127.674 132.84 129.285C132.147 130.095 131.517 130.914 130.842 131.634L128.898 133.704C127.692 135.054 126.45 136.125 125.415 137.124C124.884 137.61 124.407 138.078 123.948 138.483L122.688 139.5L120.888 140.976L120.411 141.354C120.303 141.435 120.24 141.471 120.24 141.462C120.24 141.453 120.24 141.408 120.375 141.309L120.825 140.904L122.562 139.365L123.831 138.258C124.29 137.853 124.731 137.358 125.271 136.872C126.288 135.864 127.503 134.784 128.691 133.425L130.608 131.337C131.274 130.617 131.895 129.798 132.57 128.988C133.965 127.386 135.27 125.523 136.656 123.588C139.573 119.317 142.112 114.8 144.243 110.088C146.323 105.358 147.977 100.451 149.184 95.427C149.445 94.266 149.688 93.132 149.94 92.034C150.192 90.936 150.3 89.838 150.48 88.794C150.876 86.706 151.011 84.735 151.209 82.944C151.263 82.503 151.308 82.044 151.353 81.639C151.398 81.234 151.353 80.793 151.407 80.388C151.443 79.578 151.479 78.813 151.515 78.093C151.614 76.662 151.587 75.393 151.587 74.421V72.162V71.55C151.586 71.4793 151.598 71.4089 151.623 71.343Z" fill="#263238"/>
<path d="M118.315 94.95H113.752V70.119C113.672 67.3618 112.52 64.7445 110.541 62.8227C108.563 60.9009 105.913 59.8258 103.155 59.8258C100.396 59.8258 97.7466 60.9009 95.7679 62.8227C93.7893 64.7445 92.6375 67.3618 92.5571 70.119V94.95H87.9941V70.119C88.0906 66.1621 89.7301 62.3998 92.5628 59.6353C95.3954 56.8708 99.1966 55.3234 103.155 55.3234C107.113 55.3234 110.914 56.8708 113.747 59.6353C116.579 62.3998 118.219 66.1621 118.315 70.119V94.95Z" fill="#F5F5F5"/>
<path d="M118.36 78.1019H87.9575C85.0696 78.1019 82.7285 80.443 82.7285 83.3309V104.895C82.7285 107.783 85.0696 110.124 87.9575 110.124H118.36C121.247 110.124 123.589 107.783 123.589 104.895V83.3309C123.589 80.443 121.247 78.1019 118.36 78.1019Z" fill="white"/>
<path d="M118.36 110.124C118.817 110.076 119.271 109.997 119.719 109.89C120.809 109.575 121.766 108.912 122.444 108.002C123.122 107.092 123.483 105.985 123.472 104.85C123.472 103.797 123.472 102.654 123.472 101.421C123.472 98.964 123.472 96.165 123.472 93.069C123.472 89.973 123.472 86.598 123.472 82.962C123.404 82.0558 123.092 81.1848 122.569 80.4416C122.046 79.6984 121.332 79.1107 120.502 78.741C119.616 78.3765 118.657 78.2284 117.703 78.309H114.679L87.9579 78.3C86.8347 78.2996 85.7442 78.6777 84.8623 79.3734C83.9805 80.069 83.3589 81.0416 83.0979 82.134C82.9811 82.6778 82.9327 83.2341 82.9539 83.79V88.857C82.9539 93.357 82.9539 97.605 82.9539 101.7C83.0349 103.734 82.6119 105.831 83.6559 107.433C84.1181 108.22 84.7846 108.867 85.5847 109.306C86.3848 109.745 87.2888 109.959 88.2009 109.926H98.3259L112.987 110.007H116.965H118C118.12 109.996 118.24 109.996 118.36 110.007C118.24 110.02 118.119 110.02 118 110.007H116.965H112.987L98.3259 110.079H88.2009C87.4572 110.112 86.7146 109.993 86.019 109.728C85.3233 109.463 84.6894 109.058 84.1563 108.539C83.6233 108.019 83.2024 107.396 82.9197 106.707C82.637 106.019 82.4986 105.279 82.5129 104.535V101.7C82.5129 97.605 82.5129 93.312 82.5129 88.857V83.826C82.4858 83.2219 82.5372 82.6168 82.6659 82.026C82.9583 80.8465 83.64 79.8 84.6009 79.056C85.5696 78.2897 86.7677 77.8713 88.0029 77.868H114.625H117.649C118.663 77.7905 119.682 77.9572 120.619 78.354C121.514 78.7537 122.284 79.3896 122.845 80.1934C123.406 80.9973 123.738 81.9388 123.805 82.917C123.805 86.589 123.805 89.955 123.805 93.051C123.805 96.147 123.805 98.946 123.805 101.403C123.805 102.636 123.805 103.779 123.805 104.832C123.806 105.818 123.532 106.784 123.013 107.622C122.307 108.786 121.173 109.626 119.854 109.962C119.37 110.109 118.864 110.164 118.36 110.124Z" fill="#263238"/>
<path d="M106.291 94.9409C106.703 94.5302 107.029 94.042 107.252 93.5044C107.474 92.9669 107.588 92.3907 107.587 91.809C107.592 90.9705 107.363 90.1472 106.925 89.432C106.488 88.7167 105.859 88.138 105.11 87.761C104.361 87.3841 103.522 87.2239 102.686 87.2985C101.851 87.3731 101.054 87.6796 100.383 88.1834C99.713 88.6871 99.1968 89.3682 98.8929 90.1496C98.589 90.9311 98.5095 91.782 98.6633 92.6062C98.8171 93.4305 99.1982 94.1954 99.7635 94.8146C100.329 95.4339 101.056 95.8829 101.863 96.111L100.9 100.377H105.175L104.275 96.111C105.022 95.8976 105.701 95.4945 106.246 94.9409" fill="#EFDF18"/>
</svg>
