<svg xmlns="http://www.w3.org/2000/svg" width="48" height="48" viewBox="0 0 48 48" fill="none">
<path d="M46.1953 22.375C46.7759 23.3806 46.7759 24.6194 46.1953 25.625L36.5049 42.4092C35.9243 43.4147 34.8515 44.0342 33.6904 44.0342L14.3096 44.0342C13.1485 44.0342 12.0757 43.4147 11.4951 42.4092L1.80469 25.625C1.22413 24.6194 1.22413 23.3806 1.80469 22.375L11.4951 5.59082C12.0757 4.58527 13.1485 3.96582 14.3096 3.96582L33.6904 3.96582C34.8515 3.96582 35.9243 4.58527 36.5049 5.59082L46.1953 22.375Z" fill="#FFF89D" stroke="#D4C60F" stroke-width="1.5"/>
<path d="M22.5 13.5H20.25C19.6533 13.5 19.081 13.7371 18.659 14.159C18.2371 14.581 18 15.1533 18 15.75V32.25C18 32.8467 18.2371 33.419 18.659 33.841C19.081 34.2629 19.6533 34.5 20.25 34.5H27.75C28.3467 34.5 28.919 34.2629 29.341 33.841C29.7629 33.419 30 32.8467 30 32.25V15.75C30 15.1533 29.7629 14.581 29.341 14.159C28.919 13.7371 28.3467 13.5 27.75 13.5H25.5M22.5 13.5V15H25.5V13.5M22.5 13.5H25.5M22.5 32.25H25.5" stroke="#4F4C28" stroke-width="1.5" stroke-linecap="round" stroke-linejoin="round"/>
</svg>
